<svg width="194" height="58" viewBox="0 0 194 58" fill="none" xmlns="http://www.w3.org/2000/svg">
<path d="M185.855 57.294H7.14699C3.20561 57.294 0 54.0823 0 50.1334V7.1606C0 3.21172 3.20561 0 7.14699 0H185.855C189.797 0 193.002 3.21172 193.002 7.1606V50.1334C193.002 54.0823 189.797 57.294 185.855 57.294ZM7.14699 1.43151C3.99328 1.43151 1.42879 4.00088 1.42879 7.1606V50.1334C1.42879 53.2931 3.99328 55.8625 7.14699 55.8625H185.855C189.009 55.8625 191.574 53.2931 191.574 50.1334V7.1606C191.574 4.00088 189.009 1.43151 185.855 1.43151H7.14699Z" fill="#181B34" fill-opacity="0.8"/>
<path d="M66.3726 18.4316H63.4082L57 36.2154H59.8301L61.4665 31.4957H68.2319L69.856 36.2154H72.7838L66.3757 18.4316H66.3726ZM62.1656 29.1771L64.7484 21.6617H64.956L67.5266 29.1771H62.1656Z" fill="#181B34" fill-opacity="0.8"/>
<path d="M81.1379 23.0527C79.3794 23.0527 77.8621 23.9306 77.0805 25.408H76.8912V23.2669H74.4336V40.5214H76.9859V34.254H77.1874C77.8621 35.6213 79.3214 36.4288 81.1623 36.4288C84.4259 36.4288 86.502 33.8502 86.502 29.7362C86.502 25.6221 84.4259 23.0558 81.1379 23.0558V23.0527ZM80.4143 34.1347C78.2773 34.1347 76.937 32.4462 76.937 29.7484C76.937 27.0506 78.2773 25.3499 80.4266 25.3499C82.5759 25.3499 83.8795 27.0016 83.8795 29.7362C83.8795 32.4707 82.5881 34.1347 80.4143 34.1347V34.1347Z" fill="#181B34" fill-opacity="0.8"/>
<path d="M95.427 23.0527C93.6684 23.0527 92.1511 23.9306 91.3696 25.408H91.1772V23.2669H88.7227V40.5214H91.2749V34.254H91.4764C92.1511 35.6213 93.6104 36.4288 95.4514 36.4288C98.715 36.4288 100.794 33.8502 100.794 29.7362C100.794 25.6221 98.715 23.0558 95.43 23.0558L95.427 23.0527ZM94.7034 34.1347C92.5663 34.1347 91.2261 32.4462 91.2261 29.7484C91.2261 27.0506 92.5663 25.3499 94.7156 25.3499C96.8649 25.3499 98.1685 27.0016 98.1685 29.7362C98.1685 32.4707 96.8771 34.1347 94.7034 34.1347V34.1347Z" fill="#181B34" fill-opacity="0.8"/>
<path d="M121.183 31.113C121.183 34.5144 118.551 36.6463 114.344 36.6463C110.409 36.6463 107.765 34.6153 107.566 31.4342H110.299C110.534 33.1226 112.182 34.1932 114.555 34.1932C116.768 34.1932 118.392 33.0461 118.392 31.4709C118.392 30.1158 117.36 29.3022 115.01 28.7455L112.723 28.1919C109.514 27.4394 108.049 25.8855 108.049 23.2733C108.049 20.1075 110.632 18 114.506 18C118.111 18 120.743 20.1075 120.902 23.102H118.221C117.962 21.4625 116.536 20.4409 114.469 20.4409C112.292 20.4409 110.839 21.4901 110.839 23.0898C110.839 24.3592 111.773 25.0872 114.088 25.6286L116.044 26.1088C119.687 26.9592 121.186 28.4366 121.186 31.113H121.183Z" fill="#181B34" fill-opacity="0.8"/>
<path d="M126.85 23.3261H129.65V25.4765H126.85V32.1354C126.85 33.4905 127.409 34.0839 128.676 34.0839C129.066 34.0839 129.295 34.0625 129.65 34.0258V36.1516C129.234 36.222 128.758 36.2831 128.26 36.2831C125.424 36.2831 124.298 35.286 124.298 32.787V25.4734H122.246V23.3231H124.298V20.041H126.85V23.3231V23.3261Z" fill="#181B34" fill-opacity="0.8"/>
<path d="M136.877 23.0176C133.104 23.0176 130.777 25.5625 130.777 29.7347C130.777 33.9068 133.091 36.464 136.877 36.464C140.663 36.464 142.965 33.9313 142.965 29.7347C142.965 25.538 140.638 23.0176 136.877 23.0176ZM136.877 34.1944C134.658 34.1944 133.412 32.564 133.412 29.7347C133.412 26.9053 134.658 25.2903 136.877 25.2903C139.097 25.2903 140.342 26.9298 140.342 29.7347C140.342 32.5396 139.084 34.1944 136.877 34.1944Z" fill="#181B34" fill-opacity="0.8"/>
<path d="M151.082 23.0527C151.463 23.0527 151.949 23.0894 152.221 23.1598V25.6802C152.007 25.6099 151.247 25.5273 150.798 25.5273C148.865 25.5273 147.498 26.7539 147.498 28.5708V36.2147H144.945V23.2638H147.403V25.252H147.592C147.959 23.9795 149.393 23.0527 151.082 23.0527Z" fill="#181B34" fill-opacity="0.8"/>
<path d="M164.333 30.4382V29.545C164.333 25.4799 162.162 23.0176 158.566 23.0176C154.969 23.0176 152.609 25.6451 152.609 29.7836C152.609 33.9221 154.875 36.464 158.578 36.464C161.533 36.464 163.597 35.0386 164.18 32.72H161.722C161.249 33.7294 160.19 34.2892 158.648 34.2892C156.606 34.2892 155.29 32.8516 155.204 30.5789V30.4351H164.33L164.333 30.4382ZM158.553 25.1954C160.44 25.1954 161.674 26.5168 161.735 28.5479H155.207C155.351 26.526 156.667 25.1954 158.553 25.1954Z" fill="#181B34" fill-opacity="0.8"/>
<path d="M46.3554 36.153C45.716 38.029 44.751 39.8033 43.4964 41.4071C41.8116 43.6822 40.0464 45.9029 37.2437 45.9465C34.5214 46.0009 33.6087 44.4987 30.4843 44.4987C27.36 44.4987 26.3547 45.9029 23.7451 46.0009C21.0751 46.0916 19.0364 43.5734 17.2913 41.3237C13.8051 36.7227 11.0868 28.3625 14.7299 22.673C16.4268 19.9262 19.6717 18.1409 23.154 18.0357C25.8239 17.9849 28.3049 19.6649 29.9455 19.6649C31.5861 19.6649 34.622 17.6583 37.7865 17.9559C40.754 18.0393 43.6009 19.4291 45.3018 21.6243C42.6037 23.1193 40.9069 25.8226 40.8626 28.6782C40.8666 31.904 43.0661 34.8939 46.3594 36.153H46.3554Z" fill="#181B34" fill-opacity="0.8"/>
<path d="M35.7251 14.929C34.2614 16.5728 31.9654 17.5525 29.6292 17.5307C29.4804 15.4661 30.2685 13.376 31.7804 11.8194C33.3285 10.2264 35.4878 9.22134 37.82 9C38.001 11.1517 37.249 13.2781 35.721 14.9327L35.7251 14.929Z" fill="#181B34" fill-opacity="0.8"/>
</svg>
