<svg width="106" height="106" viewBox="0 0 106 106" fill="none" xmlns="http://www.w3.org/2000/svg">
<circle cx="53" cy="53" r="53" fill="#F8F8FA"/>
<path d="M38.8339 52.9051L39.2981 48.6593L35.5352 49.9971L36.083 45.3315" stroke="#181B34" stroke-width="3" stroke-miterlimit="10" stroke-linejoin="bevel"/>
<path d="M58.7676 49.7215L64.1553 48.0901L60.8594 41.6253L51.0327 40.3819L39.607 36.1352L23.511 39.103L17.0939 45.9735L12.0001 48.9764L13.402 57.7587L16.797 57.9878" stroke="#9E9C9A" stroke-width="3" stroke-miterlimit="10" stroke-linejoin="bevel"/>
<path d="M31.614 54.5793L44.8694 51.7419" stroke="#9E9C9A" stroke-width="3" stroke-miterlimit="10" stroke-linejoin="bevel"/>
<path d="M24.3842 61.2783C26.9658 61.2783 29.0586 59.1855 29.0586 56.6038C29.0586 54.0222 26.9658 51.9294 24.3842 51.9294C21.8025 51.9294 19.7097 54.0222 19.7097 56.6038C19.7097 59.1855 21.8025 61.2783 24.3842 61.2783Z" stroke="#9E9C9A" stroke-width="3" stroke-miterlimit="10" stroke-linejoin="bevel"/>
<path d="M52.2726 55.3158C54.8542 55.3158 56.9471 53.2229 56.9471 50.6413C56.9471 48.0597 54.8542 45.9669 52.2726 45.9669C49.691 45.9669 47.5981 48.0597 47.5981 50.6413C47.5981 53.2229 49.691 55.3158 52.2726 55.3158Z" stroke="#9E9C9A" stroke-width="3" stroke-miterlimit="10" stroke-linejoin="bevel"/>
<path d="M45.0907 41.6551L43.1966 43.9727L26.7411 47.4949L22.2041 44.1639" stroke="#181B34" stroke-width="3" stroke-miterlimit="10" stroke-linejoin="bevel"/>
<path d="M49.772 70.9984C53.1281 70.9984 55.8488 68.2778 55.8488 64.9216C55.8488 61.5655 53.1281 58.8448 49.772 58.8448C46.4159 58.8448 43.6952 61.5655 43.6952 64.9216C43.6952 68.2778 46.4159 70.9984 49.772 70.9984Z" stroke="#9E9C9A" stroke-width="3" stroke-miterlimit="10" stroke-linejoin="bevel"/>
<path d="M82.5019 70.9905C85.5999 70.9905 88.1113 68.4791 88.1113 65.3811C88.1113 62.2832 85.5999 59.7718 82.5019 59.7718C79.404 59.7718 76.8926 62.2832 76.8926 65.3811C76.8926 68.4791 79.404 70.9905 82.5019 70.9905Z" stroke="#9E9C9A" stroke-width="3" stroke-miterlimit="10" stroke-linejoin="bevel"/>
<path d="M68.4867 35L71.2914 37.3372L73.6286 61.1769L72.2263 65.384H59.1378" stroke="#9E9C9A" stroke-width="3" stroke-miterlimit="10" stroke-linejoin="bevel"/>
<path d="M65.7036 39.2076L67.106 50.4263L65.7036 54.6333L23.6335 63.0473" stroke="#181B34" stroke-width="3" stroke-miterlimit="10" stroke-linejoin="bevel"/>
<path d="M40.9143 64.4532H33.9026" stroke="#9E9C9A" stroke-width="3" stroke-miterlimit="10" stroke-linejoin="bevel"/>
<path d="M72.2241 41.5458L83.4428 42.0132L92.7917 55.5691L93.2592 61.1785L90.9219 63.9832" stroke="#9E9C9A" stroke-width="3" stroke-miterlimit="10" stroke-linejoin="bevel"/>
<path d="M82.0464 46.2168L76.437 46.6842V50.4238L85.3185 50.8912" stroke="#9E9C9A" stroke-width="3" stroke-miterlimit="10" stroke-linejoin="bevel"/>
</svg>
