<svg width="99" height="98" viewBox="0 0 99 98" fill="none" xmlns="http://www.w3.org/2000/svg">
<g clip-path="url(#clip0_6097_2095)">
<path d="M51.0468 3.51543C50.476 3.50446 51.3392 3.65213 50.6762 3.55872C50.7383 3.48932 50.8672 3.43804 51.0468 3.51543Z" fill="#191C36"/>
<path d="M46.8247 89.6659C47.9308 88.1984 49.8723 86.7702 50.9897 85.1045C51.1116 84.9216 51.1095 85.2947 51.4155 84.8602C51.657 84.4515 51.9832 83.9942 52.3305 83.5133C52.6777 83.0325 53.0687 82.5491 53.4575 82.0223C53.8457 81.4954 54.2574 80.9888 54.6255 80.4851C54.8093 80.2333 55.014 79.9579 55.221 79.7267C55.4047 79.4749 55.5891 79.223 55.7523 78.9944L55.7387 79.1484C56.0053 78.8041 56.1499 78.2255 56.3704 77.8397C56.3936 77.8603 56.3565 77.994 56.4419 77.9454C56.3888 77.773 56.8167 77.1556 56.8277 76.9578C56.9521 76.8187 57.0211 76.8806 57.1868 76.6958L57.1937 76.41C57.2161 76.014 57.4576 75.6053 57.6762 75.1757C57.8946 74.7463 58.1773 74.2912 58.3264 73.8003C58.3287 73.8438 58.3128 73.9543 58.375 73.8851C58.8823 72.2983 59.659 70.4107 60.1572 68.6488C60.1618 68.7362 60.254 68.8187 60.3162 68.7494C60.2216 68.6231 60.3456 68.0677 60.474 67.5993C60.6628 67.4352 60.5816 66.7376 60.8185 66.2415L60.8437 66.3058C60.8205 65.8685 61.076 65.7221 61.0111 65.3309L61.1744 65.1021C61.0085 64.8704 61.4294 64.5389 61.3877 64.1683L61.344 64.1708C61.3485 63.8417 61.4933 63.6797 61.5437 63.3916L61.5644 63.3684C61.6582 62.6609 61.8353 62.2779 61.6809 62.2647C61.8441 62.0359 61.6077 62.949 61.8745 62.6046C62.1654 60.2407 62.4535 57.8327 62.5669 55.435C62.6405 55.1676 62.6749 54.9902 62.7162 54.9438C62.7045 54.725 62.6903 54.0459 62.6348 53.8297C62.6395 53.9172 62.7153 53.6934 62.729 53.539C62.7932 53.0966 62.5722 53.0655 62.6132 52.6024C62.6663 52.7749 62.7147 52.8598 62.7768 52.7904C62.6453 52.3812 62.6381 51.8331 62.5917 51.3752C62.617 51.4395 62.6447 51.5476 62.6885 51.5451C62.5293 51.0278 62.6602 50.6034 62.5471 50.1273L62.6439 50.2972C62.6917 49.5486 62.4573 50.0886 62.4453 49.4531C62.4753 49.6049 62.5168 49.5587 62.5605 49.5561C62.3322 48.977 62.3016 47.9916 62.1401 47.4305C62.1631 47.4511 62.1631 47.4511 62.1631 47.4511C62.103 47.1475 62.0844 46.7975 62.022 46.4502C61.9826 46.1233 61.8973 45.7553 61.8141 45.4311C61.8001 45.1686 62.0582 45.4828 61.8896 44.7905C61.717 44.8443 61.5666 43.6684 61.4587 44.1134C61.4217 43.8303 61.357 43.4391 61.2946 43.0918C61.2322 42.7444 61.1491 42.4201 61.0523 42.2502C61.1745 42.4844 61.1879 41.9133 61.3448 42.3869L61.3675 41.9907C61.4573 42.0294 61.4529 42.3587 61.4896 42.225C61.4112 41.9882 61.1783 41.3216 61.1229 41.1054C60.9039 40.7012 60.5792 40.3689 60.3025 39.7048C60.4938 40.0009 60.4427 39.4554 60.5419 39.6691C60.3299 39.3961 60.0949 39.1025 59.8623 38.8527C59.7631 38.639 59.9888 38.7576 59.8183 38.4384C59.7768 38.4847 59.7031 38.3354 59.611 38.2529C59.6063 38.1654 59.1684 37.3571 59.2696 37.1977C59.2856 37.087 59.4631 37.5375 59.4054 37.2776C59.2095 36.894 59.1427 36.8759 58.9469 36.4923L58.9675 36.4692C58.843 36.1912 58.4906 35.7509 58.5506 36.0545C58.6474 36.2244 58.6104 35.9414 58.6912 36.2219C58.5093 36.1008 58.2235 35.6785 57.9839 35.2975C58.099 35.4005 58.1197 35.3774 58.1865 35.3954C57.7466 34.9601 57.3481 34.4786 56.9058 33.9995C56.8207 34.0483 57.1959 34.0925 57.2235 34.2005C56.8111 33.4565 55.9959 32.977 55.6134 32.3849C55.7055 32.4673 55.5767 32.5186 55.5974 32.4955C55.3187 32.2044 55.4038 32.1556 55.1758 31.9933C55.2149 31.9033 54.9018 31.7897 54.6968 31.648C54.5633 31.6118 54.6714 31.5836 54.8534 31.7048C54.6945 31.6042 54.2869 31.3645 53.8333 31.0835C53.3797 30.8026 52.8823 30.5241 52.5185 30.2818C52.5208 30.3256 51.966 30.204 51.7864 30.1266L51.8922 30.0547C51.7541 29.9311 51.266 29.8276 51.2614 29.7401C51.0427 29.7527 51.441 29.8175 51.8208 29.9492C52.1777 30.0602 52.5575 30.1919 52.2467 30.122C52.15 29.9521 51.4503 29.9925 51.6205 29.8949C51.4409 29.8175 51.243 29.807 51.0427 29.7527C50.8425 29.6985 50.6652 29.6648 50.5063 29.5643C50.5961 29.603 50.8538 29.5004 50.5431 29.4305C49.9883 29.309 50.3681 29.4406 49.9261 29.3784L49.6407 29.3729C49.6017 29.4629 49.132 29.2926 49.337 29.4343C49.2655 29.3287 48.5245 29.4153 48.6026 29.2353L48.683 29.0991C48.4414 29.0911 48.2734 29.2324 48.0802 29.3093C48.0571 29.2887 47.9904 29.2706 48.0111 29.2475C47.979 29.4687 47.4195 29.2597 47.1458 29.4729C46.6187 29.4594 45.887 29.721 45.6429 29.6693C45.3024 29.8644 45.0057 30.0571 44.5753 30.2135C44.6605 30.1647 44.7663 30.0928 44.764 30.0491C44.5039 30.1079 44.4418 30.1773 44.2532 30.3418C44.2739 30.3186 44.122 30.3493 43.9494 30.4032C43.7769 30.457 43.5628 30.5571 43.3903 30.6109C43.0982 30.891 43.2961 30.9015 43.3008 30.989C43.0821 31.0016 42.8958 31.2098 42.7095 31.418C42.5233 31.6262 42.383 31.8756 42.146 31.9551C42.2058 31.8419 42.4495 31.4769 42.1965 31.667C42.0883 31.6951 42.0262 31.7645 41.9641 31.8339C41.902 31.9033 41.863 31.9933 41.8239 32.0833C41.7848 32.1734 41.725 32.2865 41.6652 32.3996C41.6055 32.5127 41.5458 32.6259 41.463 32.7184L41.6816 32.7058C41.4262 32.8521 41.3714 33.4695 41.2102 33.3253C41.1758 33.5028 40.8907 33.9141 41.0656 33.904C40.9437 34.0866 40.8703 34.354 40.7945 34.5777C40.7417 34.8221 40.6683 35.0896 40.6822 35.3521C40.6892 35.4833 40.6525 35.617 40.6365 35.7276C40.6435 35.8589 40.6274 35.9695 40.6114 36.0801C40.5794 36.3013 40.568 36.4994 40.4875 36.6357C40.5129 36.7 40.5199 36.8312 40.5452 36.8956C40.5729 37.0037 40.5983 37.068 40.6397 37.0218C40.6924 36.7774 40.5359 36.7206 40.575 36.6306C40.6027 36.7387 40.6487 36.7799 40.6487 36.7799C40.642 37.0655 40.6974 37.2817 40.4878 37.0525C40.4834 37.3818 40.6009 37.5286 40.7415 37.696C40.7898 37.7809 40.882 37.8633 40.9304 37.9483C41.0018 38.0539 41.0525 38.1826 41.1286 38.3756C41.0618 38.3575 41.0228 38.4476 41.1426 38.6381L41.4467 38.9935C41.6886 39.4183 41.4653 39.3434 41.3595 39.4153C41.5254 39.6471 41.7373 39.92 41.8939 39.9768C41.9009 40.108 41.9723 40.2136 42 40.3217C41.8985 40.0643 42.2256 40.4403 42.3385 40.4996C42.3154 40.479 42.2487 40.4609 42.2257 40.4403C42.2303 40.5278 42.502 40.6876 42.6172 40.7906C42.6563 40.7006 42.4029 40.474 42.2854 40.3271C42.4213 40.407 42.6032 40.5282 42.7598 40.585C42.6102 40.6594 43.0615 40.8966 43.2434 41.0178C43.4483 41.1595 43.5518 41.0439 43.5979 41.0851C43.5772 41.1082 43.69 41.1675 43.7361 41.2087C43.8029 41.2268 43.8489 41.268 43.7408 41.2962C43.674 41.2781 43.5796 41.1519 43.4484 41.1595C43.5635 41.2626 43.5037 41.3757 43.8582 41.443C44.123 41.4716 43.8673 41.2012 44.2955 41.4178C44.1644 41.4253 44.1437 41.4485 44.0125 41.4561C44.1483 41.536 44.3049 41.5927 44.4384 41.6289L44.4775 41.5389C44.5235 41.5801 44.4798 41.5827 44.5028 41.6033C44.588 41.5545 44.7652 41.5881 44.9195 41.6012C45.0737 41.6142 45.2486 41.6041 45.3337 41.5553C45.4442 41.5709 45.5547 41.5864 45.6882 41.6226C45.7987 41.6382 45.9322 41.6744 46.0427 41.6899L45.9989 41.6925C46.2867 41.7417 46.6342 41.6778 46.8689 41.5546L46.8482 41.5777C47.0001 41.547 47.3476 41.483 47.5179 41.3855C47.9114 41.3628 47.7575 41.7666 48.1394 41.5252C48.5283 41.415 48.6893 41.1425 48.4913 41.1319C49.207 40.9809 49.8603 40.4826 50.5323 40.3341C50.6151 40.2416 50.5277 40.2466 50.7186 40.1259C51.6804 39.6536 52.5821 38.8777 53.4197 38.5442C53.1896 38.7549 53.468 38.6291 53.4934 38.6935C53.6567 38.4647 53.7949 38.5884 53.7855 38.4134C53.7165 38.3516 53.6911 38.2872 53.4357 38.4336C53.9188 38.0328 54.6756 37.4188 55.0184 37.2674C54.8689 37.3418 54.9286 37.2287 55.0321 37.113C55.1059 37.2623 55.4855 36.9772 55.7108 36.679L55.6831 36.5709L55.9201 36.4914C56.0006 36.3552 55.9061 36.229 56.2259 36.057C56.249 36.0776 56.3157 36.0957 56.3802 36.07C56.5825 35.7512 56.8653 35.2961 57.2265 35.0779C57.3346 35.0497 57.4405 34.9778 57.5486 34.9496C57.6729 34.8108 57.79 34.5408 57.56 34.7515C58.1075 34.3251 58.3973 34.0012 58.6343 33.9218C59.1905 32.8367 60.2598 31.5026 61.0785 30.4024L61.1039 30.4667C61.3753 30.2098 61.1129 30.2249 61.3015 30.0605C61.2878 30.2148 61.6006 29.9116 61.5064 30.2022C61.8583 29.8089 61.7799 29.5722 61.9385 29.2559C61.8901 29.1709 61.842 29.5028 61.7706 29.3972C61.789 29.3303 62.2443 28.8215 62.1268 28.6747C62.2327 28.6027 62.2834 28.7314 62.288 28.8189L62.4029 28.5052C62.7618 28.2432 62.1895 29.4389 62.5921 29.1743L62.7323 28.9249C63.0084 28.7555 62.4659 29.6862 62.8936 29.0692C63.0084 28.7554 62.9667 28.3849 62.7598 28.6162C63.0563 28.0068 62.6259 28.1632 62.9662 27.5513C63.1341 27.41 62.7088 28.0707 62.8813 28.0169C63.1527 27.7599 63.1548 27.3869 63.3387 27.1349C63.1341 27.41 63.1384 27.0807 63.1935 26.8801C63.4189 26.5819 63.2076 27.1425 63.4466 26.69C63.4189 26.5819 63.5475 26.1138 63.3244 26.4557C63.246 26.2189 63.5842 25.98 63.5679 25.6739C63.7588 25.5532 63.6442 26.2837 63.9247 25.7849C63.7728 25.8156 64.0186 25.0775 63.7448 25.2907C63.8667 25.1082 63.9542 25.1031 63.9865 25.2987C64.1912 25.0236 64.032 24.5063 64.2944 24.4912L64.2206 24.3419C64.2827 24.2725 64.3631 24.1362 64.4873 23.9974C64.5838 23.7506 64.5489 23.0944 64.7285 23.1719C64.7238 23.0844 64.866 22.4619 64.6798 22.6701C64.5235 23.0301 64.6824 23.1306 64.45 23.2976C64.657 23.0663 64.5739 22.742 64.5623 22.5233L64.6497 22.5182C64.6427 22.387 64.7139 22.0758 64.6654 21.9908C64.6931 22.0989 64.7346 22.0527 64.7943 21.9396L64.6975 21.7696C64.734 21.2191 64.9115 21.6695 64.9503 21.1627L64.9943 21.577C64.9896 21.4895 65.1115 21.307 65.1205 21.0652C65.0261 20.939 64.9293 20.769 64.8372 20.6866C64.8001 20.4036 64.9614 20.5479 64.8806 20.2673L64.9891 20.6559C65.0144 20.7203 65.173 20.404 65.1957 20.0078C65.1611 19.7685 65.0065 19.3387 64.9631 19.758C64.9745 19.5599 65.0249 19.2718 65.1217 19.4417C65.0753 18.9837 65.0159 19.5136 64.9512 19.1225C65.0086 18.9656 65.0911 18.4563 65.1622 18.1451C65.236 18.2944 65.3074 18.3999 65.3812 18.5492C65.3765 18.4618 65.3719 18.3743 65.3672 18.2868C65.5608 18.6266 65.466 18.0837 65.6296 18.2717C65.6409 18.0736 65.5625 17.8368 65.5094 17.6644C65.4153 17.955 65.3415 17.8057 65.2217 17.6151C65.1018 17.4246 64.9797 17.1903 64.8969 17.2829C64.8115 16.9149 64.915 16.7992 64.9955 16.6629C65.0759 16.5267 65.1126 16.3929 64.8523 16.035C64.8156 16.1687 64.6013 15.852 64.7351 16.305C64.645 15.8495 64.4587 16.0577 64.4077 15.5122C64.5806 15.8752 64.5132 15.0235 64.7829 15.5564C64.7161 15.5383 64.8223 15.8832 64.8707 15.9681C64.9027 15.7469 65.0893 15.9555 64.9762 15.4794C64.8955 15.1989 64.7433 14.8128 64.6605 14.9053C64.5316 14.9566 64.815 15.3352 64.6307 15.1703C64.4048 14.6349 64.5497 14.4729 64.2573 14.3362C64.4071 14.6786 64.3036 14.7942 64.2392 14.8199C64.1885 14.6912 64.1171 14.5857 64.0433 14.4363L64.1561 14.4957C63.9899 13.8471 63.9511 14.3539 63.7436 13.7516L63.7386 13.2473C63.8284 13.286 63.9068 13.5228 64.0036 13.6927C64.0797 13.8858 64.1328 14.0582 64.2363 13.9426C64.1048 13.5333 63.9252 13.456 63.8168 13.0674C63.8651 13.1523 63.9366 13.2579 63.9619 13.3222C63.9112 13.1935 64.1366 12.8953 63.6943 12.4163C63.5054 12.1639 63.6045 12.3776 63.4963 12.4057C63.1576 11.811 62.9757 11.6899 62.7153 11.332C62.911 11.2988 62.3075 10.6755 62.7197 11.0027C62.7267 11.1339 62.8719 11.3888 63.0608 11.6411C63.206 11.896 63.3949 12.1484 63.5308 12.2283C63.6019 11.9171 63.7543 12.7199 63.9984 12.7717C63.7517 12.2594 63.9243 12.2056 64.0048 12.0693C63.931 11.92 63.8159 11.817 63.7468 11.7551C63.6156 11.7627 63.7124 11.9326 63.6065 12.0045C63.3345 11.4279 62.959 10.9669 62.662 10.7428C62.5859 10.5497 62.7378 10.519 62.8806 10.7301C62.4106 10.143 61.9384 9.51213 61.4708 8.96871C61.5492 9.2055 61.411 9.08183 61.2704 8.91442C61.1092 8.77018 60.948 8.6259 60.978 8.77773C61.213 9.0713 61.3191 9.41619 61.1165 9.3182C60.976 9.15079 61.1786 9.24881 61.1302 9.16384C60.8378 9.02714 60.909 8.71592 60.5982 8.64611C61.1256 9.07635 60.8789 8.56409 61.0539 8.55402C60.644 8.27052 61.1597 8.48208 60.7912 8.15235C60.3813 7.86885 59.8816 7.54667 59.4049 7.24509C58.9373 6.7017 57.9496 6.27602 57.4085 6.00013C57.1551 5.77342 57.4382 5.73516 57.1205 5.53413C56.7383 5.35872 57.3117 5.8302 56.789 5.48742L56.8534 5.46176C56.7429 5.44619 56.5149 5.28383 56.2686 5.18837C55.9992 5.07227 55.7322 4.99993 55.6057 5.095L55.8403 4.97175C55.7275 4.91244 55.64 4.9175 55.5295 4.90191C55.5479 4.83506 55.4328 4.73201 55.633 4.78627C55.4718 4.642 55.2716 4.58776 55.0943 4.55411C54.894 4.49985 54.6961 4.48931 54.4958 4.43505C54.5649 4.49688 54.634 4.55871 54.7031 4.62054C54.3485 4.55324 54.0815 4.4809 53.7914 4.38794C53.5244 4.31559 53.2343 4.22264 52.8822 4.19908L52.9212 4.10906L52.5046 4.11115C52.6311 4.0161 52.2512 3.88445 52.0142 3.96393C52.3848 3.92062 52.7553 3.87731 53.1052 3.85714C53.3745 3.97323 52.7576 3.92106 52.9189 4.06532C53.0571 4.18898 53.6763 4.28489 53.8028 4.18984C53.5795 4.11497 53.5588 4.13811 53.3402 4.15073C53.2871 3.97828 53.6646 4.06618 53.8579 3.98921C53.7244 3.95304 53.5678 3.89628 53.5264 3.94254C53.7888 3.92741 54.0328 3.97915 54.4541 4.06454C54.1687 4.05906 54.5923 4.18818 54.4611 4.19574C54.5415 4.05948 54.9191 4.14738 55.4118 4.33834C55.573 4.48259 55.7963 4.55749 56.084 4.60669C56.3511 4.67906 56.6619 4.74887 56.9106 4.88809C56.6275 4.92635 56.296 4.87967 55.9415 4.81235C56.2593 5.01341 56.3237 4.98776 56.6415 5.18879C56.8601 5.17619 57.0304 5.0786 57.5 5.24895L57.484 5.3596C57.9099 5.53245 57.9904 5.39618 58.4671 5.69776C59.2869 6.26473 60.086 6.85483 60.6618 7.37007L60.6227 7.46006C61.067 7.56605 61.7005 8.34121 62.115 8.71217C62.6818 9.46925 63.4949 10.3218 63.5873 10.821C64.0643 11.5394 64.4721 12.1959 64.7972 12.945C65.1429 13.6709 65.4036 14.4456 65.6252 15.3104L65.3925 15.0605C65.5607 15.336 65.3604 15.2817 65.4642 15.5829C65.4756 15.3848 65.547 15.4903 65.6208 15.6397C65.6945 15.789 65.773 16.0258 65.8444 16.1314C65.8864 16.9187 66.1356 17.8915 66.2604 18.5863L66.1523 18.6145C66.3876 19.3248 66.1925 20.1916 66.0619 21.0328C66.0229 21.1228 65.8987 21.2616 65.8689 21.5266C65.9613 22.0258 65.9085 22.2701 65.8584 22.975C65.8057 23.2194 65.7138 23.5538 65.599 23.8675C65.4841 24.1813 65.3692 24.495 65.229 24.7444C64.8045 26.6555 63.7539 28.3395 62.7723 30.0853L62.5997 30.1391C62.186 31.0186 61.5306 31.89 60.8937 32.6945C60.2567 33.4991 59.5506 34.2419 59.0585 34.8845L59.0238 34.6452C58.6466 34.974 58.2603 35.5448 58.4582 35.5553C58.0603 35.9073 57.6119 36.5474 57.2667 36.6551C56.8688 37.0071 56.8551 37.1614 56.5423 37.4647C55.6773 38.1069 55.4059 38.3638 54.6284 39.001L54.84 38.8572C54.8998 38.744 54.8744 38.6797 54.6628 38.8235C54.4144 39.1011 53.5193 39.5914 53.9567 39.5662C52.9972 40.0822 51.9069 41.0226 50.8714 41.3456C50.9819 41.3612 50.7472 41.4844 50.6644 41.577C49.7878 42.0004 48.7913 42.2334 48.0619 42.5388C47.887 42.5488 48.2712 42.3512 47.8823 42.4614C47.6453 42.5409 47.887 42.5488 47.6292 42.6514C46.8514 42.8718 45.9998 42.9428 45.2057 42.857C44.3886 42.7506 43.6081 42.5104 42.9128 42.2215L42.4408 42.0074L41.9872 41.7264C41.8283 41.6259 41.7131 41.5229 41.5543 41.4223C41.4161 41.2987 41.2802 41.2188 41.1627 41.072C40.633 40.598 40.2298 40.0289 39.9141 39.4548C39.5753 38.8601 39.3654 38.2141 39.1992 37.5656C39.0768 36.9145 38.998 36.2609 38.9861 35.6254L39.0322 35.6666C38.9444 35.2549 39.0476 34.7224 39.1762 34.2543C39.3047 33.7862 39.4793 33.3593 39.4814 32.9863C39.6033 32.8037 39.8607 32.2843 39.87 32.4592C39.9618 32.1249 40.2469 31.7136 40.5781 31.3435C40.7437 31.1584 40.93 30.9502 41.0956 30.7652C41.1784 30.6727 41.2612 30.5801 41.3647 30.4645C41.4475 30.372 41.5303 30.2794 41.6131 30.1869C41.551 30.2563 41.5095 30.3026 41.4475 30.372C42.2273 29.7785 42.876 29.1927 43.8654 28.8285C43.7803 28.8773 43.6101 28.9749 43.5917 29.0417C43.7873 29.0085 43.9759 28.8441 44.1462 28.7465C44.3371 28.6258 44.4867 28.5513 44.6432 28.6081C44.8365 28.5312 44.7444 28.4488 44.6156 28.5C45.6718 28.154 46.8225 27.934 47.9825 27.889C49.1425 27.844 50.3142 28.0178 51.4284 28.3484C52.1928 28.6992 52.1538 28.7892 52.1354 28.8561C52.094 28.9023 52.0272 28.8843 52.6511 29.0677C52.7432 29.1501 52.78 29.0163 52.7616 29.0832C52.9849 29.158 53.1461 29.3023 53.2636 29.4491C53.3811 29.5959 53.4963 29.699 53.6735 29.7326C53.6412 29.537 53.9175 29.7843 53.9796 29.715C54.1639 29.8798 54.3228 29.9803 54.4609 30.104C54.5761 30.2071 54.6913 30.3101 54.7834 30.3926C54.9907 30.578 55.1519 30.7223 55.5134 30.9208L55.4053 30.949C56.2387 31.3616 56.8976 32.2011 57.5792 32.6444C59.2171 34.5682 60.3442 36.7847 61.1882 39.0395C62.0322 41.2942 62.6161 43.6078 63.0045 45.9547C63.7144 50.6303 63.8328 55.3181 63.0328 60.0589C62.6747 61.1547 62.6562 61.2214 62.5234 62.4355C62.4981 62.3712 62.5166 62.3045 62.4544 62.3737C62.6134 62.4744 62.3033 63.2382 62.4207 63.385C62.0305 65.1183 61.6543 66.6978 61.0893 68.4415C61.1625 68.1738 61.0867 67.981 60.9947 68.3152L60.9926 68.6882L60.9282 68.7139C60.8756 68.9584 60.8895 69.2208 61.009 68.9945C60.3593 71.204 59.4401 73.297 58.385 75.3101C57.3298 77.3238 56.1597 79.234 54.8997 81.1052C54.5709 81.5193 54.1821 82.0462 53.8168 82.594C53.428 83.1209 53.0418 83.6916 52.7152 84.1492C51.556 85.4444 50.4107 86.5853 49.2213 87.729C48.0322 88.8724 46.8178 89.9517 45.5204 91.1234C45.5204 91.1234 45.5343 90.9691 45.6952 90.6963C46.0381 90.545 46.3253 90.1776 46.8247 89.6659Z" fill="#191C36"/>
<path d="M51.7506 3.51505C51.8658 3.61809 52.264 3.68285 51.9395 3.76739C51.8911 3.68244 51.6885 3.58444 51.7506 3.51505Z" fill="#191C36"/>
<path d="M60.7005 8.35425C60.7212 8.33113 60.7949 8.48042 60.7973 8.52419C60.7051 8.44175 60.5716 8.40556 60.5232 8.3206C60.6153 8.40304 60.6337 8.33618 60.7005 8.35425Z" fill="#191C36"/>
<path d="M62.3573 10.2981C62.2698 10.3031 61.899 9.92964 61.6871 9.65667C61.8967 9.88588 62.1477 10.0688 62.3573 10.2981Z" fill="#191C36"/>
<path d="M63.3736 12.4516C63.4059 12.6472 63.3392 12.6291 63.2377 12.3717C63.2584 12.3486 63.3068 12.4335 63.3736 12.4516Z" fill="#191C36"/>
<path d="M63.5917 12.5292C63.6885 12.6991 63.6725 12.8098 63.7002 12.9179C63.7416 12.8716 63.4375 12.5162 63.5917 12.5292Z" fill="#191C36"/>
<path d="M64.8668 17.4606C64.8945 17.5687 64.9753 17.8492 64.9155 17.9623C64.9522 17.8285 64.7747 17.3781 64.8668 17.4606Z" fill="#191C36"/>
<path d="M65.1186 19.8139C65.1002 19.8807 65.1025 19.9245 65.1072 20.012C65.0705 20.1457 65.0197 20.017 65.0127 19.8858L65.1186 19.8139Z" fill="#191C36"/>
<path d="M41.7969 32.2578C41.7348 32.3272 41.7164 32.3941 41.6774 32.4841L41.652 32.4198C41.7141 32.3504 41.7555 32.3041 41.7969 32.2578Z" fill="#191C36"/>
<path d="M57.75 35.0469C57.9366 35.2555 57.7824 35.2425 57.8054 35.2631C57.6649 35.0956 57.9182 35.3224 57.75 35.0469Z" fill="#191C36"/>
<path d="M61.722 44.8444L61.6966 44.78L61.8715 44.7699L61.722 44.8444Z" fill="#191C36"/>
<path d="M45.6761 82.1381C45.6507 82.0734 45.5469 82.1893 45.63 82.0966C45.6735 82.0943 45.7196 82.1353 45.6761 82.1381Z" fill="#191C36"/>
<path d="M52.2273 91.3679C52.0067 91.7538 51.638 91.424 51.4104 91.6784C51.3898 91.7016 51.3986 91.4596 51.3367 91.5292C51.0907 91.8502 50.6671 91.7215 50.3282 91.5434L50.347 91.4764C50.28 91.4584 50.2248 91.659 50.1584 91.641C50.1558 91.5971 50.1765 91.574 50.1304 91.533C50.1378 91.6641 50.0247 91.6045 50.0086 91.7153C49.9625 91.6744 49.958 91.5867 49.9326 91.5226L49.919 91.6766C49.8708 92.0087 49.6567 91.6919 49.5346 91.8745C49.5323 91.8304 49.5533 91.8075 49.5301 91.7869C49.3231 92.0181 49.0605 92.0331 48.8028 92.1361C48.8008 92.0922 48.7957 92.0046 48.7706 91.9402C48.7777 92.0716 48.7154 92.1409 48.651 92.1666C48.6005 92.038 48.5501 92.326 48.4576 92.2438L48.4554 92.1997C48.4418 92.3543 48.3427 92.1403 48.3519 92.3153L48.2805 92.2102C48.292 92.4286 48.1884 92.1277 48.1493 92.2175L48.1519 92.2614C48.1103 92.3074 48.0617 92.2226 48.0204 92.269L47.9976 92.2481C47.8919 92.3202 47.8201 92.2148 47.8731 92.3872C47.8223 92.2583 47.956 92.2948 47.8823 92.1449C47.588 92.3815 47.261 92.4223 46.9571 92.4837C46.9111 92.4427 46.8882 92.4218 46.8628 92.3576C46.8422 92.3808 46.7339 92.4091 46.7387 92.4964L46.6904 92.4113C46.6212 92.3498 46.6558 92.5888 46.5869 92.5269C46.5844 92.4831 46.6028 92.4165 46.5773 92.3523C46.5406 92.4857 46.4739 92.4679 46.4117 92.5372C46.4094 92.4937 46.4094 92.4937 46.4072 92.4495C46.3498 92.6067 46.2757 92.4572 46.2367 92.5471L46.2319 92.4597C46.0963 92.3801 46.2644 92.6553 46.1516 92.596C46.1723 92.5728 46.17 92.5293 46.1472 92.5083C46.1126 92.6859 45.9586 92.6729 45.8964 92.7421L45.8941 92.6986C45.8091 92.7475 45.7192 92.7085 45.636 92.8013C45.5903 92.76 45.581 92.585 45.496 92.634C45.549 92.8064 45.3487 92.7521 45.4684 92.9423C45.3811 92.9477 45.2474 92.9112 45.2062 92.9576C45.2246 92.8909 45.1067 92.7439 45.1712 92.7182L45.1 92.6128C45.0952 92.5255 45.1664 92.6309 45.1181 92.5458C45.0975 92.569 45.0146 92.6614 44.9917 92.6411C44.955 92.7745 44.923 92.9958 44.7941 93.0473C44.8331 92.9574 44.7616 92.8517 44.8029 92.8053C44.7664 92.939 44.6858 93.0756 44.6284 93.2321C44.5849 93.235 44.6423 93.0778 44.5801 93.147C44.5823 93.1912 44.541 93.2375 44.5227 93.3042C44.4995 93.2836 44.3315 93.4249 44.3636 93.2036C44.3819 93.1369 44.4258 93.1344 44.4235 93.0902C44.3591 93.116 44.3407 93.1833 44.2766 93.2087L44.2972 93.1855C44.274 93.1649 44.1293 93.3269 44.1337 93.4145C44.1775 93.412 44.1705 93.2805 44.1956 93.345C44.1153 93.4812 44.0096 93.5533 43.9014 93.5816C43.9426 93.5352 43.9839 93.4889 44.0232 93.3987C43.8372 93.607 43.6668 93.7045 43.4756 93.8253C43.416 93.9383 43.662 93.6172 43.6207 93.6636C43.5953 93.5988 43.4689 93.6941 43.3629 93.7659C43.2572 93.838 43.1512 93.9098 43.1673 93.799C43.2089 93.7529 43.0455 93.9819 43.0638 93.9146C42.9994 93.9403 43.1419 93.7349 43.0591 93.8273C43.1419 93.7349 42.974 93.8762 42.8889 93.9251C42.8061 94.0176 42.9302 93.8788 42.9946 93.853C42.8889 93.9251 42.6775 94.0687 42.5048 94.1227C42.5228 94.0557 42.5622 93.9656 42.6218 93.8525C42.56 93.9221 42.3869 93.9758 42.4285 93.9297L42.5758 93.8116C42.6793 93.6959 42.6126 93.6775 42.7599 93.5594C42.6748 93.6083 42.677 93.6518 42.7231 93.6934C42.746 93.7137 42.7923 93.755 42.7047 93.7601C42.8494 93.5981 42.5113 93.8373 42.6999 93.6728C42.7186 93.6058 42.5688 93.6801 42.7319 93.4514C42.6906 93.4978 42.923 93.3307 42.9205 93.2869C42.916 93.1993 42.856 93.3127 42.8309 93.2482L42.7871 93.2508C42.6398 93.3689 42.8468 93.1377 42.6582 93.3022C42.7849 93.2073 42.6512 93.1708 42.8629 93.0269L43.0334 92.9294C43.0308 92.8855 42.8607 92.9834 42.773 92.9885C42.7937 92.9653 42.8353 92.9186 42.8788 92.9164C42.6029 93.0857 42.9387 92.803 42.7432 92.8367C42.8879 92.6747 42.8371 92.5459 43.0075 92.4483C42.9615 92.4074 42.8922 92.3452 42.9519 92.2321C42.9751 92.2527 42.9545 92.2759 43.0189 92.2502C43.1017 92.1578 43.0373 92.1835 43.0347 92.1397C43.0786 92.1371 43.2027 91.9983 43.3087 91.9266C43.2398 91.8647 43.1315 91.893 43.0442 91.8977C43.1728 91.8466 43.1477 91.7821 43.1451 91.7383C43.1197 91.6742 43.0946 91.6097 43.2025 91.5818C43.2254 91.6021 43.2969 91.7078 43.3594 91.6382C43.5985 91.6023 43.2416 91.4913 43.3682 91.3963C43.3012 91.3782 43.2577 91.3811 43.191 91.3627C43.299 91.3347 43.1173 91.2135 43.3177 91.2677C43.2713 91.2264 43.4002 91.175 43.223 91.1414C43.3932 91.0441 43.2042 90.7918 43.5335 90.7945C43.5103 90.7739 43.5519 90.7279 43.4646 90.7326C43.3769 90.7377 43.5335 90.7945 43.4458 90.7996C43.4458 90.7996 43.4001 90.7584 43.3563 90.7609C43.4207 90.7352 43.4182 90.6914 43.5541 90.7714C43.683 90.7199 43.2826 90.6117 43.3861 90.4961C43.4527 90.5139 43.4962 90.5116 43.4734 90.4907L43.3584 90.3879C43.4203 90.3183 43.533 90.3776 43.6667 90.4141C43.6642 90.3703 43.6622 90.3265 43.5721 90.2878L43.7473 90.2776C43.6159 90.2852 43.6781 90.216 43.6549 90.1953L43.6781 90.216C43.7219 90.2134 43.7194 90.1696 43.6962 90.149C43.6298 90.1309 43.5882 90.177 43.5676 90.2001C43.5215 90.1592 43.5422 90.136 43.4964 90.0947C43.6298 90.1309 43.5812 90.0461 43.6018 90.023C43.6225 89.9998 43.5097 89.9404 43.5097 89.9404C43.5767 89.9585 43.5284 89.8734 43.5974 89.9353C43.6205 89.956 43.5329 89.9611 43.579 90.002C43.6225 89.9998 43.7333 90.0153 43.664 89.9537C43.618 89.9121 43.4202 89.9017 43.5053 89.8528C43.5284 89.8734 43.5948 89.8915 43.618 89.9121L43.7031 89.8632L43.5926 89.848C43.6364 89.8454 43.6364 89.8454 43.6364 89.8454C43.5237 89.7861 43.6087 89.7372 43.496 89.6778C43.4934 89.634 43.5808 89.6292 43.6014 89.6061C43.6658 89.5803 43.6407 89.5159 43.5715 89.4543L43.5947 89.4749C43.6153 89.4517 43.6128 89.4079 43.5438 89.346C43.6292 89.2974 43.9423 89.411 43.8502 89.3285C43.8683 89.2615 43.668 89.2072 43.6016 89.1892C43.6844 89.0967 43.546 88.9729 43.7393 88.8964C43.7164 88.8754 43.6726 88.878 43.6494 88.8573C43.7297 88.7211 43.5871 88.51 43.8239 88.4305C43.8703 88.4718 43.9348 88.4461 44.0011 88.4641C43.9116 88.4254 44.1094 88.4358 43.9322 88.4022C43.822 88.3867 43.7988 88.3661 43.7344 88.3918C43.7067 88.2836 43.7226 88.1731 43.8308 88.1448C43.787 88.1473 43.7641 88.127 43.741 88.1064C43.8975 88.1632 43.9369 88.073 43.8905 88.0317L43.8009 87.993L43.9089 87.965C43.8857 87.9444 43.7085 87.9108 43.8168 87.8825C43.8606 87.88 43.8838 87.9006 43.9276 87.898C43.858 87.8361 43.7431 87.7333 43.8282 87.6844L43.9799 87.6538C43.9571 87.6329 43.8878 87.5713 43.8466 87.6177C43.9523 87.5456 43.9707 87.4789 44.1021 87.4712C43.8487 87.2446 43.8807 87.0233 43.9152 86.8458L43.9816 86.8639C44.067 86.8153 43.8689 86.8045 43.9127 86.802C43.9797 86.82 44.0644 86.7714 44.1337 86.833C44.2191 86.7844 44.0187 86.7302 43.993 86.6657C43.9034 86.627 44.0393 86.707 43.9285 86.6915C43.906 86.6708 44.0117 86.5987 43.878 86.5629C43.9218 86.5603 44.0323 86.5755 44.099 86.5939L44.0301 86.532C44.2047 86.5218 44.3016 86.6917 44.5204 86.6792L44.5178 86.6354C44.6699 86.6046 44.6792 86.7795 44.7388 86.6665C44.6699 86.6046 44.4695 86.5503 44.4051 86.5761C44.3774 86.4678 44.0713 86.4857 44.0872 86.3752C44.1748 86.3701 44.092 86.4625 44.2231 86.4551C44.3314 86.4269 44.1748 86.3701 44.2161 86.3237C44.1516 86.3494 44.0183 86.3133 43.9928 86.2491C44.0779 86.2002 44.1059 86.3082 44.1449 86.2183C44.0779 86.2002 44.0296 86.1151 43.9446 86.1641C43.7442 86.1098 44.0064 86.0945 43.8499 86.0377C43.9813 86.0301 44.1424 86.1745 44.2252 86.0821C44.0941 86.0894 44.0871 85.9586 43.8683 85.971C43.8889 85.9479 43.9997 85.9634 44.0893 86.0021C44.1744 85.9532 43.8844 85.8602 44.1261 85.8681L43.9924 85.8322C44.0362 85.8297 44.0568 85.8065 44.1445 85.8014C44.1422 85.7579 43.9831 85.6573 44.181 85.6677C44.1584 85.6471 44.1974 85.5572 44.0453 85.5881C43.9603 85.6363 44.1375 85.67 43.9396 85.6595C44.0914 85.629 43.9348 85.5722 43.8888 85.5313L43.9555 85.549C43.9326 85.5287 43.9532 85.5055 43.8634 85.4665C43.8866 85.4871 43.9739 85.4824 43.9739 85.4824L43.8634 85.4665C43.8148 85.3817 44.0615 85.4772 44.0567 85.3899L44.126 85.4515C44.1028 85.4309 44.2339 85.4235 44.1879 85.3819C44.098 85.3436 43.9646 85.3074 43.8979 85.289C43.8519 85.2481 44.0291 85.2817 43.9163 85.2223L44.0291 85.2817C44.0522 85.3023 44.204 85.2718 44.2224 85.2044C44.1764 85.1635 44.0404 85.0835 43.9992 85.1299C43.9966 85.0861 44.0611 85.0603 44.1509 85.0994C44.1255 85.0346 44.0404 85.0835 43.9715 85.0216C44.0356 84.9962 44.1645 84.9447 44.2728 84.9164L44.4525 84.9939L44.45 84.95C44.5859 85.03 44.5579 84.9221 44.7145 84.9789C44.7351 84.9557 44.6894 84.9144 44.6662 84.8938C44.4271 84.9297 44.3531 84.7802 44.1321 84.7492C44.0816 84.6206 44.6595 84.7626 44.3438 84.6053C44.2794 84.631 44.1206 84.5307 44.1692 84.6155C44.1873 84.5485 43.9457 84.5406 44.0514 84.4685C44.1206 84.5307 44.2908 84.4329 44.406 84.536C44.339 84.5179 44.3416 84.5618 44.3645 84.5821C44.4521 84.577 44.5855 84.6131 44.6039 84.5464C44.6016 84.5029 44.5994 84.4588 44.4886 84.4433C44.3784 84.4278 44.5143 84.5077 44.3803 84.4716C44.3323 84.3868 44.5302 84.3972 44.3298 84.343C44.3323 84.3868 44.2012 84.3941 44.1342 84.3761L44.1088 84.3119L44.1758 84.33C44.2583 84.2373 44.0192 84.2732 44.0579 84.183L44.2332 84.1728C44.3666 84.209 44.1526 84.3094 44.3942 84.3173C44.4126 84.2506 44.3021 84.2347 44.3643 84.1655C44.3875 84.1861 44.3872 84.1858 44.4104 84.2064C44.431 84.1832 44.7393 84.2095 44.5577 84.0883C44.4885 84.0267 44.4907 84.0702 44.3805 84.0547C44.3757 83.9674 44.2858 83.9283 44.2811 83.841C44.4586 83.8749 44.2975 83.7305 44.4766 83.8079C44.3687 83.8359 44.3757 83.9674 44.5323 84.0241C44.7507 84.0114 44.4932 84.114 44.6911 84.1244C44.7095 84.0577 44.9073 84.0682 45.0181 84.0837C45.0387 84.0605 44.972 84.0427 44.9489 84.0221C44.8384 84.0063 44.8177 84.0295 44.7072 84.0142C44.7462 83.9237 44.6976 83.839 44.5849 83.7796C44.6494 83.7539 44.7599 83.7697 44.7621 83.8132C44.7348 83.7053 44.7506 83.5948 44.8334 83.5024C44.6379 83.5355 44.8058 83.3941 44.6308 83.404C44.5896 83.4504 44.4375 83.4812 44.3476 83.4422C44.3686 83.4193 44.4349 83.4374 44.4788 83.4348C44.366 83.3755 44.6515 83.3808 44.4949 83.324C44.5432 83.4091 44.7388 83.376 44.8725 83.4119C44.7804 83.33 44.983 83.4277 45.0014 83.361C44.9093 83.2785 44.861 83.1934 44.8562 83.1061C45.0057 83.0314 44.865 82.8642 44.9043 82.774C44.9891 82.7254 45.1457 82.7822 45.1872 82.7361C45.185 82.692 44.9917 82.7692 45.0745 82.6768L45.0974 82.6971C45.0513 82.6561 45.2215 82.5583 44.9779 82.5066L45.1551 82.5402C45.1757 82.517 45.1319 82.5196 45.1087 82.4989C45.1757 82.517 45.2399 82.4916 45.2631 82.5122C45.392 82.4607 45.2354 82.404 45.2538 82.3373L45.1455 82.3656C45.0741 82.2599 45.1801 82.1881 45.1547 82.1233L45.2652 82.1391L45.1963 82.0772C45.3064 82.0928 45.3709 82.067 45.2813 82.0283L45.5319 82.2115C45.4678 82.2369 45.4192 82.1521 45.288 82.1595C45.2007 82.1649 45.2055 82.2522 45.3157 82.2677C45.3363 82.2445 45.3135 82.2242 45.2674 82.1826C45.4217 82.1959 45.424 82.2394 45.5138 82.2785C45.4906 82.2578 45.5551 82.2321 45.5113 82.2346C45.6015 82.2734 45.6037 82.3169 45.585 82.3839C45.5392 82.3426 45.498 82.389 45.4542 82.3915C45.5875 82.4277 45.6336 82.4686 45.5717 82.5382C45.4196 82.569 45.6454 82.6874 45.6061 82.7776C45.4727 82.7414 45.36 82.6821 45.3345 82.6179C45.2495 82.6662 45.3368 82.6614 45.2517 82.7104C45.3416 82.7488 45.5187 82.7824 45.5442 82.8471L45.4337 82.8313C45.4819 82.9164 45.6134 82.9087 45.5947 82.9757C45.535 83.0888 45.5211 83.2431 45.4824 83.3333L45.3719 83.3174C45.5951 83.3926 45.4272 83.5339 45.5196 83.6162C45.4158 83.7321 45.5794 83.9197 45.4067 83.9737C45.4414 84.2128 45.497 84.429 45.4212 84.6529L45.2646 84.5961C45.3774 84.6554 45.177 84.6012 45.2024 84.6653C45.3104 84.6374 45.3383 84.7453 45.4279 84.784C45.3016 84.8793 45.4191 85.026 45.4905 85.1317L45.38 85.1158C45.5617 85.2371 45.3687 85.314 45.3319 85.448C45.2884 85.4502 45.2008 85.4553 45.203 85.4988C45.3618 85.5997 45.3411 85.6229 45.4129 85.7283C45.3942 85.7953 45.3346 85.9084 45.2724 85.9776C45.4639 86.2738 45.2566 86.5053 45.3602 86.8063L45.2294 86.814C45.4207 87.1098 45.1515 87.4109 45.23 87.6474L45.0296 87.5932C44.9445 87.6421 45.0389 87.7682 45.1929 87.7811C45.1081 87.8297 45.2691 87.9741 45.0945 87.9844C45.0323 88.0536 45.1657 88.0898 45.1914 88.1542C45.0876 88.2701 45.113 88.3343 45.0991 88.4886L45.1197 88.4654C45.0972 88.4448 44.9864 88.4292 44.9657 88.4524C45.0118 88.4934 44.8877 88.6322 45.1064 88.6197C44.936 88.7172 45.1481 88.9902 44.9339 89.0903C45.0009 89.1084 45.0237 89.1294 45.0466 89.1497C45.0101 89.2834 44.8606 89.358 44.9343 89.5072C44.8905 89.5098 44.8216 89.4479 44.8238 89.4914C44.8467 89.5123 44.8905 89.5098 44.9368 89.551C45.015 89.7879 44.716 89.9366 44.7046 90.1347C44.7463 90.5052 44.6083 90.7983 44.5604 91.1302L44.5166 91.1327C44.6776 91.2771 44.2636 91.323 44.5351 91.4826C44.4913 91.4852 44.4961 91.5725 44.4062 91.5341C44.4294 91.5547 44.4317 91.5982 44.411 91.6214C44.3904 91.6446 44.3904 91.6446 44.3904 91.6446C44.3698 91.6678 44.3259 91.6703 44.4155 91.709C44.4155 91.709 44.4155 91.709 44.3926 91.6881C44.2637 91.7396 44.418 91.7529 44.2888 91.804C44.2682 91.8272 44.2457 91.8066 44.2018 91.8091C44.0726 91.8603 44.4203 91.7964 44.1396 91.8784L44.2682 91.8272C44.2063 91.8968 44.2085 91.9403 44.2317 91.9609C44.2549 91.9815 44.2987 91.979 44.3419 91.9764C44.1353 92.2079 43.7991 92.4903 44.0086 92.3029C43.9464 92.3722 44.1353 92.2079 44.0499 92.2565C44.1559 92.1848 43.6776 92.6729 43.8223 92.511C43.8845 92.4417 43.9051 92.4185 43.9258 92.3953C43.9673 92.3493 43.9674 92.3493 44.0499 92.2565C43.9696 92.3928 43.8248 92.5548 44.0134 92.3902L43.9099 92.5058C44.0547 92.3439 44.1191 92.3181 44.1813 92.2489C44.2226 92.2025 44.308 92.1539 44.4089 91.9945C44.6873 91.869 44.4203 91.7964 45.2832 91.5275C45.9344 91.4019 46.5351 91.1477 47.1936 91.1538C47.3775 91.3186 47.3984 91.2957 47.5454 91.1772C47.548 91.221 47.548 91.221 47.5502 91.2652C47.52 91.1131 47.6585 91.2369 47.6489 91.0616C47.9115 91.0466 48.1045 90.9697 48.3648 90.9106C48.3439 90.9341 48.3303 91.0881 48.3719 91.042L48.3877 90.9315L48.39 90.975C48.4109 90.9522 48.4496 90.862 48.4039 90.8207C49.0042 90.5668 49.6743 90.7914 50.2819 90.6687C50.4385 90.7255 50.6525 90.6251 50.781 90.5739C51.2717 90.7214 51.7185 90.8708 52.1899 90.6684C52.4179 90.8303 52.3977 91.2704 52.2273 91.3679Z" fill="#191C36"/>
<path d="M45.6798 82.2266C45.5922 82.2317 45.5509 82.2781 45.4379 82.2184C45.5277 82.2575 45.5922 82.2317 45.6798 82.2266Z" fill="#191C36"/>
<path d="M44.7009 83.5994C44.7241 83.62 44.6802 83.6226 44.6364 83.6251C44.6364 83.6251 44.5466 83.5861 44.611 83.5603C44.6342 83.581 44.6777 83.5787 44.7009 83.5994Z" fill="#191C36"/>
<path d="M44.6332 83.9592C44.5665 83.9414 44.5182 83.8563 44.5156 83.8125L44.6332 83.9592Z" fill="#191C36"/>
<path d="M44.2829 84.2594C44.2185 84.2852 44.1953 84.2645 44.1934 84.2207C44.2369 84.2185 44.2597 84.2388 44.2829 84.2594Z" fill="#191C36"/>
<path d="M44.4597 84.2956C44.4622 84.3394 44.4184 84.342 44.3746 84.3445C44.4184 84.342 44.3263 84.2594 44.4597 84.2956Z" fill="#191C36"/>
<path d="M44.1198 84.9949C44.1198 84.9949 44.1887 85.0568 44.1014 85.0616C44.1887 85.0568 44.0299 84.9559 44.1198 84.9949Z" fill="#191C36"/>
<path d="M44.2054 85.3616C44.1638 85.4076 44.1177 85.3667 44.1177 85.3667L44.2054 85.3616Z" fill="#191C36"/>
<path d="M43.2429 91.5342L43.2177 91.4698L43.2844 91.4875L43.2429 91.5342Z" fill="#191C36"/>
<path d="M43.7592 93.8356C43.8421 93.7431 43.7412 93.9026 43.7637 93.9232C43.6996 93.9486 43.8237 93.8098 43.7592 93.8356Z" fill="#191C36"/>
</g>
<defs>
<clipPath id="clip0_6097_2095">
<rect width="63.7632" height="74.5401" fill="white" transform="translate(53.6875) rotate(44.9829)"/>
</clipPath>
</defs>
</svg>
