<svg width="29" height="18" viewBox="0 0 29 18" fill="none" xmlns="http://www.w3.org/2000/svg">
<path d="M21.2024 17.6079C22.6258 17.6079 23.7797 16.4539 23.7797 15.0305C23.7797 13.6071 22.6258 12.4531 21.2024 12.4531C19.7789 12.4531 18.625 13.6071 18.625 15.0305C18.625 16.4539 19.7789 17.6079 21.2024 17.6079Z" fill="black"/>
<path d="M24.8054 7.29825H22.0562C21.0252 2.65899 16.5578 -0.433852 11.9185 0.597094C8.48205 1.28439 5.73286 3.86176 5.04556 7.29825H3.84279C2.12454 7.29825 0.578125 8.84466 0.578125 10.5629V12.7966C0.578125 13.9994 1.60907 15.0303 2.81184 15.0303H3.32732C3.32732 12.7966 5.21738 10.9066 7.4511 10.9066C9.68482 10.9066 11.5749 12.7966 11.5749 15.0303H17.0733C17.0733 12.7966 18.9633 10.9066 21.1971 10.9066C23.4308 10.9066 25.3208 12.7966 25.3208 15.0303H25.8363C27.0391 15.0303 28.07 13.9994 28.07 12.7966V10.7347C28.07 8.84467 26.5236 7.29825 24.8054 7.29825ZM7.79475 7.29825C8.65387 4.03358 12.0904 2.31534 15.1832 3.17446C17.0733 3.68993 18.6197 5.23635 19.307 7.29825H7.79475ZM7.4511 12.453C6.07651 12.453 4.87374 13.6557 4.87374 15.0303C4.87374 16.4049 6.07651 17.6077 7.4511 17.6077C8.8257 17.6077 10.0285 16.4049 10.0285 15.0303C10.0285 13.6557 8.8257 12.453 7.4511 12.453Z" fill="black"/>
</svg>
