<svg xmlns="http://www.w3.org/2000/svg" width="49" height="31" viewBox="0 0 49 31" fill="none">
  <path d="M36.6062 30.5484C39.133 30.5484 41.1812 28.5001 41.1812 25.9734C41.1812 23.4467 39.133 21.3984 36.6062 21.3984C34.0795 21.3984 32.0312 23.4467 32.0312 25.9734C32.0312 28.5001 34.0795 30.5484 36.6062 30.5484Z" fill="#08181B"/>
  <path d="M43.005 12.2476H38.125C36.295 4.01263 28.365 -1.47737 20.13 0.352629C14.03 1.57263 9.15 6.14763 7.93 12.2476H5.795C2.745 12.2476 0 14.9926 0 18.0426V22.0076C0 24.1426 1.83 25.9726 3.965 25.9726H4.88C4.88 22.0076 8.235 18.6526 12.2 18.6526C16.165 18.6526 19.52 22.0076 19.52 25.9726H29.28C29.28 22.0076 32.635 18.6526 36.6 18.6526C40.565 18.6526 43.92 22.0076 43.92 25.9726H44.835C46.97 25.9726 48.8 24.1426 48.8 22.0076V18.3476C48.8 14.9926 46.055 12.2476 43.005 12.2476ZM12.81 12.2476C14.335 6.45263 20.435 3.40263 25.925 4.92763C29.28 5.84263 32.025 8.58763 33.245 12.2476H12.81ZM12.2 21.3976C9.76 21.3976 7.625 23.5326 7.625 25.9726C7.625 28.4126 9.76 30.5476 12.2 30.5476C14.64 30.5476 16.775 28.4126 16.775 25.9726C16.775 23.5326 14.64 21.3976 12.2 21.3976Z" fill="#08181B"/>
</svg>
