<svg width="106" height="106" viewBox="0 0 106 106" fill="none" xmlns="http://www.w3.org/2000/svg">
<circle cx="53" cy="53" r="53" fill="url(#paint0_linear_44_244)"/>
<path d="M84.4278 51.5308L73.6617 51.2031L65.011 58.7399L58.7196 61.3614L58.1953 73.8135L61.8653 75.1242" stroke="white" stroke-width="3.5" stroke-miterlimit="10" stroke-linejoin="bevel"/>
<path d="M78.9277 74.7969H84.2476" stroke="white" stroke-width="3.5" stroke-miterlimit="10" stroke-linejoin="bevel"/>
<path d="M70.5358 82.002C73.4313 82.002 75.7786 79.0678 75.7786 75.4483C75.7786 71.8287 73.4313 68.8945 70.5358 68.8945C67.6403 68.8945 65.293 71.8287 65.293 75.4483C65.293 79.0678 67.6403 82.002 70.5358 82.002Z" stroke="white" stroke-width="3.5" stroke-miterlimit="10" stroke-linejoin="bevel"/>
<path d="M84.4403 63.98L75.247 63.6523L71.0527 57.7539" stroke="white" stroke-width="3.5" stroke-miterlimit="10" stroke-linejoin="bevel"/>
<path d="M47.3774 74.7358L53.6688 74.0805L51.5716 64.2499L41.086 59.6623L29.5517 50.487L21.0547 50.1836" stroke="white" stroke-width="3.5" stroke-miterlimit="10" stroke-linejoin="bevel"/>
<path d="M21 73.8105L31.6409 73.4219" stroke="white" stroke-width="3.5" stroke-miterlimit="10" stroke-linejoin="bevel"/>
<path d="M40.0436 80.6231C42.9392 80.6231 45.2864 77.6889 45.2864 74.0694C45.2864 70.4498 42.9392 67.5156 40.0436 67.5156C37.1481 67.5156 34.8008 70.4498 34.8008 74.0694C34.8008 77.6889 37.1481 80.6231 40.0436 80.6231Z" stroke="white" stroke-width="3.5" stroke-miterlimit="10" stroke-linejoin="bevel"/>
<path d="M34.2518 59.6523L31.6304 62.2738H21" stroke="white" stroke-width="3.5" stroke-miterlimit="10" stroke-linejoin="bevel"/>
<path d="M61.7415 52.836L68.7223 41.4542L58.4023 45.6269L54.1525 32.7266L50.2072 45.6269L39.8867 41.4542L46.8681 52.836" stroke="white" stroke-width="3.5" stroke-miterlimit="10" stroke-linejoin="bevel"/>
<path d="M44.7324 33.4844L47.4645 38.7968" stroke="white" stroke-width="3.5" stroke-miterlimit="10" stroke-linejoin="bevel"/>
<path d="M63.8453 33.4844L61.1133 38.7968" stroke="white" stroke-width="3.5" stroke-miterlimit="10" stroke-linejoin="bevel"/>
<path d="M54.1484 24V29.3118" stroke="white" stroke-width="3.5" stroke-miterlimit="10" stroke-linejoin="bevel"/>
<path d="M84.4278 51.5308L73.6617 51.2031L65.011 58.7399L58.7196 61.3614L58.1953 73.8135L61.8653 75.1242" stroke="white" stroke-width="3.5" stroke-miterlimit="10" stroke-linejoin="bevel"/>
<path d="M78.9277 74.7969H84.2476" stroke="white" stroke-width="3.5" stroke-miterlimit="10" stroke-linejoin="bevel"/>
<path d="M70.5358 82.002C73.4313 82.002 75.7786 79.0678 75.7786 75.4483C75.7786 71.8287 73.4313 68.8945 70.5358 68.8945C67.6403 68.8945 65.293 71.8287 65.293 75.4483C65.293 79.0678 67.6403 82.002 70.5358 82.002Z" stroke="white" stroke-width="3.5" stroke-miterlimit="10" stroke-linejoin="bevel"/>
<path d="M84.4403 63.98L75.247 63.6523L71.0527 57.7539" stroke="white" stroke-width="3.5" stroke-miterlimit="10" stroke-linejoin="bevel"/>
<path d="M47.3774 74.7358L53.6688 74.0805L51.5716 64.2499L41.086 59.6623L29.5517 50.487L21.0547 50.1836" stroke="white" stroke-width="3.5" stroke-miterlimit="10" stroke-linejoin="bevel"/>
<path d="M21 73.8105L31.6409 73.4219" stroke="white" stroke-width="3.5" stroke-miterlimit="10" stroke-linejoin="bevel"/>
<path d="M40.0436 80.6231C42.9392 80.6231 45.2864 77.6889 45.2864 74.0694C45.2864 70.4498 42.9392 67.5156 40.0436 67.5156C37.1481 67.5156 34.8008 70.4498 34.8008 74.0694C34.8008 77.6889 37.1481 80.6231 40.0436 80.6231Z" stroke="white" stroke-width="3.5" stroke-miterlimit="10" stroke-linejoin="bevel"/>
<path d="M34.2518 59.6523L31.6304 62.2738H21" stroke="white" stroke-width="3.5" stroke-miterlimit="10" stroke-linejoin="bevel"/>
<path d="M61.7415 52.836L68.7223 41.4542L58.4023 45.6269L54.1525 32.7266L50.2072 45.6269L39.8867 41.4542L46.8681 52.836" stroke="white" stroke-width="3.5" stroke-miterlimit="10" stroke-linejoin="bevel"/>
<path d="M44.7324 33.4844L47.4645 38.7968" stroke="white" stroke-width="3.5" stroke-miterlimit="10" stroke-linejoin="bevel"/>
<path d="M63.8453 33.4844L61.1133 38.7968" stroke="white" stroke-width="3.5" stroke-miterlimit="10" stroke-linejoin="bevel"/>
<path d="M54.1484 24V29.3118" stroke="white" stroke-width="3.5" stroke-miterlimit="10" stroke-linejoin="bevel"/>
<defs>
<linearGradient id="paint0_linear_44_244" x1="10.5" y1="-16.7266" x2="106" y2="126.273" gradientUnits="userSpaceOnUse">
<stop stop-color="#1C57BC"/>
<stop offset="1" stop-color="#EF4E80"/>
</linearGradient>
</defs>
</svg>
