<svg width="106" height="106" viewBox="0 0 106 106" fill="none" xmlns="http://www.w3.org/2000/svg">
<circle cx="53" cy="53" r="53" fill="#F8F8FA"/>
<path d="M84.4284 51.532L73.6623 51.2043L65.0116 58.7411L58.7202 61.3626L58.1959 73.8147L61.8659 75.1255" stroke="#9E9C9A" stroke-width="3.5" stroke-miterlimit="10" stroke-linejoin="bevel"/>
<path d="M78.9286 74.7961H84.2485" stroke="#9E9C9A" stroke-width="3.5" stroke-miterlimit="10" stroke-linejoin="bevel"/>
<path d="M70.5357 82.0004C73.4312 82.0004 75.7785 79.0662 75.7785 75.4467C75.7785 71.8271 73.4312 68.8929 70.5357 68.8929C67.6401 68.8929 65.2928 71.8271 65.2928 75.4467C65.2928 79.0662 67.6401 82.0004 70.5357 82.0004Z" stroke="#9E9C9A" stroke-width="3.5" stroke-miterlimit="10" stroke-linejoin="bevel"/>
<path d="M84.4409 63.9797L75.2476 63.652L71.0533 57.7537" stroke="#181B34" stroke-width="3.5" stroke-miterlimit="10" stroke-linejoin="bevel"/>
<path d="M47.377 74.7371L53.6684 74.0817L51.5713 64.2511L41.0856 59.6635L29.5514 50.4883L21.0543 50.1848" stroke="#9E9C9A" stroke-width="3.5" stroke-miterlimit="10" stroke-linejoin="bevel"/>
<path d="M20.9999 73.8087L31.6407 73.42" stroke="#9E9C9A" stroke-width="3.5" stroke-miterlimit="10" stroke-linejoin="bevel"/>
<path d="M40.0441 80.6243C42.9396 80.6243 45.2869 77.6901 45.2869 74.0706C45.2869 70.4511 42.9396 67.5168 40.0441 67.5168C37.1486 67.5168 34.8013 70.4511 34.8013 74.0706C34.8013 77.6901 37.1486 80.6243 40.0441 80.6243Z" stroke="#9E9C9A" stroke-width="3.5" stroke-miterlimit="10" stroke-linejoin="bevel"/>
<path d="M34.2517 59.6543L31.6302 62.2758H20.9999" stroke="#181B34" stroke-width="3.5" stroke-miterlimit="10" stroke-linejoin="bevel"/>
<path d="M61.7411 52.8363L68.7219 41.4544L58.4019 45.6272L54.1521 32.7268L50.2069 45.6272L39.8864 41.4544L46.8677 52.8363" stroke="#181B34" stroke-width="3.5" stroke-miterlimit="10" stroke-linejoin="bevel"/>
<path d="M44.7323 33.4862L47.4643 38.7987" stroke="#181B34" stroke-width="3.5" stroke-miterlimit="10" stroke-linejoin="bevel"/>
<path d="M63.8461 33.4862L61.114 38.7987" stroke="#181B34" stroke-width="3.5" stroke-miterlimit="10" stroke-linejoin="bevel"/>
<path d="M54.1493 24V29.3118" stroke="#181B34" stroke-width="3.5" stroke-miterlimit="10" stroke-linejoin="bevel"/>
</svg>
