<svg width="171" height="171" viewBox="0 0 171 171" fill="none" xmlns="http://www.w3.org/2000/svg">
<circle cx="85.5" cy="85.5" r="85.1712" stroke="url(#paint0_linear_1347_347)" stroke-width="0.657692"/>
<path d="M71.0792 46.7068C81.1729 42.8975 92.548 48.0392 96.3573 58.1328C99.9935 67.7676 96.2458 87.003 91.6842 101.304C78.6382 93.124 63.2894 81.6197 59.6532 71.9849C55.8439 61.8912 60.9856 50.5161 71.0792 46.7068ZM67.6162 37.5308C52.4758 43.2447 44.7632 60.3074 50.4772 75.4479C58.269 96.0939 97.0518 115.527 97.0518 115.527C97.0518 115.527 113.152 74.857 105.533 54.6698C99.8194 39.5293 82.7567 31.8168 67.6162 37.5308ZM74.5422 55.8828C69.4954 57.7875 66.9246 63.475 68.8292 68.5218C70.7339 73.5687 76.4215 76.1395 81.4683 74.2349C86.5151 72.3302 89.0859 66.6426 87.1813 61.5958C85.2766 56.549 79.5891 53.9781 74.5422 55.8828ZM133.756 101.675C137.565 111.769 124.165 126.26 103.978 133.879C83.7906 141.498 64.1571 139.473 60.3477 129.379C58.0968 123.415 61.6977 116.29 69.0297 109.33L73.3409 112.42C69.6187 116.446 67.446 120.41 68.658 123.622C71.0821 130.045 85.3744 130.417 100.515 124.703C115.655 118.989 126.138 109.267 123.714 102.844C122.502 99.6323 118.252 98.0916 112.339 97.7022L113.533 92.5341C124.095 92.7415 131.505 95.7105 133.756 101.675Z" fill="url(#paint1_linear_1347_347)"/>
<defs>
<linearGradient id="paint0_linear_1347_347" x1="134.169" y1="17.7577" x2="34.5289" y2="147.981" gradientUnits="userSpaceOnUse">
<stop stop-color="#CF528C"/>
<stop offset="1" stop-color="#2757BA"/>
</linearGradient>
<linearGradient id="paint1_linear_1347_347" x1="17.0601" y1="14.6787" x2="103.978" y2="133.879" gradientUnits="userSpaceOnUse">
<stop stop-color="white"/>
<stop offset="1" stop-color="white" stop-opacity="0"/>
</linearGradient>
</defs>
</svg>
