<svg width="307" height="284" viewBox="0 0 307 284" fill="none" xmlns="http://www.w3.org/2000/svg">
<g clip-path="url(#clip0_1347_342)">
<path fill-rule="evenodd" clip-rule="evenodd" d="M85.714 112.046L110.713 89.6741C121.883 79.6774 130.731 71.7592 138.488 66.4933C146.472 61.0739 154.047 57.9307 162.666 58.4087C171.286 58.8866 178.466 62.848 185.802 69.1169C192.93 75.2082 200.848 84.056 210.845 95.2265L211.458 95.9122C221.455 107.083 229.373 115.93 234.639 123.688C240.058 131.672 243.202 139.246 242.724 147.866C242.246 156.485 238.284 163.666 232.016 171.001C225.924 178.129 217.076 186.047 205.906 196.044L180.907 218.416C169.737 228.413 160.889 236.331 153.131 241.597C145.148 247.016 137.573 250.159 128.954 249.681C120.334 249.204 113.154 245.242 105.818 238.973C98.69 232.882 90.7721 224.034 80.7755 212.864L80.1617 212.178C70.1649 201.008 62.2468 192.16 56.9809 184.402C51.5615 176.419 48.4183 168.844 48.8962 160.224C49.3742 151.605 53.3356 144.424 59.6044 137.089C65.6957 129.961 74.5435 122.043 85.714 112.046ZM68.906 145.038C63.5265 151.332 61.3831 156.027 61.1128 160.902C60.8425 165.776 62.4537 170.679 67.1042 177.531C71.8545 184.529 79.2137 192.771 89.586 204.361C99.9583 215.952 107.337 224.177 113.767 229.672C120.062 235.051 124.757 237.195 129.631 237.465C134.506 237.735 139.409 236.124 146.26 231.474C153.258 226.723 161.5 219.364 173.091 208.992L197.404 187.233C208.994 176.861 217.219 169.482 222.714 163.053C228.094 156.758 230.237 152.063 230.507 147.188C230.777 142.314 229.166 137.411 224.516 130.56C219.765 123.562 212.406 115.319 202.034 103.729C191.662 92.1386 184.283 83.9132 177.853 78.4184C171.558 73.0389 166.863 70.8955 161.989 70.6252C157.114 70.3549 152.211 71.9661 145.36 76.6166C138.362 81.3669 130.12 88.7261 118.529 99.0984L94.2163 120.857C82.6262 131.229 74.4008 138.608 68.906 145.038ZM81.4681 162.585C81.349 159.209 83.9897 156.375 87.3663 156.256L110.275 155.448C120.175 155.098 127.039 154.845 132.276 154.008C137.345 153.198 140.149 151.94 142.246 150.063C144.344 148.186 145.904 145.539 147.27 140.59C148.681 135.477 149.691 128.683 151.133 118.883L154.469 96.2041C154.96 92.8613 158.069 90.5502 161.412 91.0419C164.754 91.5336 167.065 94.642 166.574 97.9847L163.18 121.058C161.81 130.37 160.7 137.916 159.064 143.844C157.36 150.019 154.91 155.149 150.406 159.18C145.901 163.212 140.532 165.08 134.206 166.09C128.134 167.061 120.511 167.329 111.105 167.661L87.7977 168.483C84.4211 168.603 81.5872 165.962 81.4681 162.585Z" fill="url(#paint0_linear_1347_342)"/>
</g>
<circle cx="153.751" cy="153.733" r="152.636" stroke="url(#paint1_linear_1347_342)" stroke-width="1.17865"/>
<defs>
<linearGradient id="paint0_linear_1347_342" x1="280.564" y1="186.535" x2="-9.83357" y2="197.535" gradientUnits="userSpaceOnUse">
<stop stop-color="white" stop-opacity="0.78"/>
<stop offset="0.682292" stop-color="white" stop-opacity="0.0833333"/>
<stop offset="1" stop-color="white" stop-opacity="0"/>
</linearGradient>
<linearGradient id="paint1_linear_1347_342" x1="240.972" y1="32.3315" x2="62.4057" y2="265.705" gradientUnits="userSpaceOnUse">
<stop stop-color="#CF528C"/>
<stop offset="1" stop-color="#2757BA"/>
</linearGradient>
<clipPath id="clip0_1347_342">
<rect width="195.765" height="195.765" fill="white" transform="translate(7.59668 146.375) rotate(-41.8262)"/>
</clipPath>
</defs>
</svg>
