<svg width="171" height="171" viewBox="0 0 171 171" fill="none" xmlns="http://www.w3.org/2000/svg">
<circle cx="85.5" cy="85.5" r="85.1712" stroke="url(#paint0_linear_1797_2192)" stroke-width="0.657692"/>
<path d="M71.0812 46.7068C81.1748 42.8975 92.5499 48.0392 96.3593 58.1328C99.9954 67.7676 96.2477 87.003 91.6861 101.304C78.6401 93.124 63.2913 81.6197 59.6552 71.9849C55.8458 61.8912 60.9876 50.5161 71.0812 46.7068ZM67.6182 37.5308C52.4777 43.2447 44.7652 60.3074 50.4791 75.4479C58.2709 96.0939 97.0538 115.527 97.0538 115.527C97.0538 115.527 113.154 74.857 105.535 54.6698C99.8213 39.5293 82.7586 31.8168 67.6182 37.5308ZM74.5442 55.8828C69.4974 57.7875 66.9265 63.475 68.8312 68.5218C70.7358 73.5687 76.4234 76.1395 81.4702 74.2349C86.517 72.3302 89.0879 66.6426 87.1832 61.5958C85.2786 56.549 79.591 53.9781 74.5442 55.8828ZM133.758 101.675C137.567 111.769 124.167 126.26 103.98 133.879C83.7926 141.498 64.159 139.473 60.3497 129.379C58.0987 123.415 61.6997 116.29 69.0317 109.33L73.3429 112.42C69.6206 116.446 67.4479 120.41 68.66 123.622C71.0841 130.045 85.3764 130.417 100.517 124.703C115.657 118.989 126.14 109.267 123.716 102.844C122.504 99.6323 118.254 98.0916 112.341 97.7022L113.535 92.5341C124.097 92.7415 131.507 95.7105 133.758 101.675Z" fill="url(#paint1_linear_1797_2192)"/>
<defs>
<linearGradient id="paint0_linear_1797_2192" x1="134.169" y1="17.7577" x2="34.5289" y2="147.981" gradientUnits="userSpaceOnUse">
<stop stop-color="#FCB932"/>
<stop offset="1" stop-color="#009EAB"/>
</linearGradient>
<linearGradient id="paint1_linear_1797_2192" x1="17.062" y1="14.6787" x2="103.98" y2="133.879" gradientUnits="userSpaceOnUse">
<stop stop-color="#FCB932"/>
<stop offset="1" stop-color="#FCB932" stop-opacity="0"/>
</linearGradient>
</defs>
</svg>
