<svg width="307" height="284" viewBox="0 0 307 284" fill="none" xmlns="http://www.w3.org/2000/svg">
<g clip-path="url(#clip0_1797_2187)">
<path fill-rule="evenodd" clip-rule="evenodd" d="M85.713 112.046L110.712 89.6741C121.882 79.6774 130.73 71.7592 138.488 66.4933C146.471 61.0739 154.046 57.9307 162.665 58.4087C171.285 58.8866 178.466 62.848 185.801 69.1169C192.929 75.2082 200.847 84.056 210.844 95.2265L211.457 95.9122C221.454 107.083 229.372 115.93 234.638 123.688C240.058 131.672 243.201 139.246 242.723 147.866C242.245 156.485 238.283 163.666 232.015 171.001C225.923 178.129 217.075 186.047 205.905 196.044L180.906 218.416C169.736 228.413 160.888 236.331 153.131 241.597C145.147 247.016 137.572 250.159 128.953 249.681C120.333 249.204 113.153 245.242 105.817 238.973C98.6891 232.882 90.7711 224.034 80.7745 212.864L80.1607 212.178C70.164 201.008 62.2458 192.16 56.9799 184.402C51.5605 176.419 48.4173 168.844 48.8953 160.224C49.3732 151.605 53.3346 144.424 59.6035 137.089C65.6948 129.961 74.5426 122.043 85.713 112.046ZM68.905 145.038C63.5255 151.332 61.3821 156.027 61.1118 160.902C60.8415 165.776 62.4527 170.679 67.1032 177.531C71.8535 184.529 79.2127 192.771 89.585 204.361C99.9574 215.952 107.336 224.177 113.766 229.672C120.061 235.051 124.756 237.195 129.63 237.465C134.505 237.735 139.408 236.124 146.259 231.474C153.257 226.723 161.499 219.364 173.09 208.992L197.403 187.233C208.993 176.861 217.218 169.482 222.713 163.053C228.093 156.758 230.236 152.063 230.506 147.188C230.777 142.314 229.165 137.411 224.515 130.56C219.765 123.562 212.405 115.319 202.033 103.729C191.661 92.1386 184.282 83.9132 177.852 78.4184C171.557 73.0389 166.862 70.8955 161.988 70.6252C157.113 70.3549 152.21 71.9661 145.359 76.6166C138.361 81.3669 130.119 88.7261 118.528 99.0984L94.2154 120.857C82.6252 131.229 74.3998 138.608 68.905 145.038ZM81.4671 162.585C81.348 159.209 83.9887 156.375 87.3653 156.256L110.274 155.448C120.174 155.098 127.038 154.845 132.275 154.008C137.344 153.198 140.148 151.94 142.245 150.063C144.343 148.186 145.903 145.539 147.269 140.59C148.68 135.477 149.69 128.683 151.132 118.883L154.468 96.2041C154.959 92.8613 158.068 90.5502 161.411 91.0419C164.753 91.5336 167.064 94.642 166.573 97.9847L163.179 121.058C161.809 130.37 160.699 137.916 159.063 143.844C157.359 150.019 154.909 155.149 150.405 159.18C145.9 163.212 140.531 165.08 134.205 166.09C128.133 167.061 120.51 167.329 111.104 167.661L87.7967 168.483C84.4201 168.603 81.5863 165.962 81.4671 162.585Z" fill="url(#paint0_linear_1797_2187)"/>
</g>
<circle cx="153.748" cy="153.733" r="152.636" stroke="url(#paint1_linear_1797_2187)" stroke-width="1.17865"/>
<defs>
<linearGradient id="paint0_linear_1797_2187" x1="280.563" y1="186.535" x2="-9.83454" y2="197.535" gradientUnits="userSpaceOnUse">
<stop stop-color="#FCB932" stop-opacity="0.78"/>
<stop offset="0.682292" stop-color="#FCB932" stop-opacity="0.0833333"/>
<stop offset="1" stop-color="#FCB932" stop-opacity="0"/>
</linearGradient>
<linearGradient id="paint1_linear_1797_2187" x1="240.969" y1="32.3315" x2="62.4028" y2="265.705" gradientUnits="userSpaceOnUse">
<stop stop-color="#FCB932"/>
<stop offset="1" stop-color="#009EAB"/>
</linearGradient>
<clipPath id="clip0_1797_2187">
<rect width="195.765" height="195.765" fill="white" transform="translate(7.59375 146.375) rotate(-41.8262)"/>
</clipPath>
</defs>
</svg>
