<svg width="106" height="106" viewBox="0 0 106 106" fill="none" xmlns="http://www.w3.org/2000/svg">
<circle cx="53" cy="53" r="52.5" fill="white" stroke="#FCB932"/>
<path d="M37.8307 29.6719L27.5859 54.8897H44.1351L38.6187 40.7047" stroke="#FCB932" stroke-width="3.5" stroke-miterlimit="10" stroke-linejoin="bevel"/>
<path d="M69.3513 29.6719L79.5961 54.8897H63.0469L68.5633 40.7047" stroke="#FCB932" stroke-width="3.5" stroke-miterlimit="10" stroke-linejoin="bevel"/>
<path d="M77.2217 29.1641H60.6875" stroke="#053B67" stroke-width="3.5" stroke-miterlimit="10" stroke-linejoin="bevel"/>
<path d="M46.4895 29.1638H29.168" stroke="#053B67" stroke-width="3.5" stroke-miterlimit="10" stroke-linejoin="bevel"/>
<path d="M53.5974 24.1522C56.2051 24.1522 58.3257 26.2737 58.3257 28.8806C58.3257 31.4883 56.2051 33.6089 53.5974 33.6089C50.9905 33.6089 48.869 31.4883 48.869 28.8806C48.869 26.2737 50.9905 24.1522 53.5974 24.1522ZM53.5974 21C49.2449 21 45.7168 24.5289 45.7168 28.8806C45.7168 33.233 49.2449 36.7612 53.5974 36.7612C57.9498 36.7612 61.4779 33.233 61.4779 28.8806C61.4779 24.5281 57.9498 21 53.5974 21Z" fill="#053B67"/>
<path d="M53.5762 36.7656V71.4402" stroke="#053B67" stroke-width="3.5" stroke-miterlimit="10" stroke-linejoin="bevel"/>
<path d="M70.0973 80.9193L44.6557 84.8762L26 74.7L29.9568 70.1797L42.3955 76.399L45.7866 74.7" stroke="#053B67" stroke-width="3.5" stroke-miterlimit="10" stroke-linejoin="bevel"/>
<path d="M55.9705 76.9462L45.0039 76.7587L45.2301 70.7363H55.9705L70.1051 67.3438" stroke="#053B67" stroke-width="3.5" stroke-miterlimit="10" stroke-linejoin="bevel"/>
<path d="M78.0194 65.0781H69.5391V83.1696H78.0194V65.0781Z" stroke="#FCB932" stroke-width="3.5" stroke-miterlimit="10" stroke-linejoin="bevel"/>
</svg>
