<svg xmlns="http://www.w3.org/2000/svg" width="106" height="106" viewBox="0 0 106 106" fill="none">
  <circle cx="53" cy="53" r="52.5" fill="white" stroke="url(#paint0_linear_1819_2883)"/>
  <path d="M37.8307 29.6719L27.5859 54.8897H44.1351L38.6187 40.7047" stroke="url(#paint1_linear_1819_2883)" stroke-width="3.5" stroke-miterlimit="10" stroke-linejoin="bevel"/>
  <path d="M69.3513 29.6719L79.5961 54.8897H63.0469L68.5633 40.7047" stroke="url(#paint2_linear_1819_2883)" stroke-width="3.5" stroke-miterlimit="10" stroke-linejoin="bevel"/>
  <path d="M77.2217 29.1641H60.6875" stroke="#005158" stroke-width="3.5" stroke-miterlimit="10" stroke-linejoin="bevel"/>
  <path d="M46.4895 29.1641H29.168" stroke="#005158" stroke-width="3.5" stroke-miterlimit="10" stroke-linejoin="bevel"/>
  <path d="M53.5993 24.1522C56.207 24.1522 58.3277 26.2737 58.3277 28.8806C58.3277 31.4883 56.207 33.6089 53.5993 33.6089C50.9924 33.6089 48.871 31.4883 48.871 28.8806C48.871 26.2737 50.9924 24.1522 53.5993 24.1522ZM53.5993 21C49.2469 21 45.7188 24.5289 45.7188 28.8806C45.7188 33.233 49.2469 36.7612 53.5993 36.7612C57.9518 36.7612 61.4799 33.233 61.4799 28.8806C61.4799 24.5281 57.9518 21 53.5993 21Z" fill="#005158"/>
  <path d="M53.5781 36.7656V71.4402" stroke="#005158" stroke-width="3.5" stroke-miterlimit="10" stroke-linejoin="bevel"/>
  <path d="M70.0973 80.9193L44.6557 84.8762L26 74.7L29.9568 70.1797L42.3955 76.399L45.7866 74.7" stroke="#005158" stroke-width="3.5" stroke-miterlimit="10" stroke-linejoin="bevel"/>
  <path d="M55.9705 76.9462L45.0039 76.7587L45.2301 70.7363H55.9705L70.1051 67.3438" stroke="#005158" stroke-width="3.5" stroke-miterlimit="10" stroke-linejoin="bevel"/>
  <path d="M78.0194 65.0781H69.5391V83.1696H78.0194V65.0781Z" stroke="url(#paint3_linear_1819_2883)" stroke-width="3.5" stroke-miterlimit="10" stroke-linejoin="bevel"/>
  <defs>
    <linearGradient id="paint0_linear_1819_2883" x1="53" y1="0" x2="53" y2="106" gradientUnits="userSpaceOnUse">
      <stop stop-color="#FCB932"/>
      <stop offset="1" stop-color="#009EAB"/>
    </linearGradient>
    <linearGradient id="paint1_linear_1819_2883" x1="35.8605" y1="29.6719" x2="35.8605" y2="54.8897" gradientUnits="userSpaceOnUse">
      <stop stop-color="#009EAB"/>
      <stop offset="1" stop-color="#FCB932"/>
    </linearGradient>
    <linearGradient id="paint2_linear_1819_2883" x1="71.3215" y1="29.6719" x2="71.3215" y2="54.8897" gradientUnits="userSpaceOnUse">
      <stop stop-color="#009EAB"/>
      <stop offset="1" stop-color="#FCB932"/>
    </linearGradient>
    <linearGradient id="paint3_linear_1819_2883" x1="73.7792" y1="65.0781" x2="73.7792" y2="83.1696" gradientUnits="userSpaceOnUse">
      <stop stop-color="#FCB932"/>
      <stop offset="1" stop-color="#009EAB"/>
    </linearGradient>
  </defs>
</svg>
