<svg width="106" height="106" viewBox="0 0 106 106" fill="none" xmlns="http://www.w3.org/2000/svg">
<circle cx="53" cy="53" r="53" fill="#F8F8FA"/>
<path d="M37.8302 29.6697L27.5854 54.8875H44.1347L38.6183 40.7025" stroke="#181B34" stroke-width="3.5" stroke-miterlimit="10" stroke-linejoin="bevel"/>
<path d="M69.3521 29.6697L79.5968 54.8875H63.0476L68.564 40.7025" stroke="#181B34" stroke-width="3.5" stroke-miterlimit="10" stroke-linejoin="bevel"/>
<path d="M77.2214 29.1639H60.6871" stroke="#9E9C9A" stroke-width="3.5" stroke-miterlimit="10" stroke-linejoin="bevel"/>
<path d="M46.4897 29.1639H29.1682" stroke="#9E9C9A" stroke-width="3.5" stroke-miterlimit="10" stroke-linejoin="bevel"/>
<path d="M53.5969 24.1522C56.2046 24.1522 58.3252 26.2737 58.3252 28.8806C58.3252 31.4883 56.2046 33.6089 53.5969 33.6089C50.99 33.6089 48.8685 31.4883 48.8685 28.8806C48.8685 26.2737 50.99 24.1522 53.5969 24.1522ZM53.5969 21C49.2444 21 45.7163 24.5289 45.7163 28.8806C45.7163 33.233 49.2444 36.7612 53.5969 36.7612C57.9493 36.7612 61.4775 33.233 61.4775 28.8806C61.4775 24.5281 57.9493 21 53.5969 21Z" fill="#9E9C9A"/>
<path d="M53.5757 36.7622V71.4367" stroke="#9E9C9A" stroke-width="3.5" stroke-miterlimit="10" stroke-linejoin="bevel"/>
<path d="M70.0973 80.919L44.6557 84.8758L26 74.6996L29.9568 70.1793L42.3955 76.3987L45.7866 74.6996" stroke="#9E9C9A" stroke-width="3.5" stroke-miterlimit="10" stroke-linejoin="bevel"/>
<path d="M55.9704 76.9481L45.0038 76.7605L45.23 70.7382H55.9704L70.105 67.3456" stroke="#9E9C9A" stroke-width="3.5" stroke-miterlimit="10" stroke-linejoin="bevel"/>
<path d="M78.0194 65.083H69.5391V83.1744H78.0194V65.083Z" stroke="#181B34" stroke-width="3.5" stroke-miterlimit="10" stroke-linejoin="bevel"/>
</svg>
