<svg width="28" height="17" viewBox="0 0 28 17" fill="none" xmlns="http://www.w3.org/2000/svg">
<path d="M22.0247 5.92222C21.4018 5.91804 20.808 6.01839 20.2519 6.21072L18.8763 3.91526H22.3216C22.8777 3.91526 23.3251 3.46787 23.3251 2.91177V1.5738C23.3251 1.0177 22.8777 0.570312 22.3216 0.570312H20.4275C20.1432 0.570312 19.8714 0.691567 19.6833 0.900626L18.1153 2.64418L17.162 1.05533C16.9781 0.754284 16.6519 0.570312 16.3007 0.570312H12.9558C12.5878 0.570312 12.2868 0.871357 12.2868 1.2393V1.90829C12.2868 2.27623 12.5878 2.57728 12.9558 2.57728H15.7321L16.5349 3.91526H10.1084C9.36832 2.9494 8.23104 2.24278 5.93139 2.24278H3.61083C3.04637 2.24278 2.5739 2.70271 2.58644 3.26717C2.59481 3.81073 3.04219 4.24975 3.58993 4.24975H5.93139C6.95578 4.24975 7.5495 4.7055 7.92999 5.28668L7.45752 6.14382C6.91396 5.98076 6.33278 5.9055 5.73069 5.9264C2.91676 6.02675 0.646378 8.33058 0.579479 11.1487C0.51258 14.1633 2.93348 16.626 5.93139 16.626C8.42337 16.626 10.5181 14.9201 11.116 12.6121H14.6366C15.2094 12.6121 15.6652 12.1355 15.6401 11.5626C15.5523 9.5933 16.3718 7.64487 17.9899 6.33616L18.5126 7.20584C17.3585 8.19678 16.6268 9.66856 16.6394 11.3118C16.6603 14.2219 19.031 16.601 21.9411 16.626C24.9348 16.6553 27.3683 14.2219 27.3432 11.2281C27.3139 8.31804 24.9348 5.94313 22.0247 5.92222ZM5.93139 14.6191C4.08749 14.6191 2.58644 13.118 2.58644 11.2741C2.58644 9.43023 4.08749 7.92919 5.93139 7.92919C6.107 7.92919 6.28261 7.94173 6.45403 7.971L4.71885 11.1236C4.3509 11.7926 4.83592 12.6121 5.59689 12.6121H8.99619C8.47773 13.7912 7.29863 14.6191 5.93139 14.6191ZM25.3279 11.4581C25.2359 13.1557 23.8645 14.5271 22.1711 14.6149C20.2436 14.7194 18.6422 13.1807 18.6422 11.2741C18.6422 10.3794 18.9934 9.56821 19.5662 8.9703L21.6317 12.4156C21.8199 12.7334 22.2338 12.8337 22.5516 12.6456L23.1244 12.3027C23.4422 12.1145 23.5425 11.7006 23.3544 11.3828L21.3223 8.00027C21.5397 7.95427 21.7613 7.93337 21.9871 7.93337C23.8937 7.92919 25.4282 9.53058 25.3279 11.4581Z" fill="#FC5185"/>
</svg>
