<svg xmlns="http://www.w3.org/2000/svg" width="48" height="38" viewBox="0 0 48 38" fill="none">
  <g clip-path="url(#clip0_1819_2583)">
    <path d="M38.0692 14.25C36.9633 14.2426 35.9094 14.4207 34.9223 14.7621L32.4805 10.6875H38.5962C39.5833 10.6875 40.3774 9.89336 40.3774 8.90625V6.53125C40.3774 5.54414 39.5833 4.75 38.5962 4.75H35.234C34.7294 4.75 34.2469 4.96523 33.9129 5.33633L31.1297 8.43125L29.4376 5.61094C29.111 5.07656 28.5321 4.75 27.9087 4.75H21.9712C21.318 4.75 20.7837 5.28438 20.7837 5.9375V7.125C20.7837 7.77813 21.318 8.3125 21.9712 8.3125H26.8993L28.3243 10.6875H16.9169C15.6032 8.97305 13.5844 7.71875 9.5024 7.71875H5.38326C4.38131 7.71875 3.54264 8.53516 3.5649 9.53711C3.57975 10.502 4.37389 11.2812 5.34615 11.2812H9.5024C11.3208 11.2812 12.3747 12.0902 13.0501 13.1219L12.2114 14.6434C11.2465 14.3539 10.2149 14.2203 9.14615 14.2574C4.15123 14.4355 0.121153 18.525 0.00240327 23.5273C-0.116347 28.8785 4.18092 33.25 9.5024 33.25C13.9258 33.25 17.6442 30.2219 18.7055 26.125H24.9547C25.9715 26.125 26.7805 25.2789 26.736 24.2621C26.5801 20.7664 28.0348 17.3078 30.9071 14.9848L31.8348 16.5285C29.7864 18.2875 28.4876 20.9 28.5098 23.8168C28.5469 28.9824 32.7551 33.2055 37.9208 33.25C43.2348 33.302 47.5544 28.9824 47.5098 23.6684C47.4579 18.5027 43.2348 14.2871 38.0692 14.25ZM9.5024 29.6875C6.22936 29.6875 3.5649 27.023 3.5649 23.75C3.5649 20.477 6.22936 17.8125 9.5024 17.8125C9.81412 17.8125 10.1258 17.8348 10.4301 17.8867L7.35006 23.4828C6.69693 24.6703 7.55787 26.125 8.90865 26.125H14.9426C14.0223 28.218 11.9294 29.6875 9.5024 29.6875ZM43.9325 24.0766C43.7692 27.0898 41.3348 29.5242 38.329 29.6801C34.9075 29.8656 32.0649 27.1344 32.0649 23.75C32.0649 22.1617 32.6883 20.7219 33.7051 19.6605L37.3715 25.7762C37.7055 26.3402 38.4403 26.5184 39.0044 26.1844L40.0212 25.5758C40.5852 25.2418 40.7633 24.507 40.4294 23.943L36.8223 17.9387C37.2083 17.857 37.6016 17.8199 38.0024 17.8199C41.3868 17.8125 44.1106 20.6551 43.9325 24.0766Z" fill="#08181B"/>
  </g>
  <defs>
    <clipPath id="clip0_1819_2583">
      <rect width="47.5" height="38" fill="white"/>
    </clipPath>
  </defs>
</svg>
