<svg width="106" height="106" viewBox="0 0 106 106" fill="none" xmlns="http://www.w3.org/2000/svg">
<circle cx="53" cy="53" r="53" fill="#F8F8FA"/>
<path d="M48.3525 49.4139L46.1351 45.2791" stroke="#9E9C9A" stroke-width="3" stroke-miterlimit="10" stroke-linejoin="bevel"/>
<path d="M43.126 45.2791L41.3627 49.4139" stroke="#9E9C9A" stroke-width="3" stroke-miterlimit="10" stroke-linejoin="bevel"/>
<path d="M58.1171 49.4139L55.8998 45.2791" stroke="#181B34" stroke-width="3" stroke-miterlimit="10" stroke-linejoin="bevel"/>
<path d="M52.8926 45.2791L51.1293 49.4139" stroke="#181B34" stroke-width="3" stroke-miterlimit="10" stroke-linejoin="bevel"/>
<path d="M83.7041 62.5052L92.0742 61.8076L89.2842 51.3451L75.3341 46.4626L59.989 36.6975L35.5764 36L24.0676 44.0213L15.6975 46.8113L15 60.0639L19.8825 61.4589" stroke="#9E9C9A" stroke-width="3" stroke-miterlimit="10" stroke-linejoin="bevel"/>
<path d="M42.5411 61.1056H62.7688" stroke="#9E9C9A" stroke-width="3" stroke-miterlimit="10" stroke-linejoin="bevel"/>
<path d="M31.3871 68.7863C35.2394 68.7863 38.3622 65.6635 38.3622 61.8113C38.3622 57.9591 35.2394 54.8362 31.3871 54.8362C27.5349 54.8362 24.4121 57.9591 24.4121 61.8113C24.4121 65.6635 27.5349 68.7863 31.3871 68.7863Z" stroke="#9E9C9A" stroke-width="3" stroke-miterlimit="10" stroke-linejoin="bevel"/>
<path d="M73.9368 68.7863C77.789 68.7863 80.9119 65.6635 80.9119 61.8113C80.9119 57.9591 77.789 54.8362 73.9368 54.8362C70.0846 54.8362 66.9618 57.9591 66.9618 61.8113C66.9618 65.6635 70.0846 68.7863 73.9368 68.7863Z" stroke="#9E9C9A" stroke-width="3" stroke-miterlimit="10" stroke-linejoin="bevel"/>
<path d="M66.2592 46.466L62.7717 49.256H37.6616L32.0815 42.9785" stroke="#181B34" stroke-width="3" stroke-miterlimit="10" stroke-linejoin="bevel"/>
<path d="M54.2635 45.2421C55.6118 45.2421 56.7048 44.1491 56.7048 42.8008C56.7048 41.4525 55.6118 40.3596 54.2635 40.3596C52.9153 40.3596 51.8223 41.4525 51.8223 42.8008C51.8223 44.1491 52.9153 45.2421 54.2635 45.2421Z" stroke="#181B34" stroke-width="3" stroke-miterlimit="10" stroke-linejoin="bevel"/>
<path d="M44.5171 45.2421C45.8653 45.2421 46.9583 44.1491 46.9583 42.8008C46.9583 41.4525 45.8653 40.3596 44.5171 40.3596C43.1688 40.3596 42.0758 41.4525 42.0758 42.8008C42.0758 44.1491 43.1688 45.2421 44.5171 45.2421Z" stroke="#9E9C9A" stroke-width="3" stroke-miterlimit="10" stroke-linejoin="bevel"/>
</svg>
