<svg width="193" height="58" viewBox="0 0 193 58" fill="none" xmlns="http://www.w3.org/2000/svg">
<path d="M97.4079 22.7354C94.0466 22.7354 91.305 25.2987 91.305 28.8285C91.305 32.3584 94.0466 34.9216 97.4079 34.9216C100.769 34.9216 103.514 32.3369 103.514 28.8285C103.514 25.2987 100.772 22.7354 97.4079 22.7354ZM97.4079 32.5205C95.5639 32.5205 93.9763 30.9972 93.9763 28.8285C93.9763 26.6598 95.5669 25.1366 97.4079 25.1366C99.2488 25.1366 100.839 26.6354 100.839 28.8285C100.839 31.0217 99.2519 32.5205 97.4079 32.5205ZM84.0909 22.7354C80.7295 22.7354 77.988 25.2987 77.988 28.8285C77.988 32.3584 80.7295 34.9216 84.0909 34.9216C87.4522 34.9216 90.1968 32.3369 90.1968 28.8285C90.1968 25.3201 87.4552 22.7354 84.0909 22.7354ZM84.0909 32.5205C82.2469 32.5205 80.6593 30.9972 80.6593 28.8285C80.6593 26.6598 82.2499 25.1366 84.0909 25.1366C85.9318 25.1366 87.5224 26.6354 87.5224 28.8285C87.5224 30.9972 85.9348 32.5205 84.0909 32.5205ZM68.2521 24.6043V27.189H74.4252C74.242 28.6419 73.7566 29.7033 73.0208 30.4405C72.1232 31.3398 70.7189 32.3339 68.2521 32.3339C64.4511 32.3339 61.4806 29.2629 61.4806 25.4577C61.4806 21.6526 64.4511 18.5816 68.2521 18.5816C70.3037 18.5816 71.7996 19.3891 72.9048 20.4291L74.7244 18.6061C73.1796 17.1287 71.131 16 68.2521 16C63.0468 16 58.6719 20.2456 58.6719 25.4608C58.6719 30.676 63.0468 34.9216 68.2521 34.9216C71.0608 34.9216 73.1826 33.9979 74.8373 32.2666C76.5409 30.5598 77.0721 28.1586 77.0721 26.2194C77.0721 25.6199 77.0263 25.0662 76.9347 24.6043H68.2521ZM133.027 26.614C132.52 25.2528 130.975 22.7354 127.822 22.7354C124.668 22.7354 122.085 25.2039 122.085 28.8285C122.085 32.2421 124.665 34.9216 128.121 34.9216C130.908 34.9216 132.52 33.2148 133.189 32.2207L131.116 30.8351C130.426 31.8506 129.479 32.5205 128.121 32.5205C126.762 32.5205 125.794 31.8965 125.172 30.673L133.302 27.3052L133.027 26.614ZM124.735 28.645C124.668 26.2897 126.555 25.0907 127.913 25.0907C128.972 25.0907 129.87 25.6229 130.169 26.3815L124.732 28.6419L124.735 28.645ZM118.125 34.5515H120.797V16.6454H118.125V34.5515ZM113.747 24.0966H113.656C113.057 23.3808 111.903 22.7354 110.456 22.7354C107.416 22.7354 104.628 25.4119 104.628 28.853C104.628 32.2941 107.416 34.9216 110.456 34.9216C111.906 34.9216 113.057 34.2762 113.656 33.539H113.747V34.4169C113.747 36.7477 112.505 37.9926 110.502 37.9926C108.866 37.9926 107.852 36.8181 107.437 35.824L105.111 36.7936C105.779 38.4086 107.55 40.3938 110.499 40.3938C113.631 40.3938 116.281 38.5463 116.281 34.0468V23.1086H113.747V24.0996V24.0966ZM110.685 32.5205C108.841 32.5205 107.299 30.9727 107.299 28.8499C107.299 26.7271 108.841 25.1335 110.685 25.1335C112.529 25.1335 113.931 26.7027 113.931 28.8499C113.931 30.9972 112.502 32.5205 110.685 32.5205ZM145.541 16.6454H139.148V34.5515H141.813V27.7671H145.538C148.493 27.7671 151.403 25.6229 151.403 22.2063C151.403 18.7896 148.496 16.6454 145.541 16.6454ZM145.608 25.2742H141.813V19.1352H145.608C147.602 19.1352 148.734 20.79 148.734 22.2063C148.734 23.6225 147.602 25.2742 145.608 25.2742ZM162.094 22.7018C160.162 22.7018 158.162 23.5552 157.335 25.4425L159.701 26.4335C160.207 25.4425 161.151 25.1213 162.137 25.1213C163.517 25.1213 164.918 25.9502 164.943 27.4245V27.6081C164.46 27.3328 163.425 26.9168 162.161 26.9168C159.609 26.9168 157.011 28.3208 157.011 30.9483C157.011 33.3433 159.105 34.888 161.45 34.888C163.242 34.888 164.231 34.0804 164.854 33.1353H164.946V34.5179H167.522V27.6539C167.522 24.4759 165.153 22.7048 162.097 22.7048L162.094 22.7018ZM161.77 32.5144C160.897 32.5144 159.679 32.0769 159.679 30.9941C159.679 29.6116 161.197 29.0824 162.509 29.0824C163.682 29.0824 164.234 29.3363 164.946 29.6819C164.738 31.3428 163.312 32.5174 161.77 32.5174V32.5144ZM176.901 23.0933L173.842 30.8565H173.75L170.575 23.0933H167.702L172.462 33.9428L169.748 39.9778H172.529L179.865 23.0903H176.898L176.901 23.0933ZM152.874 34.5484H155.539V16.6423H152.874V34.5484Z" fill="#181B34" fill-opacity="0.8"/>
<path fill-rule="evenodd" clip-rule="evenodd" d="M14.5204 11.1198C14.3525 11.5021 14.2578 11.9732 14.2578 12.5207V44.2005C14.2578 44.748 14.3494 45.216 14.5204 45.6014L31.7238 28.3621L14.5173 11.1229L14.5204 11.1198ZM15.5156 46.6261C16.1537 46.8983 16.9841 46.8127 17.8908 46.2988L38.1289 34.7764L32.7344 29.3715L15.5126 46.6261H15.5156ZM39.4234 34.0423L45.7736 30.4299C47.7702 29.292 47.7702 27.4292 45.7736 26.2944L39.4203 22.6789L33.7479 28.3621L39.4234 34.0454V34.0423ZM38.132 21.9418L17.8908 10.4193C16.9841 9.90241 16.1537 9.81676 15.5156 10.089L32.7374 27.3436L38.1289 21.9418H38.132Z" fill="#181B34" fill-opacity="0.8"/>
<path d="M185.855 57.294H7.14699C3.20561 57.294 0 54.0823 0 50.1334V7.1606C0 3.21172 3.20561 0 7.14699 0H185.855C189.797 0 193.002 3.21172 193.002 7.1606V50.1334C193.002 54.0823 189.797 57.294 185.855 57.294ZM7.14699 1.43151C3.99328 1.43151 1.42879 4.00088 1.42879 7.1606V50.1334C1.42879 53.2931 3.99328 55.8625 7.14699 55.8625H185.855C189.009 55.8625 191.574 53.2931 191.574 50.1334V7.1606C191.574 4.00088 189.009 1.43151 185.855 1.43151H7.14699Z" fill="#181B34" fill-opacity="0.8"/>
</svg>
