<svg width="106" height="106" viewBox="0 0 106 106" fill="none" xmlns="http://www.w3.org/2000/svg">
<circle cx="53" cy="53" r="53" fill="#F8F8FA"/>
<path d="M79.1584 62.1333L86 61.568L83.7195 53.0888L72.3167 49.1318L59.7738 41.2179L39.819 40.6526L30.4118 47.1533L23.5701 49.4145L23 60.1548L26.991 61.2854" stroke="#9E9C9A" stroke-width="3.5" stroke-miterlimit="10" stroke-linejoin="bevel"/>
<path d="M45.5231 61.0012H62.057" stroke="#9E9C9A" stroke-width="3.5" stroke-miterlimit="10" stroke-linejoin="bevel"/>
<path d="M36.389 67.216C39.5378 67.216 42.0903 64.6852 42.0903 61.5632C42.0903 58.4413 39.5378 55.9104 36.389 55.9104C33.2402 55.9104 30.6876 58.4413 30.6876 61.5632C30.6876 64.6852 33.2402 67.216 36.389 67.216Z" stroke="#9E9C9A" stroke-width="3.5" stroke-miterlimit="10" stroke-linejoin="bevel"/>
<path d="M71.1708 67.216C74.3196 67.216 76.8722 64.6852 76.8722 61.5632C76.8722 58.4413 74.3196 55.9104 71.1708 55.9104C68.0221 55.9104 65.4695 58.4413 65.4695 61.5632C65.4695 64.6852 68.0221 67.216 71.1708 67.216Z" stroke="#9E9C9A" stroke-width="3.5" stroke-miterlimit="10" stroke-linejoin="bevel"/>
<path d="M64.9053 49.1245L62.0546 51.3856H41.5297L36.9686 46.2981" stroke="#181B34" stroke-width="3.5" stroke-miterlimit="10" stroke-linejoin="bevel"/>
<path d="M75.1188 47.7305C78.8669 32.343 76.9997 32.7065 76.9997 32.7065C76.9997 32.7065 60.0632 29.0203 52.9514 23C45.2585 28.2713 28.0319 30.23 28.0319 30.23C28.0319 30.23 26.1464 29.6596 28.4788 46.2144" stroke="#181B34" stroke-width="3.5" stroke-miterlimit="10" stroke-linejoin="bevel"/>
<path d="M38.7041 71.0445C44.6592 79.6097 51.8697 83.3756 51.8697 83.3756C51.8697 83.3756 61.6441 79.6883 69.1608 69.3464" stroke="#181B34" stroke-width="3.5" stroke-miterlimit="10" stroke-linejoin="bevel"/>
</svg>
