<svg width="58" height="55" viewBox="0 0 58 55" fill="none" xmlns="http://www.w3.org/2000/svg">
<g clip-path="url(#clip0_6097_2070)">
<path d="M41.2084 1.97042C40.8862 1.8208 41.3406 2.12169 40.9866 1.902C41.0394 1.87808 41.1256 1.88125 41.2084 1.97042Z" fill="#FC5185"/>
<path d="M17.1696 49.9589C18.168 49.4012 19.6321 49.0757 20.6867 48.4081C20.802 48.3345 20.7071 48.5464 20.9904 48.3759C21.2306 48.2039 21.5312 48.0254 21.8496 47.8389C22.1681 47.6523 22.5121 47.4753 22.8658 47.273C23.2192 47.0706 23.5808 46.8855 23.9169 46.6912C24.0848 46.594 24.2705 46.4887 24.4464 46.409C24.6143 46.3118 24.7825 46.2147 24.9328 46.1255L24.8864 46.2098C25.1247 46.0807 25.3523 45.7876 25.5748 45.6234C25.5828 45.6409 25.5281 45.7077 25.5889 45.7015C25.602 45.59 26.0007 45.346 26.0567 45.2361C26.1624 45.1882 26.1861 45.2407 26.3269 45.1771L26.4026 45.0161C26.5148 44.7963 26.755 44.6243 26.9874 44.4346C27.2195 44.245 27.4948 44.0569 27.703 43.8148C27.6933 43.8402 27.6566 43.8991 27.7094 43.8753C28.3967 43.0993 29.313 42.2197 30.0392 41.3417C30.0199 41.3926 30.0516 41.4627 30.1045 41.4389C30.0823 41.3432 30.2925 41.0582 30.4832 40.8238C30.6319 40.7777 30.7609 40.3602 31.0204 40.1372L31.0186 40.1802C31.1152 39.9253 31.2974 39.9062 31.3588 39.6672L31.5092 39.5779C31.4729 39.4043 31.7958 39.3213 31.8652 39.0999L31.8396 39.0903C31.9249 38.904 32.048 38.8482 32.1491 38.6968L32.1666 38.6888C32.3977 38.3096 32.5948 38.136 32.5102 38.0897C32.6606 38.0004 32.2967 38.4609 32.5351 38.3318C33.2944 37.059 34.0633 35.7604 34.7301 34.4238C34.8391 34.29 34.9033 34.1977 34.9385 34.1816C34.9867 34.0541 35.1492 33.6639 35.1719 33.5269C35.1526 33.5779 35.252 33.4695 35.2986 33.3851C35.4462 33.1493 35.3282 33.076 35.4679 32.8227C35.4548 32.9342 35.461 32.9948 35.5138 32.9708C35.5417 32.7048 35.6752 32.391 35.7639 32.1186C35.7622 32.1616 35.7508 32.2301 35.7763 32.2396C35.8156 31.9051 35.9967 31.6964 36.0519 31.3969L36.0643 31.518C36.2796 31.1037 36.0105 31.3523 36.1633 30.9875C36.1423 31.0815 36.1775 31.0655 36.203 31.0751C36.2185 30.688 36.4486 30.1193 36.4975 29.7593C36.5055 29.7768 36.5054 29.7768 36.5054 29.7768C36.5475 29.5888 36.6248 29.3849 36.6765 29.1715C36.7362 28.9755 36.78 28.7446 36.8141 28.5391C36.8721 28.3861 36.9401 28.6298 37.018 28.1933C36.9062 28.1806 37.116 27.4733 36.9428 27.6996C36.9928 27.5291 37.0542 27.2901 37.1059 27.0767C37.1577 26.8632 37.1918 26.6577 37.1794 26.5367C37.1901 26.7008 37.3412 26.379 37.3115 26.688L37.424 26.4681C37.4654 26.5127 37.3802 26.6991 37.4347 26.6322C37.4495 26.4777 37.4843 26.0396 37.5071 25.9026C37.4839 25.6175 37.3825 25.3468 37.3918 24.8992C37.4263 25.1158 37.5343 24.7924 37.537 24.939C37.4849 24.7303 37.4249 24.5041 37.3552 24.3035C37.3524 24.1569 37.4511 24.2811 37.4342 24.0565C37.3989 24.0725 37.3945 23.969 37.3627 23.8989C37.382 23.8479 37.3358 23.2777 37.4334 23.2123C37.4703 23.1534 37.4582 23.4544 37.4907 23.2919C37.4755 23.0244 37.442 22.9973 37.4268 22.7297L37.4444 22.7217C37.4433 22.5322 37.3533 22.1929 37.3112 22.3809C37.3236 22.502 37.3736 22.3315 37.3492 22.5115C37.276 22.3969 37.2194 22.0847 37.1787 21.8075C37.2184 21.8951 37.236 21.8872 37.2694 21.9142C37.1283 21.5559 37.0224 21.1816 36.8909 20.7978C36.8302 20.8042 37.0327 20.9236 37.0213 20.992C36.9733 20.4648 36.6296 19.9871 36.5606 19.5539C36.5924 19.6239 36.5061 19.6208 36.5237 19.6128C36.4381 19.3771 36.4989 19.3707 36.4098 19.221C36.4547 19.1796 36.3049 19.0363 36.2239 18.9041C36.1569 18.85 36.2256 18.8611 36.2987 18.9758C36.2335 18.8786 36.0617 18.6398 35.874 18.3659C35.6863 18.092 35.4731 17.8085 35.3267 17.5792C35.3171 17.6047 35.0318 17.3961 34.949 17.307L35.0273 17.2926C34.9796 17.1875 34.7278 17.006 34.7471 16.955C34.6194 16.9073 34.8299 17.0442 35.0131 17.2146C35.1884 17.3674 35.3716 17.5378 35.2122 17.42C35.1998 17.2989 34.7913 17.1461 34.9127 17.1333C34.8299 17.0442 34.7198 16.9885 34.6194 16.9073C34.5191 16.8261 34.4266 16.7624 34.3614 16.6653C34.4028 16.7099 34.5753 16.7162 34.4159 16.5983C34.1306 16.3898 34.3137 16.5601 34.0778 16.4137L33.9166 16.3389C33.8718 16.3803 33.6472 16.1654 33.7283 16.2976C33.7141 16.2195 33.2704 16.0827 33.3601 15.9998L33.4402 15.9424C33.3046 15.8772 33.1735 15.9155 33.0441 15.9107C33.0362 15.8932 33.0027 15.8662 33.0203 15.8582C32.9465 15.9761 32.6804 15.7165 32.471 15.7692C32.1743 15.6291 31.692 15.5943 31.5661 15.5035C31.3232 15.5291 31.1059 15.5642 30.8216 15.5452C30.8823 15.5388 30.9606 15.5245 30.9703 15.499C30.8074 15.4672 30.7546 15.4911 30.606 15.5373C30.6235 15.5294 30.5294 15.5087 30.4176 15.496C30.3058 15.4833 30.1588 15.4865 30.047 15.4738C29.8104 15.5599 29.9204 15.6156 29.9011 15.6666C29.7735 15.6189 29.6151 15.6906 29.4568 15.7624C29.2984 15.8341 29.1559 15.9409 29.001 15.9266C29.0635 15.8772 29.2939 15.7306 29.1021 15.7752C29.0334 15.7641 28.9807 15.788 28.9279 15.8119C28.8751 15.8359 28.8303 15.8773 28.7854 15.9187C28.7405 15.9602 28.6781 16.0095 28.6156 16.0589C28.5532 16.1083 28.4908 16.1577 28.4204 16.1896L28.548 16.2374C28.3659 16.2565 28.1796 16.5943 28.1241 16.4717C28.0599 16.5641 27.7943 16.7266 27.8964 16.7648C27.7812 16.8382 27.6721 16.972 27.5728 17.0803C27.4814 17.2062 27.3724 17.34 27.3144 17.493C27.2854 17.5695 27.2309 17.6364 27.194 17.6953C27.1651 17.7718 27.1281 17.8307 27.0912 17.8897C27.0174 18.0076 26.9612 18.1175 26.8811 18.1749C26.8794 18.2179 26.8504 18.2944 26.8487 18.3374C26.8373 18.4059 26.8356 18.4489 26.8708 18.4329C26.9622 18.3071 26.8874 18.2354 26.9322 18.194C26.9208 18.2625 26.9367 18.2975 26.9367 18.2975C26.8611 18.4584 26.8384 18.5954 26.7766 18.4123C26.6914 18.5986 26.7215 18.7117 26.7594 18.8424C26.7656 18.9029 26.7974 18.9729 26.8036 19.0335C26.8177 19.1115 26.8143 19.1975 26.8091 19.3265C26.7757 19.2995 26.7308 19.3409 26.7512 19.4795L26.835 19.7582C26.8661 20.0608 26.7578 19.9621 26.6794 19.9765C26.7157 20.1501 26.7678 20.3587 26.8427 20.4304C26.8137 20.5069 26.8279 20.5849 26.8165 20.6534C26.8233 20.4813 26.9151 20.7776 26.9645 20.8397C26.9565 20.8222 26.9231 20.7951 26.9151 20.7776C26.8958 20.8286 27.0104 20.9878 27.0501 21.0754C27.0949 21.034 27.0076 20.8413 26.9776 20.7282C27.0349 20.8078 27.108 20.9225 27.1829 20.9941C27.079 20.9989 27.2764 21.2473 27.3495 21.362C27.4306 21.4942 27.5186 21.4543 27.5345 21.4894C27.5169 21.4973 27.5662 21.5594 27.5821 21.5945C27.6156 21.6215 27.6314 21.6566 27.5628 21.6455C27.5293 21.6184 27.5072 21.5228 27.4306 21.4942C27.4703 21.5818 27.4079 21.6312 27.5928 21.7585C27.7363 21.8413 27.6587 21.6231 27.8481 21.854C27.7715 21.8254 27.7539 21.8333 27.6773 21.8047C27.7346 21.8843 27.8095 21.956 27.8764 22.0101L27.9213 21.9686C27.9371 22.0037 27.9116 21.9942 27.9195 22.0117C27.9803 22.0053 28.0727 22.069 28.1573 22.1151C28.2418 22.1613 28.3439 22.1995 28.4046 22.1931C28.4636 22.2297 28.5226 22.2663 28.5895 22.3204C28.6485 22.357 28.7155 22.4112 28.7745 22.4478L28.7489 22.4382C28.9004 22.5385 29.1143 22.5894 29.2789 22.5782L29.2613 22.5862C29.3555 22.6069 29.5694 22.6577 29.6908 22.645C29.9206 22.7309 29.7315 22.9221 30.0096 22.8806C30.2587 22.9155 30.4188 22.8008 30.3087 22.7451C30.7541 22.8389 31.2513 22.7192 31.6711 22.8035C31.7415 22.7716 31.6905 22.7525 31.8295 22.7318C32.4957 22.7044 33.204 22.4891 33.7646 22.5097C33.5807 22.5718 33.7708 22.5702 33.7691 22.6132C33.9195 22.5239 33.9671 22.6291 34.0057 22.5271C33.982 22.4745 33.9837 22.4315 33.8015 22.4507C34.1772 22.3439 34.7623 22.1843 34.9955 22.1843C34.8917 22.1891 34.9541 22.1397 35.0421 22.0998C35.0466 22.2033 35.3343 22.1363 35.5375 22.0232L35.5489 21.9547L35.7038 21.969C35.7838 21.9116 35.7618 21.816 35.987 21.7984C35.995 21.8159 36.0284 21.843 36.0716 21.8446C36.2668 21.7139 36.5421 21.5258 36.8026 21.4923C36.8713 21.5034 36.9496 21.489 37.0182 21.5002C37.1238 21.4524 37.2584 21.3281 37.0745 21.3902C37.4933 21.285 37.7396 21.1734 37.8945 21.1876C38.4837 20.7096 39.4276 20.2186 40.1701 19.7978L40.1683 19.8408C40.3874 19.7627 40.2342 19.7054 40.3829 19.6592C40.3363 19.7436 40.5906 19.6495 40.464 19.7913C40.7631 19.6558 40.7779 19.5013 40.9477 19.3611C40.9414 19.3006 40.8307 19.4774 40.8166 19.3994C40.8438 19.3659 41.2309 19.1906 41.2009 19.0775C41.2792 19.0631 41.2757 19.1491 41.2564 19.2001L41.4006 19.0503C41.6708 18.9913 41.0446 19.5283 41.3403 19.4788L41.4828 19.3721C41.6825 19.3449 41.1398 19.7385 41.5383 19.4947C41.6825 19.3449 41.7518 19.1235 41.5759 19.2032C41.8978 18.9307 41.6135 18.9117 41.9609 18.6487C42.092 18.6104 41.6839 18.8798 41.7957 18.8925C42.0147 18.8144 42.1096 18.6025 42.2776 18.5052C42.092 18.6104 42.1772 18.424 42.2589 18.3237C42.4621 18.2105 42.201 18.4766 42.4508 18.279C42.4621 18.2105 42.6529 17.9763 42.44 18.1149C42.4549 17.9604 42.7074 17.9094 42.775 17.7309C42.9141 17.7102 42.6653 18.0973 42.9503 17.8838C42.8561 17.8631 43.1814 17.5046 42.972 17.5572C43.0872 17.4839 43.1383 17.503 43.1076 17.6225C43.2932 17.5173 43.3325 17.1828 43.4857 17.2401L43.4812 17.1365C43.534 17.1126 43.614 17.0553 43.7196 17.0074C43.8365 16.8911 43.9814 16.5088 44.0642 16.598C44.0835 16.547 44.3209 16.2283 44.1625 16.3C43.9831 16.4657 44.0483 16.5629 43.8741 16.5996C44.0501 16.5199 44.0842 16.3144 44.1325 16.187L44.1836 16.206C44.2125 16.1296 44.3312 15.9702 44.325 15.9097C44.3136 15.9782 44.3488 15.9623 44.4112 15.9129L44.3988 15.7918C44.5578 15.4875 44.5458 15.7886 44.6951 15.5098L44.6162 15.7567C44.6355 15.7057 44.7507 15.6324 44.8166 15.497C44.7945 15.4014 44.7821 15.2804 44.7503 15.2103C44.8003 15.0398 44.8559 15.1625 44.8804 14.9825L44.8445 15.231C44.8428 15.274 45.0125 15.1337 45.125 14.9139C45.1653 14.7689 45.1853 14.4854 45.0553 14.7132C45.1115 14.6033 45.2126 14.4519 45.225 14.573C45.3136 14.3006 45.1467 14.5873 45.2081 14.3484C45.2802 14.2735 45.4551 14.0043 45.5737 13.8449C45.5782 13.9485 45.5924 14.0265 45.5969 14.13C45.6162 14.0791 45.6355 14.0281 45.6548 13.9771C45.6797 14.2192 45.7621 13.8863 45.808 14.0344C45.8642 13.9245 45.8791 13.77 45.8922 13.6585C45.7656 13.8003 45.7611 13.6967 45.7407 13.5581C45.7203 13.4196 45.7096 13.2555 45.6393 13.2874C45.6831 13.0564 45.771 13.0166 45.8511 12.9592C45.9311 12.9018 45.9856 12.8349 45.9273 12.5657C45.8728 12.6327 45.8303 12.3985 45.7927 12.69C45.8558 12.4081 45.6975 12.4798 45.8055 12.1564C45.8127 12.4065 45.9883 11.9047 46.008 12.2758C45.9745 12.2487 45.9483 12.4717 45.9545 12.5323C46.0283 12.4144 46.0822 12.58 46.1374 12.2805C46.1619 12.1006 46.1722 11.8425 46.1018 11.8744C46.0156 11.8712 46.0818 12.1579 46.0183 12.0178C46.0242 11.6562 46.1473 11.6004 46.0152 11.4491C46.0145 11.6817 45.9265 11.7215 45.8834 11.7199C45.8868 11.6339 45.8727 11.5559 45.8682 11.4524L45.9175 11.5145C45.9858 11.1035 45.8365 11.3823 45.8695 10.9872L45.9934 10.6989C46.0348 10.7435 46.02 10.898 46.0324 11.019C46.0272 11.1481 46.0141 11.2596 46.1021 11.2197C46.13 10.9537 46.0472 10.8645 46.0831 10.6161C46.0893 10.6766 46.1034 10.7546 46.1017 10.7976C46.1052 10.7116 46.3084 10.5984 46.1769 10.2146C46.1327 10.0235 46.1355 10.17 46.0668 10.1589C46.0233 9.73521 45.9502 9.62056 45.8919 9.35138C46.0116 9.38162 45.8245 8.87515 45.9771 9.16497C45.9481 9.24144 45.9667 9.42303 46.0109 9.61417C46.0295 9.79574 46.0737 9.98688 46.131 10.0665C46.2497 9.90717 46.1348 10.4026 46.2607 10.4933C46.249 10.1397 46.3608 10.1524 46.4408 10.095C46.4363 9.9915 46.3966 9.90393 46.3728 9.85137C46.2962 9.82271 46.3087 9.94377 46.2303 9.95813C46.2203 9.56152 46.1223 9.20475 46.0095 9.00252C46.0146 8.87348 46.1088 8.89415 46.1371 9.05024C46.017 8.59791 45.9066 8.12012 45.7769 7.69328C45.762 7.84779 45.7144 7.74266 45.6764 7.61205C45.6209 7.48944 45.5653 7.3668 45.5443 7.46078C45.6043 7.68695 45.5781 7.90996 45.4874 7.80328C45.4494 7.67267 45.5402 7.77937 45.534 7.71884C45.4018 7.56757 45.5205 7.40824 45.3611 7.29044C45.5533 7.66786 45.5415 7.31426 45.6437 7.35247C45.4815 7.0881 45.722 7.33808 45.595 7.0578C45.4328 6.79343 45.2292 6.4845 45.0336 6.19307C44.9039 5.76625 44.4484 5.2758 44.2097 4.98283C44.1224 4.79011 44.2931 4.83944 44.1627 4.64517C43.9892 4.4493 44.1972 4.86177 43.9857 4.53532L44.0288 4.53689C43.9698 4.50026 43.8808 4.35057 43.7646 4.23435C43.6403 4.10059 43.5065 3.99233 43.4106 4.01469L43.5751 4.00345C43.5258 3.94135 43.4747 3.92226 43.4157 3.88563C43.443 3.85218 43.4033 3.76459 43.5037 3.84579C43.4481 3.72315 43.3477 3.64197 43.2553 3.57829C43.1549 3.49709 43.0448 3.44137 42.9444 3.36017C42.9682 3.41273 42.992 3.46529 43.0158 3.51784C42.8309 3.39048 42.697 3.28223 42.5552 3.15645C42.4214 3.04818 42.2796 2.9224 42.085 2.82053L42.1298 2.77909L41.8921 2.67564C41.988 2.6533 41.8048 2.48294 41.6499 2.46866C41.8717 2.53707 42.0936 2.60548 42.2978 2.68186C42.422 2.81562 42.0839 2.63097 42.1395 2.7536C42.1871 2.85871 42.5156 3.06885 42.6115 3.04651C42.5031 2.9478 42.4855 2.95578 42.3579 2.90804C42.371 2.79653 42.5638 2.94139 42.6932 2.94612C42.6263 2.89199 42.5514 2.82036 42.5162 2.8363C42.6694 2.89359 42.7954 2.98433 43.0138 3.13876C42.8526 3.06395 43.0614 3.24386 42.9848 3.21521C43.0648 3.15784 43.2577 3.30271 43.4902 3.53518C43.5458 3.6578 43.6541 3.75654 43.8056 3.85682C43.9395 3.9651 44.0988 4.0829 44.2055 4.22463C44.0347 4.1753 43.8577 4.06547 43.6728 3.93811C43.8032 4.1324 43.8463 4.13397 43.9767 4.32824C44.1044 4.37599 44.2258 4.36318 44.4504 4.57813L44.4135 4.63712C44.6126 4.8425 44.6926 4.78512 44.8883 5.07655C45.2126 5.60526 45.5194 6.14194 45.7178 6.5799L45.6729 6.62132C45.8993 6.79326 46.0653 7.39371 46.2081 7.70904C46.3406 8.28243 46.5894 8.97202 46.5166 9.27947C46.6078 9.80826 46.6751 10.2845 46.672 10.7926C46.6865 11.2928 46.6403 11.7993 46.5493 12.3473L46.4796 12.1466C46.5062 12.3457 46.4058 12.2645 46.3892 12.462C46.4454 12.3521 46.4596 12.4301 46.4641 12.5337C46.4686 12.6372 46.4538 12.7917 46.4679 12.8698C46.2941 13.3286 46.1916 13.945 46.0882 14.372L46.0195 14.3609C45.9751 14.8244 45.6463 15.2689 45.3607 15.715C45.3158 15.7565 45.2103 15.8043 45.1268 15.9477C45.054 16.2551 44.9626 16.381 44.757 16.7697C44.6656 16.8956 44.5293 17.0629 44.3851 17.2127C44.2409 17.3624 44.0967 17.5122 43.9542 17.619C43.2325 18.6005 42.2114 19.2953 41.214 20.0427L41.1023 20.03C40.6459 20.4268 40.0538 20.7583 39.4891 21.0564C38.9244 21.3545 38.3358 21.6 37.8942 21.8423L37.9346 21.6973C37.6372 21.7898 37.2739 22.0178 37.384 22.0735C37.069 22.1739 36.6529 22.4258 36.4294 22.4004C36.1144 22.5008 36.0678 22.5853 35.8136 22.6793C35.1598 22.8277 34.9407 22.9058 34.338 23.0733L34.4947 23.0446C34.5571 22.9952 34.5588 22.9522 34.4022 22.9809C34.1911 23.0765 33.5583 23.1309 33.8136 23.2264C33.1378 23.2792 32.2808 23.5408 31.6101 23.4646C31.6691 23.5012 31.5045 23.5124 31.4342 23.5443C30.8287 23.5652 30.2028 23.4476 29.7109 23.4382C29.6088 23.4 29.8772 23.384 29.6281 23.349C29.4732 23.3348 29.6088 23.4 29.4363 23.3937C28.9381 23.3238 28.4354 23.1504 28.0048 22.902C27.5663 22.6362 27.1823 22.3034 26.859 21.9643L26.644 21.7238L26.4563 21.4499C26.3911 21.3528 26.3514 21.2652 26.2862 21.1681C26.2386 21.063 26.1813 20.9833 26.1513 20.8702C25.9688 20.4673 25.8821 20.0421 25.8466 19.6359C25.8031 19.2122 25.8458 18.7917 25.9141 18.3807C26.0079 17.9793 26.1273 17.5874 26.2801 17.2226L26.296 17.2576C26.3494 17.0012 26.5419 16.7239 26.7327 16.4897C26.9234 16.2555 27.1301 16.0563 27.2249 15.8444C27.3402 15.7711 27.6172 15.54 27.5786 15.642C27.7148 15.4747 27.9804 15.3121 28.262 15.1846C28.4027 15.1208 28.5611 15.0491 28.7018 14.9853C28.7722 14.9534 28.8426 14.9216 28.9306 14.8817C29.0009 14.8498 29.0713 14.8179 29.1417 14.786C29.0889 14.81 29.0537 14.8259 29.0009 14.8498C29.594 14.7078 30.1105 14.5372 30.7653 14.5784C30.7045 14.5848 30.5831 14.5976 30.5558 14.631C30.6756 14.6612 30.8243 14.615 30.9457 14.6022C31.0847 14.5814 31.1886 14.5766 31.2634 14.6483C31.3928 14.653 31.3611 14.5829 31.2748 14.5798C31.9631 14.648 32.6735 14.8118 33.3452 15.0776C34.017 15.3433 34.6404 15.7365 35.1918 16.2046C35.5388 16.5963 35.494 16.6378 35.4667 16.6712C35.4316 16.6872 35.3981 16.6601 35.7072 16.9212C35.739 16.9913 35.7935 16.9244 35.7662 16.9578C35.8746 17.0565 35.9301 17.1792 35.9602 17.2922C35.9902 17.4053 36.0299 17.4929 36.1223 17.5566C36.153 17.4371 36.2483 17.6473 36.301 17.6234C36.3645 17.7636 36.4298 17.8607 36.4774 17.9658C36.517 18.0534 36.5567 18.141 36.5885 18.2111C36.6599 18.3688 36.7154 18.4914 36.8714 18.6952L36.8028 18.6841C37.1737 19.1283 37.3379 19.7718 37.6146 20.1954C38.064 21.7021 38.1489 23.2471 38.0631 24.7428C37.9773 26.2385 37.7287 27.7025 37.3603 29.1362C36.5902 31.9765 35.4801 34.6752 33.8339 37.1734C33.3548 37.7073 33.3275 37.7407 32.947 38.3985C32.9487 38.3556 32.976 38.3222 32.9232 38.346C32.9885 38.4433 32.6201 38.8003 32.6501 38.9133C31.9925 39.8022 31.3816 40.607 30.622 41.4578C30.7309 41.3238 30.7361 41.195 30.5998 41.3621L30.5049 41.574L30.4618 41.5724C30.3705 41.6984 30.3125 41.8513 30.4374 41.7525C29.5125 42.8473 28.4635 43.808 27.3571 44.6891C26.2506 45.5706 25.1046 46.3642 23.9173 47.1131C23.626 47.2663 23.2724 47.4686 22.9268 47.6888C22.5731 47.8911 22.2098 48.119 21.9089 48.2975C20.9237 48.7438 19.9851 49.1057 19.0206 49.4581C18.0564 49.8104 17.0939 50.1199 16.061 50.4611C16.061 50.4611 16.1077 50.3768 16.2678 50.2619C16.501 50.2619 16.7568 50.1248 17.1696 49.9589Z" fill="#FC5185"/>
<path d="M41.6069 2.1472C41.6465 2.23479 41.857 2.37168 41.651 2.33831C41.6448 2.27779 41.5541 2.17111 41.6069 2.1472Z" fill="#FC5185"/>
<path d="M45.4891 7.15114C45.5067 7.14318 45.5112 7.2467 45.5015 7.27221C45.4698 7.20213 45.4028 7.14799 45.3966 7.08746C45.4284 7.15754 45.4556 7.12409 45.4891 7.15114Z" fill="#FC5185"/>
<path d="M45.9417 8.67145C45.8906 8.65233 45.7733 8.34657 45.7212 8.13792C45.783 8.32107 45.8799 8.48827 45.9417 8.67145Z" fill="#FC5185"/>
<path d="M45.9797 10.1588C45.949 10.2783 45.9155 10.2512 45.9224 10.0792C45.94 10.0713 45.9462 10.1318 45.9797 10.1588Z" fill="#FC5185"/>
<path d="M46.0903 10.2533C46.1027 10.3744 46.0658 10.4334 46.0544 10.5019C46.0896 10.4859 46.0057 10.2072 46.0903 10.2533Z" fill="#FC5185"/>
<path d="M45.5752 13.3797C45.5638 13.4482 45.5393 13.6282 45.4769 13.6776C45.5314 13.6106 45.5434 13.3096 45.5752 13.3797Z" fill="#FC5185"/>
<path d="M45.1304 14.7874C45.1031 14.8208 45.0935 14.8463 45.0742 14.8973C45.0197 14.9642 45.0231 14.8782 45.0521 14.8017L45.1304 14.7874Z" fill="#FC5185"/>
<path d="M28.7188 16.0078C28.666 16.0317 28.6387 16.0652 28.5939 16.1066L28.5956 16.0636C28.6484 16.0397 28.6835 16.0238 28.7188 16.0078Z" fill="#FC5185"/>
<path d="M37.1094 21.6094C37.1632 21.775 37.0787 21.7289 37.0866 21.7464C37.0487 21.6158 37.136 21.8085 37.1094 21.6094Z" fill="#FC5185"/>
<path d="M36.9068 28.1818L36.9085 28.1388L37.0106 28.177L36.9068 28.1818Z" fill="#FC5185"/>
<path d="M18.4069 45.3849C18.4087 45.3416 18.3205 45.3815 18.3911 45.3496C18.4165 45.3593 18.4324 45.3941 18.4069 45.3849Z" fill="#FC5185"/>
<path d="M19.8135 52.2829C19.591 52.4472 19.4639 52.1668 19.2704 52.2545C19.2529 52.2625 19.3187 52.127 19.266 52.151C19.0453 52.272 18.8364 52.0923 18.6882 51.9059L18.7157 51.8724C18.6821 51.8453 18.6003 51.9457 18.567 51.9187C18.5766 51.8931 18.5942 51.8851 18.5782 51.8502C18.5495 51.9267 18.5001 51.8644 18.4631 51.9234C18.4471 51.8885 18.4666 51.8375 18.4682 51.7946L18.4218 51.8789C18.3109 52.0559 18.2686 51.8217 18.1532 51.895C18.163 51.8693 18.1807 51.8616 18.1727 51.844C17.9968 51.9237 17.8435 51.8662 17.6709 51.8601C17.6808 51.8347 17.6999 51.7835 17.7018 51.7405C17.6728 51.8171 17.6199 51.8409 17.5768 51.8394C17.5803 51.7535 17.4793 51.9048 17.4473 51.8348L17.4571 51.8091C17.4105 51.8937 17.4078 51.747 17.3692 51.8489L17.3549 51.7711C17.3066 51.8984 17.3232 51.701 17.2784 51.7424L17.2688 51.768C17.2336 51.7837 17.2272 51.7233 17.1921 51.7393L17.1843 51.7216C17.106 51.7361 17.0916 51.6581 17.0785 51.7696C17.0819 51.6834 17.1489 51.7378 17.1446 51.6339C16.9176 51.6948 16.7212 51.6358 16.5328 51.5944C16.5168 51.5596 16.5091 51.5419 16.5107 51.499C16.4931 51.507 16.4244 51.4959 16.4052 51.5468L16.3991 51.4863C16.3751 51.4338 16.3348 51.5787 16.3111 51.5261C16.3207 51.5005 16.3479 51.4672 16.3495 51.4243C16.2951 51.491 16.2616 51.4641 16.2088 51.4879C16.2184 51.4626 16.2184 51.4626 16.2282 51.4369C16.156 51.512 16.1515 51.4082 16.1067 51.4496L16.1259 51.3987C16.0687 51.3193 16.0952 51.5182 16.0459 51.4561C16.0635 51.4481 16.0732 51.4227 16.0654 51.4051C16.0011 51.4974 15.9167 51.4514 15.8639 51.4752L15.8736 51.4498C15.8128 51.4563 15.7715 51.4115 15.7008 51.4434C15.6852 51.4085 15.7238 51.3065 15.6631 51.313C15.65 51.4245 15.5496 51.3433 15.57 51.4816C15.5189 51.4628 15.452 51.4085 15.4168 51.4245C15.4441 51.3911 15.4139 51.2779 15.457 51.2794L15.443 51.2015C15.4622 51.1506 15.4762 51.2285 15.4701 51.1679C15.4525 51.1759 15.3822 51.2077 15.3742 51.1904C15.3198 51.2571 15.246 51.3751 15.1597 51.372C15.2045 51.3307 15.1903 51.2525 15.2255 51.2365C15.1711 51.3034 15.0909 51.3609 15.0189 51.4357C14.9934 51.4264 15.0656 51.3513 15.0128 51.3751C15.003 51.4008 14.9678 51.4168 14.9406 51.4502C14.9326 51.4326 14.8015 51.4709 14.8753 51.3529C14.9025 51.3196 14.9281 51.3291 14.9379 51.3034C14.8948 51.3019 14.8674 51.3356 14.8245 51.334L14.8421 51.326C14.834 51.3084 14.7109 51.3643 14.6915 51.4153C14.7171 51.4248 14.7461 51.3482 14.7442 51.3912C14.6643 51.4486 14.586 51.4631 14.5172 51.452C14.5524 51.436 14.5875 51.42 14.6325 51.3785C14.4743 51.4504 14.3528 51.4631 14.2136 51.4838C14.1513 51.5332 14.372 51.4122 14.3368 51.4282C14.3386 51.385 14.2428 51.4075 14.1644 51.4217C14.0861 51.4362 14.0077 51.4505 14.0447 51.3914C14.0799 51.3757 13.9294 51.465 13.9567 51.4313C13.9136 51.4297 14.0463 51.3485 13.976 51.3804C14.0463 51.3485 13.9152 51.3868 13.8545 51.3933C13.7841 51.4251 13.8896 51.3773 13.9328 51.3788C13.8545 51.3933 13.6981 51.422 13.5862 51.4093C13.6133 51.3757 13.6583 51.3343 13.7207 51.2849C13.668 51.3089 13.556 51.2961 13.5912 51.2803L13.7048 51.25C13.7927 51.2102 13.7594 51.183 13.8729 51.1527C13.8122 51.1592 13.8025 51.1845 13.8183 51.2197C13.8262 51.237 13.8423 51.2722 13.7911 51.2531C13.9142 51.1972 13.6616 51.2485 13.8103 51.2022C13.8378 51.1687 13.7338 51.1734 13.8841 51.0842C13.8489 51.1002 14.0232 51.0635 14.0328 51.0379C14.0522 50.9869 13.9896 51.0364 13.9915 50.9934L13.9659 50.9838C13.8524 51.0141 14.0283 50.9344 13.8796 50.9807C13.9756 50.9585 13.9086 50.9041 14.0653 50.8754L14.1869 50.8627C14.1964 50.8371 14.075 50.8501 14.0238 50.831C14.0414 50.8229 14.0768 50.8068 14.1021 50.8165C13.9025 50.8436 14.1647 50.767 14.0449 50.737C14.168 50.6812 14.1714 50.595 14.293 50.5823C14.277 50.5474 14.2532 50.4946 14.3156 50.4452C14.3236 50.4628 14.306 50.4708 14.3492 50.4724C14.4196 50.4405 14.3764 50.439 14.386 50.4134C14.4116 50.423 14.5171 50.3751 14.5955 50.3609C14.5718 50.3083 14.503 50.2973 14.4521 50.278C14.5382 50.2812 14.5401 50.2382 14.5496 50.2126C14.5513 50.1697 14.5532 50.1267 14.6216 50.1379C14.6296 50.1552 14.6437 50.2334 14.6968 50.2095C14.8419 50.2491 14.6666 50.0962 14.7626 50.0739C14.729 50.0468 14.7035 50.0375 14.6701 50.0103C14.7386 50.0215 14.6656 49.9068 14.7661 49.988C14.7501 49.9529 14.8364 49.956 14.7439 49.8923C14.8652 49.8797 14.821 49.6886 15.0078 49.7728C14.9998 49.7553 15.035 49.7395 14.9841 49.7203C14.9329 49.7012 15.0078 49.7728 14.9566 49.7537C14.9566 49.7537 14.9409 49.7188 14.9154 49.7092C14.9585 49.7107 14.9681 49.6852 15.0254 49.7648C15.1117 49.7679 14.9109 49.6057 14.9988 49.5659C15.0323 49.5928 15.0576 49.6024 15.0499 49.5848L15.0103 49.4973C15.063 49.4733 15.1122 49.5354 15.1792 49.5897C15.1888 49.5641 15.1987 49.5387 15.157 49.494L15.2594 49.5322C15.1826 49.5036 15.2354 49.4798 15.2274 49.4622L15.2354 49.4798C15.261 49.4893 15.2706 49.4637 15.2626 49.4462C15.2293 49.4192 15.1941 49.435 15.1765 49.443C15.1606 49.4081 15.1781 49.4001 15.1625 49.3651C15.2293 49.4192 15.2229 49.3587 15.2405 49.3507C15.2581 49.3427 15.2088 49.2806 15.2088 49.2806C15.2424 49.3077 15.2363 49.2471 15.26 49.2997C15.268 49.3173 15.2168 49.2982 15.2327 49.333C15.2581 49.3427 15.3173 49.3794 15.2933 49.3269C15.2775 49.2917 15.1675 49.2361 15.2283 49.2296C15.2363 49.2471 15.2695 49.2741 15.2775 49.2917L15.3383 49.2852L15.2792 49.2488C15.3048 49.2583 15.3048 49.2583 15.3048 49.2583C15.2555 49.1962 15.3162 49.1897 15.2669 49.1276C15.2765 49.1021 15.3274 49.1213 15.345 49.1132C15.3881 49.1148 15.39 49.0718 15.3661 49.0193L15.3741 49.0369C15.3917 49.0289 15.4012 49.0033 15.3775 48.9507C15.4383 48.9445 15.5881 49.0878 15.5564 49.0177C15.5835 48.9841 15.483 48.9029 15.4498 48.8759C15.5202 48.8441 15.4724 48.7389 15.6017 48.7438C15.594 48.7262 15.5684 48.7166 15.5604 48.699C15.6403 48.6416 15.6121 48.4856 15.7669 48.4999C15.783 48.535 15.8261 48.5365 15.8594 48.5635C15.8181 48.519 15.9281 48.5746 15.8357 48.511C15.7768 48.4744 15.7688 48.4569 15.7257 48.4553C15.7371 48.3868 15.7739 48.3278 15.8426 48.3389C15.817 48.3294 15.8091 48.312 15.8011 48.2945C15.876 48.3661 15.921 48.3247 15.905 48.2895L15.8637 48.245L15.9322 48.2562C15.9242 48.2386 15.8318 48.175 15.9005 48.1861C15.9261 48.1956 15.9341 48.2132 15.9597 48.2227C15.9356 48.17 15.896 48.0826 15.9567 48.0761L16.0508 48.0968C16.0431 48.0792 16.0191 48.0267 15.984 48.0428C16.0623 48.0283 16.0895 47.9949 16.1662 48.0236C16.0789 47.8309 16.1527 47.7129 16.2169 47.6205L16.2502 47.6475C16.311 47.6413 16.2009 47.5854 16.2265 47.5949C16.2601 47.6221 16.3206 47.6157 16.3445 47.6681C16.4053 47.6619 16.3049 47.5807 16.3064 47.5375C16.2652 47.493 16.3225 47.5727 16.2633 47.536C16.2556 47.5186 16.3339 47.5041 16.2668 47.4501C16.2924 47.4597 16.3515 47.4961 16.3848 47.5233L16.3611 47.4708C16.4631 47.5088 16.4756 47.6298 16.6033 47.6777L16.6129 47.6521C16.7072 47.6727 16.6685 47.7747 16.7309 47.7253C16.7072 47.6727 16.6067 47.5915 16.5636 47.59C16.575 47.5214 16.3963 47.4547 16.433 47.3958C16.4842 47.4149 16.4138 47.4467 16.4903 47.4755C16.5591 47.4865 16.4842 47.4149 16.5194 47.3989C16.4762 47.3973 16.4093 47.3432 16.411 47.3003C16.4717 47.2939 16.4605 47.3623 16.5053 47.321C16.4717 47.2939 16.4656 47.2333 16.4049 47.2398C16.3044 47.1586 16.4576 47.2157 16.3827 47.1441C16.4595 47.1727 16.5149 47.2954 16.5852 47.2636C16.5087 47.2348 16.5376 47.1586 16.4099 47.1107C16.4275 47.1027 16.4867 47.1394 16.5279 47.1839C16.5887 47.1774 16.447 47.0517 16.5826 47.1169L16.5154 47.0629C16.541 47.0724 16.5586 47.0644 16.6098 47.0835C16.6194 47.0582 16.5541 46.9609 16.6641 47.0166C16.6565 46.9991 16.7013 46.9578 16.6069 46.9371C16.5464 46.9433 16.6388 47.0069 16.5288 46.9513C16.6229 46.972 16.548 46.9004 16.5321 46.8655L16.5656 46.8924C16.5576 46.875 16.5752 46.867 16.5338 46.8222C16.5419 46.8398 16.5928 46.859 16.5928 46.859L16.5338 46.8222C16.5275 46.7618 16.644 46.8781 16.6632 46.8272L16.6871 46.8796C16.6791 46.8621 16.7556 46.8908 16.7398 46.8556C16.6983 46.8112 16.6315 46.7571 16.5981 46.7299C16.5822 46.695 16.6746 46.7586 16.6253 46.6965L16.6746 46.7586C16.6826 46.7762 16.7767 46.7969 16.8041 46.7632C16.7881 46.7283 16.7308 46.6487 16.6957 46.6647C16.7053 46.6391 16.7484 46.6406 16.7898 46.6854C16.7916 46.6422 16.7308 46.6487 16.7072 46.5961C16.75 46.5977 16.8364 46.6008 16.9051 46.6119L16.988 46.7011L16.9976 46.6755C17.0549 46.7552 17.066 46.6867 17.1409 46.7584C17.1585 46.7504 17.1428 46.7154 17.1348 46.6978C16.9896 46.6582 16.985 46.5545 16.867 46.4813C16.8705 46.3954 17.1639 46.6215 17.0237 46.4526C16.9806 46.451 16.9153 46.354 16.9217 46.4145C16.9488 46.3809 16.8132 46.3157 16.8915 46.3012C16.9153 46.354 17.0368 46.3411 17.0765 46.4288C17.0429 46.4016 17.0334 46.4272 17.0413 46.4445C17.0925 46.4636 17.1593 46.5177 17.1865 46.4844C17.1962 46.4591 17.206 46.4334 17.1468 46.3967C17.088 46.3602 17.1453 46.4399 17.0781 46.3856C17.072 46.3253 17.182 46.3809 17.0816 46.2997C17.072 46.3253 16.9955 46.2965 16.9619 46.2694L16.9636 46.2265L16.9972 46.2537C17.0674 46.2216 16.9223 46.182 16.967 46.1404L17.0693 46.1786C17.1362 46.2327 16.9892 46.2361 17.1247 46.3012C17.152 46.2679 17.093 46.2311 17.1458 46.2073C17.1539 46.2249 17.1538 46.2246 17.1618 46.2422C17.1793 46.2342 17.3483 46.3266 17.2753 46.2119C17.2514 46.1595 17.2417 46.1848 17.1829 46.1483C17.2021 46.0974 17.1607 46.0526 17.1799 46.0017C17.2725 46.0656 17.2171 45.9429 17.2996 46.032C17.2311 46.0208 17.2021 46.0974 17.277 46.169C17.4045 46.2166 17.2322 46.2104 17.3422 46.266C17.3694 46.2327 17.4794 46.2883 17.5386 46.325C17.5562 46.3169 17.5227 46.2901 17.5146 46.2725C17.4557 46.2357 17.4381 46.2438 17.379 46.2073C17.424 46.1656 17.4176 46.1052 17.3683 46.0431C17.4115 46.0446 17.4704 46.0814 17.4608 46.1067C17.4723 46.0384 17.5091 45.9794 17.5795 45.9476C17.4598 45.9173 17.5909 45.879 17.4888 45.8407C17.4537 45.8568 17.3594 45.8361 17.318 45.7913C17.3357 45.7836 17.3689 45.8105 17.3945 45.8201C17.3452 45.758 17.5064 45.8327 17.4315 45.7611C17.4377 45.8216 17.5573 45.8519 17.6244 45.9059C17.5926 45.8361 17.6834 45.9427 17.7106 45.9093C17.6789 45.8392 17.6727 45.7786 17.692 45.7277C17.7958 45.7228 17.7577 45.5922 17.8028 45.5507C17.8633 45.5443 17.9381 45.616 17.9734 45.6002C17.9832 45.5745 17.8537 45.5699 17.9241 45.5381L17.932 45.5554C17.9161 45.5205 18.0375 45.5076 17.9118 45.417L18.0043 45.4806C18.0219 45.4726 17.9963 45.463 17.9882 45.4455C18.0219 45.4726 18.0648 45.4742 18.0728 45.4918C18.1591 45.4949 18.0842 45.4232 18.1114 45.3899L18.0427 45.3788C18.0286 45.3006 18.107 45.2864 18.1087 45.2431L18.1677 45.2799L18.144 45.2274C18.2028 45.2639 18.246 45.2654 18.2047 45.2209L18.3014 45.3881C18.2585 45.3864 18.2521 45.326 18.1756 45.2972C18.1245 45.2784 18.1053 45.3293 18.1641 45.3658C18.1817 45.3578 18.1738 45.3405 18.158 45.3052C18.2425 45.3516 18.2329 45.3769 18.2743 45.4217C18.2662 45.4041 18.3094 45.4057 18.2838 45.3961C18.3254 45.4408 18.3158 45.4661 18.2883 45.4996C18.2726 45.4646 18.2375 45.4806 18.2119 45.4711C18.2787 45.5252 18.2947 45.56 18.242 45.5841C18.1476 45.5634 18.2465 45.6876 18.2014 45.729C18.1346 45.6749 18.0853 45.6128 18.0869 45.5699C18.0263 45.5761 18.0773 45.5953 18.0165 45.6017C18.0581 45.6462 18.1505 45.7098 18.1487 45.7531L18.0898 45.7163C18.0959 45.7769 18.1726 45.8055 18.1452 45.839C18.0828 45.8883 18.0361 45.9727 17.9914 46.0143L17.9325 45.9776C18.0407 46.0764 17.9096 46.1147 17.9416 46.1847C17.8534 46.2247 17.8994 46.3726 17.7875 46.36C17.7472 46.5048 17.7245 46.6419 17.6251 46.7503L17.5503 46.6786C17.5995 46.7407 17.4991 46.6595 17.4975 46.7024C17.5659 46.7136 17.5548 46.7821 17.596 46.8266C17.5001 46.8491 17.5302 46.9622 17.5444 47.0403L17.4854 47.0035C17.5584 47.1182 17.4292 47.1135 17.3746 47.1805C17.3493 47.1709 17.2981 47.1518 17.2884 47.1771C17.3535 47.2744 17.3359 47.2825 17.3503 47.3605C17.3228 47.3939 17.2605 47.4433 17.2077 47.4671C17.2423 47.6839 17.0662 47.7636 17.0496 47.961L16.9732 47.9325C17.0077 48.149 16.7788 48.2528 16.7641 48.4072L16.6637 48.326C16.6029 48.3325 16.625 48.4279 16.7094 48.474C16.649 48.4804 16.7044 48.603 16.6024 48.565C16.5496 48.5888 16.6164 48.6429 16.6149 48.686C16.5267 48.7259 16.525 48.7688 16.4783 48.8532L16.4959 48.8452C16.4883 48.8278 16.4291 48.7911 16.4115 48.7991C16.4274 48.834 16.3219 48.8818 16.4496 48.9297C16.328 48.9424 16.3803 49.1511 16.2331 49.1543C16.2667 49.1814 16.2745 49.1991 16.2824 49.2164C16.2281 49.2833 16.1242 49.2883 16.1287 49.3918C16.1031 49.3822 16.0794 49.3297 16.0697 49.355C16.0775 49.3727 16.1031 49.3822 16.1191 49.4174C16.1041 49.5718 15.8965 49.5814 15.8403 49.6913C15.771 49.9128 15.6188 50.045 15.5082 50.2219L15.4826 50.2123C15.538 50.335 15.2908 50.2571 15.4052 50.4162C15.3797 50.4066 15.3605 50.4575 15.3189 50.4131C15.327 50.4307 15.3173 50.456 15.2997 50.464C15.2822 50.472 15.2822 50.472 15.2822 50.472C15.2646 50.4801 15.239 50.4705 15.2803 50.515C15.2803 50.515 15.2803 50.515 15.2725 50.4974C15.1862 50.4943 15.2707 50.5406 15.1843 50.5373C15.1667 50.5453 15.1591 50.5279 15.1335 50.5184C15.0471 50.515 15.2611 50.566 15.0807 50.5422L15.1667 50.5453C15.114 50.5694 15.1044 50.5947 15.1124 50.6123C15.1204 50.6298 15.146 50.6394 15.1712 50.6488C14.9954 50.7287 14.7331 50.805 14.8994 50.751C14.8466 50.7748 14.9954 50.7287 14.9346 50.7349C15.013 50.7207 14.618 50.8785 14.7411 50.8226C14.7939 50.7988 14.8115 50.7908 14.8291 50.7828C14.8643 50.767 14.8643 50.767 14.9346 50.7349C14.8547 50.7923 14.7316 50.8482 14.8802 50.8019L14.7923 50.8417C14.9154 50.7858 14.9585 50.7874 15.0113 50.7636C15.0465 50.7476 15.1073 50.7413 15.2048 50.6759C15.3949 50.6744 15.2611 50.566 15.8199 50.6296C16.2222 50.7217 16.628 50.7278 17.0014 50.8967C17.0647 51.0367 17.0824 51.0289 17.1958 50.9984C17.1863 51.024 17.1863 51.024 17.1765 51.0497C17.1975 50.9555 17.2452 51.0608 17.2838 50.9586C17.4371 51.016 17.5663 51.0207 17.7293 51.0524C17.7115 51.0605 17.6651 51.1448 17.7003 51.129L17.7371 51.0701L17.7274 51.0954C17.7451 51.0876 17.7898 51.046 17.7741 51.011C18.1797 51.0173 18.5048 51.3134 18.8816 51.3962C18.9564 51.4679 19.1035 51.4644 19.1895 51.4676C19.4318 51.6748 19.6487 51.8721 19.9679 51.8753C20.0571 52.0247 19.9351 52.2702 19.8135 52.2829Z" fill="#FC5185"/>
<path d="M18.3836 45.4386C18.3324 45.4195 18.2973 45.4355 18.2479 45.3731C18.2893 45.4179 18.3324 45.4195 18.3836 45.4386Z" fill="#FC5185"/>
<path d="M17.4826 45.9699C17.4906 45.9875 17.465 45.978 17.4394 45.9684C17.4394 45.9684 17.3981 45.9236 17.4412 45.9251C17.4492 45.9427 17.4746 45.9524 17.4826 45.9699Z" fill="#FC5185"/>
<path d="M17.3582 46.1599C17.3247 46.133 17.3186 46.0725 17.3281 46.0469L17.3582 46.1599Z" fill="#FC5185"/>
<path d="M17.0751 46.2401C17.032 46.2386 17.0239 46.221 17.0338 46.1956C17.0592 46.2052 17.0671 46.2226 17.0751 46.2401Z" fill="#FC5185"/>
<path d="M17.1683 46.3044C17.1587 46.33 17.1331 46.3205 17.1076 46.3109C17.1331 46.3205 17.1014 46.2504 17.1683 46.3044Z" fill="#FC5185"/>
<path d="M16.8026 46.6166C16.8026 46.6166 16.8263 46.6691 16.7754 46.6499C16.8263 46.6691 16.7613 46.5718 16.8026 46.6166Z" fill="#FC5185"/>
<path d="M16.7553 46.8542C16.7201 46.87 16.7042 46.8351 16.7042 46.8351L16.7553 46.8542Z" fill="#FC5185"/>
<path d="M14.6577 50.1289L14.6596 50.0859L14.6931 50.1128L14.6577 50.1289Z" fill="#FC5185"/>
<path d="M14.3737 51.5648C14.4441 51.533 14.3466 51.5984 14.3542 51.6158C14.3113 51.6142 14.4169 51.5663 14.3737 51.5648Z" fill="#FC5185"/>
</g>
<defs>
<clipPath id="clip0_6097_2070">
<rect width="39.6787" height="46.385" fill="white" transform="translate(43.5938 0.632812) rotate(68.7879)"/>
</clipPath>
</defs>
</svg>
