<svg width="50" height="64" viewBox="0 0 50 64" fill="none" xmlns="http://www.w3.org/2000/svg">
<path d="M1.78522 1.09692C1.32565 1.37013 1.87377 1.46667 1.60339 1.71272C1.60032 1.74084 1.86858 1.64625 1.81421 1.70682C1.4752 1.96922 1.76304 2.17557 2.1152 2.31758L2.18532 2.28712C2.25612 2.2947 2.01322 2.42036 2.05735 2.45354C2.10226 2.43765 2.14833 2.42521 2.19513 2.4162C2.04689 2.46196 2.1466 2.51061 2.03663 2.55573C2.09799 2.5623 2.22163 2.52321 2.29243 2.53079L2.1227 2.59805C1.72733 2.76434 2.19706 2.7482 2.00453 2.89354C2.03937 2.87757 2.0759 2.86553 2.11347 2.85774C1.8996 3.06717 1.99549 3.23863 1.94198 3.42256C2.02061 3.39527 2.10115 3.37381 2.18296 3.3583C2.00487 3.41509 1.9694 3.47775 1.94489 3.52728C2.13879 3.50063 1.79319 3.64846 1.92853 3.67717L1.97359 3.65838C1.7872 3.74748 2.10095 3.67192 1.87424 3.7804L2.02415 3.76334C1.76644 3.84954 2.17994 3.77998 2.05325 3.84702L2.00128 3.84146C1.94323 3.89214 2.08157 3.85 2.04187 3.90739L2.07483 3.91092C2.02314 3.99073 2.17624 3.98829 1.96982 4.04205C2.14382 4.02275 2.03153 3.95843 2.27786 3.93265C2.22581 4.03915 2.19884 4.15615 2.19915 4.2745C2.19947 4.39286 2.22704 4.50941 2.27965 4.61557C2.34517 4.62316 2.41141 4.62087 2.47617 4.60836C2.43904 4.64232 2.46596 4.70202 2.3607 4.74764C2.40048 4.74165 2.44113 4.74601 2.4787 4.76028C2.56837 4.76988 2.26721 4.86081 2.37001 4.8813C2.42961 4.84489 2.49555 4.81994 2.56436 4.80742C2.41202 4.89067 2.45093 4.92787 2.41123 4.98526C2.44673 4.96421 2.48545 4.94931 2.5259 4.94081C2.35787 5.03662 2.5895 5.01403 2.48641 5.0836L2.6011 5.03892C2.76157 5.0561 2.35756 5.12654 2.45934 5.1564C2.4999 5.13431 2.54347 5.11826 2.5887 5.10867C2.38508 5.22437 2.48327 5.28695 2.42266 5.36107C2.43852 5.36114 2.45439 5.36284 2.46991 5.36613C2.46274 5.43173 2.54462 5.46902 2.44891 5.55835C2.51027 5.56492 2.73547 5.47045 2.70892 5.53872C2.47214 5.6082 2.64157 5.67372 2.36539 5.71054C2.41793 5.7541 2.5313 5.80893 2.45807 5.86747C2.54444 5.81982 2.75574 5.80924 2.76558 5.76288L2.91499 5.7504C3.01398 5.71832 2.87246 5.74602 3.00131 5.70292C2.99875 5.72635 2.9219 5.8177 2.96387 5.82693C2.83093 5.90753 2.57016 6.02169 2.56197 6.09667C2.64465 6.03914 2.82659 6.03503 2.85849 6.00525L2.43334 6.22528C2.43026 6.2534 2.61986 6.17887 2.5655 6.23943C2.51626 6.25603 2.46901 6.27797 2.42464 6.30491C2.45296 6.30795 2.41245 6.41743 2.6246 6.3548C2.72206 6.33679 2.66327 6.30672 2.75448 6.30226C2.74988 6.34444 2.68488 6.37078 2.69495 6.40979L2.72329 6.41282C2.76577 6.41738 2.6496 6.51852 2.51017 6.52729C2.51017 6.52729 2.6522 6.49527 2.57669 6.48718C2.50117 6.4791 2.42549 6.60369 2.43083 6.64219C2.4827 6.61603 2.53627 6.59318 2.59111 6.57393C2.48319 6.64023 2.39297 6.73147 2.32813 6.8398C2.21445 6.87504 2.52346 6.75631 2.46006 6.76849C2.63941 6.78769 2.29233 6.99255 2.53189 6.985C2.49018 6.99386 2.44909 7.00511 2.40881 7.01906C2.43354 7.05489 2.59226 7.00076 2.54097 7.0332C2.63423 7.00999 2.53631 7.07557 2.49918 7.10953C2.46205 7.14348 2.54642 7.11455 2.55052 7.07706C2.482 7.1361 2.38131 7.31489 2.52034 7.35349C2.46114 7.37085 2.31142 7.4734 2.32404 7.48897L2.46388 7.43287C2.55355 7.44247 2.45673 7.49848 2.60076 7.44753C2.43325 7.53864 2.70348 7.24993 2.58317 7.3461C2.70996 7.32174 2.37648 7.48987 2.57549 7.41634C2.5714 7.45384 2.42799 7.54279 2.5627 7.53351C2.5391 7.53099 2.75911 7.44078 2.75553 7.47359C2.75195 7.50639 2.68949 7.50906 2.65452 7.56696L2.6065 7.61391C2.46298 7.66017 2.64015 7.65552 2.47456 7.68521C2.59244 7.65516 2.4255 7.78426 2.65858 7.70491L2.84248 7.63917C2.83941 7.66729 2.65976 7.73831 2.58333 7.78228C2.61183 7.77936 2.6398 7.77276 2.66661 7.76272C2.38951 7.85158 2.70916 7.80998 2.49866 7.90123C2.61192 7.91336 2.54773 8.02023 2.72799 7.98737C2.65424 8.05059 2.56587 8.11692 2.63985 8.13907C2.66404 8.11479 2.69384 8.09686 2.7267 8.08678C2.81637 8.09638 2.74723 8.11739 2.71903 8.15704C2.81606 8.14766 2.91371 8.1454 3.01107 8.15034C2.90943 8.21018 2.79992 8.25605 2.68579 8.28636C2.97869 8.22764 2.54468 8.44185 2.80671 8.40346C2.84282 8.37892 2.92709 8.30736 3.00733 8.3159C3.295 8.26138 2.82104 8.44774 2.99146 8.46126L2.75571 8.52146C2.90612 8.49956 2.65161 8.6431 2.88469 8.56374C2.80355 8.60719 2.9838 8.57436 2.7539 8.66822C2.97101 8.69152 2.72681 8.91664 3.12713 8.83621C3.09574 8.86134 3.12255 8.87842 3.02304 8.91515C2.92353 8.95188 3.10623 8.85288 3.02714 8.87759C3.02714 8.87759 2.9612 8.91324 2.93135 8.92427C2.9927 8.93091 3.01634 8.93323 3.19597 8.86233C3.35172 8.879 2.83148 9.05105 2.94588 9.09649C3.04017 9.06391 3.07424 9.05794 3.06646 9.08555L2.92263 9.17916C2.97569 9.21805 3.14679 9.13688 3.30026 9.08696C3.29616 9.12444 3.29311 9.15263 3.18735 9.20288L3.39652 9.16838C3.24561 9.19484 3.30912 9.22543 3.27774 9.25056L3.30904 9.22543C3.37512 9.23248 3.34899 9.25338 3.33279 9.27054C3.27445 9.29276 3.21022 9.29442 3.15092 9.27493C3.08496 9.31059 3.11165 9.32759 3.03522 9.37162C3.18449 9.31648 3.15796 9.38472 3.18156 9.38729C3.20515 9.38978 3.05437 9.45893 3.0633 9.46465C3.07223 9.47037 3.08806 9.50039 3.19433 9.44533C3.19433 9.44533 3.10933 9.43646 3.17376 9.4149C3.23819 9.39334 3.38017 9.36117 3.28703 9.42701C3.19388 9.49293 2.98066 9.52211 3.09342 9.53895C3.12953 9.5144 3.18977 9.48754 3.24055 9.45976L3.33965 9.47037L3.19609 9.51681C3.23384 9.52087 3.24325 9.52178 3.26469 9.50031C3.12384 9.5659 3.25553 9.58488 3.08113 9.65155C3.07806 9.67966 3.19442 9.66366 3.21801 9.66623C3.30769 9.67576 3.26954 9.71913 3.20625 9.77402L3.23448 9.77701C3.23448 9.77701 3.22943 9.82377 3.16194 9.87344C3.27993 9.88604 3.69622 9.70304 3.5324 9.80404C3.52831 9.84152 3.29691 9.94956 3.19996 9.96291C3.32011 9.99948 3.11756 10.1486 3.35291 10.1358C3.30213 10.1636 3.26337 10.1689 3.23568 10.2038C3.32762 10.2801 3.14043 10.4638 3.44339 10.4442C3.4915 10.3972 3.58268 10.3927 3.66178 10.368C3.54504 10.4313 3.80229 10.3498 3.58809 10.4311C3.51244 10.4695 3.42827 10.4882 3.3434 10.4855C3.29644 10.5658 3.325 10.6543 3.45498 10.6445C3.40665 10.6498 3.36114 10.6697 3.3246 10.7015C3.52362 10.6281 3.5682 10.6565 3.50861 10.7213L3.3892 10.7655L3.52073 10.7416C3.48412 10.7709 3.27043 10.8475 3.3957 10.8372C3.44088 10.8222 3.48689 10.8098 3.53349 10.7999C3.44456 10.8709 3.28967 10.9776 3.40448 10.9757L3.59465 10.9391C3.55012 10.9869 3.48892 11.016 3.4235 11.0203C3.52405 11.0591 3.6331 11.0707 3.73969 11.0542C3.39851 11.2927 3.43819 11.4535 3.51189 11.5657L3.60204 11.5279C3.70115 11.5385 3.45066 11.6019 3.52196 11.6048C3.62239 11.5748 3.72062 11.5376 3.81583 11.4938C3.9291 11.506 3.67877 11.6119 3.65005 11.6562C3.53485 11.7055 3.71759 11.6065 3.56985 11.6476C3.52954 11.667 3.69252 11.6607 3.51085 11.7504C3.60532 11.7248 3.69707 11.6903 3.78477 11.6471L3.71157 11.7056C3.93584 11.6632 4.05964 11.4915 4.33366 11.4307L4.32956 11.4683C4.53023 11.4234 4.51728 11.3225 4.60809 11.3655C4.47813 11.4506 4.33405 11.5123 4.18243 11.5475C4.17373 11.6272 3.76091 11.7346 3.80197 11.7959C3.91462 11.77 3.80867 11.7349 3.96163 11.6896C4.11459 11.6443 3.90368 11.7829 3.95088 11.7879C3.84887 11.8022 3.75228 11.8425 3.67069 11.905C3.76508 11.9151 3.83241 11.8229 3.87129 11.8602C3.76605 11.9059 3.70543 11.98 3.61575 11.9704C3.38955 12.0742 3.70547 11.9799 3.52698 12.084C3.69882 12.0408 3.89605 11.896 3.99886 11.9165C3.83544 11.9701 3.80167 12.0612 3.55176 12.1199C3.65007 12.1093 3.74474 12.0774 3.82926 12.0264C3.93781 12.038 3.56138 12.2063 3.88351 12.0986L3.72325 12.1666C3.77517 12.1722 3.82242 12.1773 3.91773 12.1354C3.91517 12.1588 3.7278 12.3 3.97186 12.2077C3.97186 12.2077 3.96465 12.2733 3.80226 12.3175C3.63985 12.3617 3.91211 12.2297 3.67482 12.3039C3.87076 12.2584 3.66874 12.3601 3.6112 12.4061L3.71019 12.3738C3.6788 12.399 3.70509 12.4209 3.60927 12.4675C3.65301 12.4403 3.70218 12.4228 3.75333 12.4165L3.61195 12.4868C3.56077 12.5619 3.87437 12.401 3.84833 12.4646L3.9477 12.3852C3.9477 12.3852 4.06873 12.3697 4.03734 12.3947L3.64989 12.576C3.60599 12.6282 3.80707 12.5361 3.67936 12.6125L3.82853 12.5146C3.86885 12.4952 4.05433 12.4582 4.0644 12.4972C3.97992 12.572 3.87489 12.6202 3.76275 12.6355C3.76275 12.6355 3.86191 12.6463 3.953 12.5992C3.94635 12.6601 3.80482 12.6447 3.73528 12.7131C3.83274 12.6952 3.97627 12.6916 4.11201 12.6729L4.32145 12.5484L4.31887 12.5719C4.48741 12.4714 4.46133 12.535 4.64249 12.45C4.68025 12.4541 4.63694 12.5016 4.58093 12.5335C4.25868 12.5986 4.19035 12.743 3.90803 12.836C3.85952 12.9305 4.59481 12.6251 4.19125 12.8664C4.11318 12.8817 3.91941 12.9938 3.98003 12.9197C4.02887 12.9534 3.71669 13.0575 3.84987 13.0623C3.94926 12.9828 4.14387 12.994 4.28512 12.8811C4.19505 12.9189 4.20483 12.8725 4.22371 12.8745C4.33584 12.8533 4.49816 12.7665 4.51715 12.8112C4.53614 12.8559 4.50895 12.8861 4.36492 12.9371C4.22089 12.988 4.36999 12.8903 4.21396 12.9637C4.17694 13.0404 4.42004 12.9573 4.15302 13.0853C4.15762 13.0431 3.99418 13.0966 3.88945 13.1376L3.83926 13.2033L3.93977 13.1571C4.03888 13.1677 3.75808 13.2468 3.81011 13.2951L4.02606 13.2422C4.19727 13.1611 3.9126 13.1874 4.20539 13.086C4.23013 13.1219 4.08876 13.1922 4.1931 13.1985C4.1931 13.1985 4.19674 13.1656 4.24127 13.1515C4.28579 13.1372 4.64143 13.0283 4.43945 13.1726C4.3657 13.2359 4.33895 13.2189 4.2337 13.2645C4.22551 13.3395 4.12346 13.3998 4.12306 13.4471C4.32885 13.3553 4.16885 13.5088 4.36929 13.3786C4.23726 13.4071 4.21393 13.3146 4.3877 13.2099C4.56147 13.1053 4.33409 13.1757 4.58019 13.0646C4.60339 13.1145 4.84803 13.0172 5.01197 12.9589C5.01197 12.9589 4.96801 13.0112 4.94708 13.0279C4.79679 13.0924 4.79417 13.0732 4.63496 13.132C4.69745 13.1718 4.62115 13.2585 4.50186 13.3453C4.58809 13.3321 4.66933 13.2966 4.73748 13.2425C4.73016 13.2806 4.73583 13.3201 4.75368 13.3547C4.77153 13.3892 4.80055 13.4168 4.83603 13.4332C4.57196 13.4903 4.82579 13.5271 4.59106 13.5778C4.46584 13.5765 4.34229 13.6074 4.2326 13.6675C4.2326 13.6675 4.3374 13.6263 4.39609 13.6136C4.26786 13.6947 4.6251 13.5718 4.42671 13.6834C4.47993 13.5895 4.72307 13.5492 4.92783 13.4669C4.83736 13.5519 5.06769 13.4107 5.08196 13.4549C5.00637 13.5205 4.94546 13.6013 4.90327 13.6918C5.11503 13.6766 4.97287 13.8414 4.9856 13.8997C5.09199 13.8874 5.30403 13.7821 5.35491 13.7971C5.40581 13.8121 5.10872 13.8655 5.23143 13.8786L5.2723 13.8544C5.22521 13.8921 5.46096 13.8748 5.1526 14.0315L5.37941 13.9229C5.40774 13.9259 5.37581 13.9556 5.336 13.9704C5.40443 13.951 5.47001 13.923 5.53126 13.887C5.70629 13.8584 5.52256 13.9667 5.51847 14.0042L5.37185 14.0359C5.28878 14.1409 5.44335 14.1241 5.41526 14.2064L5.55087 14.1452L5.48601 14.214C5.61219 14.1516 5.71233 14.1529 5.60873 14.2271L5.90542 14.0028C5.81574 13.9932 5.75212 14.0955 5.60912 14.1371C5.4661 14.1786 5.50311 14.102 5.61985 14.0387C5.64817 14.0417 5.61674 14.0669 5.57489 14.1003C5.67886 14.0598 5.77654 14.0048 5.86493 13.9369C5.86493 13.9369 5.92627 13.9437 5.86134 13.9699C5.94924 13.9082 5.95227 13.8799 5.9417 13.8456C5.87841 13.9005 5.81853 13.8799 5.76724 13.9123C5.93744 13.8404 5.9719 13.7872 5.90788 13.7614C5.70248 13.8058 5.99873 13.629 5.92527 13.6021C5.80226 13.6635 5.68677 13.7385 5.58095 13.8259C5.48656 13.8158 5.58454 13.7932 5.47241 13.8143C5.60558 13.757 5.72969 13.6809 5.84086 13.5882L5.71623 13.6364C5.76587 13.5754 5.95077 13.5004 5.8972 13.4662C5.82395 13.4163 5.76541 13.3479 5.72779 13.268L5.59843 13.3157C5.85283 13.1723 5.65359 13.1604 5.75452 13.0669C5.59877 13.0502 5.80743 12.845 5.57372 12.8864C5.59316 12.7083 5.65832 12.5493 5.55887 12.4107L5.38606 12.506C5.50906 12.4291 5.27344 12.532 5.2917 12.496C5.44732 12.4699 5.46591 12.3864 5.5727 12.3267C5.40279 12.3085 5.52774 12.1703 5.63492 12.0632L5.50556 12.1109C5.72221 11.9634 5.48737 11.9715 5.4222 11.9124C5.35704 11.8533 5.241 11.9545 5.24879 11.9269C5.35553 11.8695 5.44765 11.7887 5.51813 11.6904C5.497 11.6607 5.46957 11.6356 5.43773 11.6175C5.40589 11.5993 5.37035 11.5884 5.33377 11.5853C5.55849 11.3201 5.31606 11.2229 5.4266 10.9977L5.27412 11.0384C5.53341 10.7627 5.17097 10.6717 5.28787 10.4756L5.03807 10.5769C4.94369 10.5668 5.05133 10.4551 5.25303 10.4008C5.15864 10.3907 5.33647 10.2486 5.11641 10.2962C5.05505 10.2895 5.21733 10.2025 5.23712 10.1525C5.10906 10.1009 5.1184 10.0592 5.13909 9.9571C5.0836 9.9843 4.97891 10.0252 4.95213 10.0081C5.01541 9.95329 4.84226 9.9207 5.16081 9.84574C4.95314 9.82352 5.23196 9.5877 4.9651 9.58281C5.04892 9.5586 5.05671 9.53115 5.11221 9.50387C5.08736 9.42535 4.88965 9.39939 5.01151 9.2892C4.96431 9.28414 4.87483 9.35993 4.8543 9.32925C4.83377 9.29865 4.96326 9.29359 5.00091 9.25495C5.11628 9.07286 4.7508 9.05255 4.75569 8.92029C4.84621 8.65976 4.69477 8.47303 4.6549 8.26961L4.59516 8.29146C4.80657 8.14815 4.30293 8.21286 4.62227 8.04317C4.55619 8.0361 4.57503 7.99544 4.46187 8.026C4.61205 7.9188 4.25762 7.92838 4.44072 7.78204C4.44072 7.78204 4.4407 7.78195 4.41352 7.81223C4.25305 7.79505 4.43099 7.65283 4.26837 7.61172C4.23983 7.63756 4.20677 7.65807 4.17094 7.67235C4.04351 7.65871 4.40802 7.51299 4.10363 7.58944C4.10363 7.58944 4.24872 7.52894 4.24247 7.5425C4.07171 7.40094 4.19898 7.15379 4.21206 6.94657C3.99166 6.86608 3.71853 7.09287 3.89576 6.9127C3.83913 6.90664 4.00997 6.87299 3.94605 6.88984C4.01508 6.82612 3.59336 6.92795 3.73842 6.86761C3.88348 6.80728 3.8347 6.8163 3.94838 6.78106C3.80042 6.73677 3.63219 6.74711 3.75098 6.665L3.65674 6.69751C3.90795 6.5395 3.73114 6.49693 4.03007 6.33928C3.95813 5.90486 4.0167 5.45586 3.93799 5.03968C3.76501 4.65607 3.79785 4.22343 3.51796 3.85683C3.23479 3.82652 3.23953 3.827 3.31674 3.68828C3.28854 3.70181 3.25859 3.7114 3.22772 3.71672C3.43516 3.65358 3.23637 3.63699 3.42493 3.57183C3.37161 3.42647 3.33847 3.27474 3.32628 3.12047C3.3227 3.15329 3.13986 3.20941 3.14816 3.17711L3.27484 3.11011L3.21354 3.10354C3.26983 3.05779 3.33979 3.03205 3.4125 3.03016C3.49363 2.59316 2.9707 2.30959 2.92822 1.91151C2.82109 1.84314 2.86633 1.69155 2.88805 1.58008C2.53567 1.3527 2.24414 1.13644 2.37269 0.789861C2.42194 0.776167 1.87864 0.940973 1.78522 1.09692Z" fill="#FC5185"/>
<path d="M33.8217 2.85225C33.2579 2.78766 33.5142 3.33559 33.0935 3.39144C33.0558 3.40569 33.331 3.53325 33.2363 3.55836C32.7584 3.56814 32.7292 4.04595 32.8173 4.48296L32.891 4.51566C32.905 4.59942 32.6488 4.52181 32.6412 4.59594C32.6337 4.67007 32.7105 4.62675 32.7755 4.65561C32.6326 4.5921 32.6502 4.71362 32.5361 4.67841C32.5745 4.73161 32.6813 4.79453 32.7201 4.85826L32.5555 4.78514C32.1415 4.64247 32.4522 5.01297 32.1822 5.0118C32.2201 5.01841 32.2559 5.03428 32.2861 5.05799C31.9459 5.10831 31.8314 5.37259 31.6127 5.53374C31.6891 5.56699 31.7602 5.61091 31.8241 5.66402C31.7784 5.63104 31.724 5.61218 31.6675 5.61007C31.611 5.60797 31.5551 5.62275 31.5069 5.65223C31.6568 5.78082 31.2968 5.6568 31.3444 5.78131L31.3832 5.7986C31.181 5.73972 31.4314 5.93368 31.2003 5.84649L31.3111 5.95778C31.0599 5.84615 31.3832 6.10877 31.2565 6.07831L31.209 6.05717C31.124 6.06078 31.2278 6.15338 31.1602 6.16469L31.1905 6.17817C31.0755 6.22523 31.168 6.35416 30.991 6.23937C31.1149 6.35643 31.1084 6.19852 31.2899 6.37217C30.9917 6.54017 30.7516 6.79375 30.6012 7.0995C30.6337 7.15926 30.6762 7.21293 30.7269 7.2585C30.6719 7.26506 30.6262 7.34307 30.5207 7.3117C30.5555 7.3351 30.5822 7.36841 30.597 7.40742C30.6328 7.5008 30.3644 7.33504 30.4092 7.44279C30.4799 7.45118 30.5464 7.48071 30.5997 7.52747C30.4278 7.48206 30.4076 7.56099 30.3279 7.58757C30.3706 7.59535 30.4107 7.61318 30.4449 7.63955C30.2454 7.59742 30.3884 7.76422 30.2713 7.75866L30.3839 7.8087C30.4545 7.97441 30.15 7.70487 30.176 7.81975C30.2227 7.83036 30.2667 7.84994 30.3058 7.87746C30.0698 7.82423 30.0634 7.97629 29.9519 8.00424C29.9682 8.01042 29.984 8.01746 29.9995 8.02538C29.9254 8.08547 29.9215 8.19755 29.7973 8.23024C29.8274 8.29012 30.0566 8.38151 29.9677 8.44013C29.7643 8.30323 29.7965 8.51915 29.5886 8.32338C29.5795 8.41235 29.586 8.57031 29.4794 8.56426C29.5704 8.60464 29.713 8.76094 29.7643 8.71658L29.8648 8.83897C29.9558 8.87943 29.8624 8.7757 29.9614 8.85589C29.9478 8.88598 29.8 8.91326 29.8167 8.9568C29.6519 8.9301 29.3861 8.82761 29.3211 8.90207C29.4301 8.91434 29.5365 9.07006 29.5896 9.06782L29.1272 8.9398C29.1155 8.96559 29.2868 9.04693 29.2043 9.0568C29.1608 9.02437 29.1104 9.00199 29.057 8.99137C29.083 9.0029 28.9308 9.07471 29.1259 9.21824C29.2008 9.2825 29.2017 9.20024 29.2515 9.27404C29.2262 9.33001 29.1478 9.2849 29.1095 9.33507L29.1396 9.3485C29.1481 9.39875 28.9842 9.39311 28.8988 9.28283C28.9105 9.25704 29.0152 9.37073 28.9682 9.31368C28.8383 9.25588 28.7657 9.30107 28.7274 9.35116C28.7836 9.36824 28.8374 9.3922 28.8877 9.42238C28.7459 9.39792 28.5998 9.41368 28.4664 9.46782C28.3581 9.41973 28.6571 9.5524 28.6148 9.50779C28.6863 9.6946 28.2889 9.59543 28.4336 9.80439C28.4336 9.80439 28.2999 9.70887 28.324 9.7247C28.348 9.74054 28.4511 9.86898 28.3745 9.86591C28.4653 9.90638 28.3265 9.8912 28.2783 9.90596C28.23 9.92064 28.3216 9.9252 28.3346 9.93092C28.2348 9.93308 27.9922 10.0322 28.0444 10.2155C27.9838 10.1885 27.7973 10.1521 27.79 10.1798L27.9285 10.2415C27.9889 10.3148 27.8636 10.3159 27.9707 10.3894C27.7839 10.3425 28.2341 10.2789 28.0678 10.267C28.1629 10.3558 27.8008 10.2363 27.9855 10.3339C27.9621 10.3855 27.7728 10.3323 27.8629 10.455C27.8629 10.455 28.0622 10.5436 28.0332 10.5617C28.0042 10.5798 27.9639 10.5308 27.8827 10.5723L27.804 10.5736C27.6697 10.5139 27.7728 10.6424 27.6697 10.514C27.7663 10.5879 27.5382 10.5744 27.7518 10.7002L27.9251 10.7773C27.9115 10.8074 27.7228 10.7183 27.6347 10.6946C27.6541 10.7175 27.6763 10.7378 27.7008 10.7551C27.4479 10.6014 27.6658 10.8324 27.4627 10.7525C27.51 10.8664 27.3867 10.9203 27.5023 11.044C27.3982 11.0443 27.2806 11.0281 27.297 11.1181C27.3324 11.1222 27.3656 11.1371 27.3923 11.1604C27.4445 11.2405 27.371 11.2077 27.3116 11.2123C27.3506 11.2297 27.4097 11.3748 27.4773 11.4668C27.3633 11.4419 27.2557 11.3941 27.1611 11.3264C27.3776 11.5259 26.9134 11.3559 27.1002 11.5526C27.1392 11.5699 27.2684 11.5601 27.3037 11.643C27.5202 11.8425 27.0603 11.6176 27.1362 11.7599L26.9412 11.6162C27.0478 11.7254 26.7575 11.6429 26.971 11.7689C26.8887 11.7323 26.9824 11.8929 26.7921 11.7618C26.8841 11.9835 26.5075 11.9763 26.8094 12.2861C26.7747 12.2707 26.782 12.3463 26.6768 12.2686C26.5716 12.1908 26.7795 12.2832 26.7002 12.2169C26.7002 12.2169 26.6309 12.1861 26.6049 12.1746C26.6268 12.2411 26.6218 12.2752 26.8076 12.3474C26.8821 12.5045 26.4153 12.2143 26.4299 12.3655C26.5166 12.404 26.5415 12.4409 26.5105 12.4633L26.3327 12.4307C26.2996 12.5039 26.4921 12.5842 26.6339 12.6731C26.5881 12.6941 26.5666 12.7414 26.4496 12.6894L26.5985 12.8433C26.492 12.734 26.4934 12.8226 26.4505 12.8138L26.4895 12.8312C26.5545 12.8601 26.4662 12.8828 26.4564 12.9043C26.4022 12.8647 26.3654 12.8058 26.3539 12.7399C26.289 12.711 26.2781 12.7579 26.19 12.7341C26.3372 12.7996 26.2502 12.854 26.2495 12.8898C26.2489 12.9257 26.111 12.8281 26.1017 12.8602C26.1753 12.8928 26.0743 12.9205 26.1927 12.9577C26.2188 12.9692 26.1411 12.888 26.2143 12.9102C26.2875 12.9324 26.379 13.0405 26.2596 13.0287C26.14 13.0169 25.997 12.85 26.0422 12.9682C26.0949 12.9858 26.1456 13.0084 26.1939 13.0356L26.2257 13.1375L26.0959 13.0798C26.1261 13.0933 26.1391 13.0991 26.1564 13.1068C26.0135 13.0433 26.0611 13.1678 25.9047 13.088C25.8911 13.1181 25.95 13.2062 25.945 13.2401C25.9953 13.3244 25.9042 13.3305 25.8141 13.3111L25.8445 13.3246C25.8445 13.3246 25.7916 13.3837 25.7035 13.3601C25.7695 13.467 26.1649 13.6738 25.9737 13.6249C25.9503 13.6766 25.6967 13.5587 25.6358 13.4749C25.665 13.617 25.3981 13.5861 25.536 13.787C25.4841 13.7639 25.4494 13.7485 25.4148 13.7331C25.3788 13.8928 25.0903 13.9093 25.2631 14.1824C25.3374 14.1792 25.3974 14.2419 25.4574 14.3048C25.3361 14.2509 25.5513 14.419 25.3532 14.3051C25.2416 14.2297 25.183 14.1983 25.1655 14.1337C25.1377 14.1383 25.1114 14.1497 25.089 14.1668C25.0666 14.1839 25.0489 14.2063 25.0373 14.2319C25.0257 14.2574 25.0207 14.2852 25.0227 14.3132C25.0247 14.3411 25.0335 14.3681 25.0485 14.3918C25.0333 14.3724 25.0135 14.357 24.9908 14.347C24.9682 14.3369 24.9434 14.3324 24.9186 14.334C25.0994 14.4402 25.0918 14.5145 25.0026 14.5161L24.8813 14.4622L24.9768 14.5615C24.9378 14.5442 24.7299 14.4518 24.8144 14.541C24.8541 14.5665 24.8916 14.5952 24.9264 14.6268C24.8068 14.6151 24.6141 14.5812 24.6758 14.686L24.8091 14.8281C24.776 14.831 24.7428 14.8253 24.7125 14.8118C24.6821 14.7983 24.6557 14.7775 24.6359 14.7511C24.682 14.8904 24.6591 14.9525 24.7806 15.0634C24.3504 14.991 24.2053 15.1847 24.1254 15.361L24.2164 15.4015C24.2626 15.4943 24.0561 15.3302 24.0929 15.3983C24.1297 15.4663 24.2412 15.5418 24.3591 15.5684C24.4044 15.6866 24.1654 15.5597 24.1021 15.5729C23.9852 15.5209 24.1899 15.586 24.0485 15.5078C24.0095 15.4904 24.0797 15.6456 23.908 15.5538C23.9856 15.6151 24.0705 15.6666 24.1608 15.7075L24.0582 15.6929C24.2203 15.8632 24.4666 15.802 24.6682 16.0001L24.6223 16.0211C24.7707 16.1646 24.8743 16.0505 24.8752 16.1748C24.7161 16.1457 24.569 16.0714 24.4518 15.9609C24.3518 16.0095 24.0188 15.7685 23.9856 15.8416C24.0677 15.9245 24.0535 15.7837 24.177 15.8903C24.3004 15.9968 24.0528 15.923 24.0747 15.9896C24.0393 15.9515 23.9965 15.9209 23.9489 15.8996C23.9012 15.8785 23.8498 15.8672 23.7975 15.8665C23.8438 15.9593 23.9664 15.9414 23.9458 16.0098C23.8419 15.9636 23.7401 15.97 23.6946 15.8981C23.465 15.7962 23.7158 16.0006 23.53 15.9284C23.6645 16.045 23.9111 16.0978 23.93 16.194C23.7896 16.0903 23.6794 16.1498 23.4968 16.0015C23.5572 16.0792 23.6407 16.136 23.7354 16.1642C23.8009 16.2606 23.4155 16.0893 23.6827 16.2804L23.5225 16.2092C23.5604 16.2519 23.5896 16.2908 23.6562 16.3617C23.6407 16.3962 23.3854 16.3395 23.6036 16.4778C23.5776 16.4663 23.5367 16.5567 23.4018 16.4296C23.3358 16.3227 23.5494 16.4485 23.3577 16.2858C23.506 16.4292 23.2898 16.3435 23.217 16.3318L23.2984 16.3937C23.2594 16.3763 23.247 16.4381 23.1494 16.3895C23.2007 16.403 23.2456 16.434 23.2763 16.4769L23.1334 16.4134C23.0237 16.437 23.3524 16.5728 23.2713 16.6142L23.4057 16.6276C23.384 16.618 23.4862 16.7253 23.4249 16.7342C23.295 16.6765 23.1348 16.6053 23.0352 16.561C22.9355 16.5168 23.1586 16.6676 23.0078 16.6213L23.1799 16.6667C23.2232 16.686 23.3585 16.8236 23.3221 16.8695C23.2858 16.9153 23.0562 16.8132 23.0189 16.7347C23.0072 16.7605 23.0508 16.8365 23.1524 16.8765C23.077 16.905 23.0274 16.7848 22.9271 16.7764C22.9938 16.8474 23.0694 16.9792 23.159 17.0913L23.394 17.17L23.3785 17.2043C23.556 17.2832 23.4844 17.3033 23.6688 17.3903C23.683 17.4277 23.604 17.4184 23.5486 17.4144C23.3197 17.1731 23.1155 17.2219 22.8968 17.0729C22.7693 17.1248 23.457 17.5131 23.0106 17.3612C22.9574 17.3066 22.7378 17.2402 22.8474 17.2165C22.8398 17.2907 22.5789 17.0971 22.6332 17.2298C22.7658 17.2474 22.8527 17.446 23.047 17.4651C22.956 17.4248 23.0096 17.3867 23.0395 17.3897C23.1153 17.475 23.2924 17.5434 23.2502 17.6021C23.208 17.6609 23.1698 17.6646 23.0472 17.5791C22.9247 17.4936 23.0727 17.5233 22.9384 17.4636C22.8422 17.5035 23.0504 17.6529 22.7814 17.523C22.8269 17.4915 22.6928 17.3854 22.5947 17.3262L22.4996 17.3408L22.6037 17.387C22.6195 17.5128 22.4174 17.3043 22.3913 17.3961L22.5531 17.5558C22.7263 17.6327 22.5548 17.3912 22.8067 17.5703C22.7794 17.6305 22.6427 17.5647 22.6742 17.6562C22.7001 17.6678 22.7204 17.6457 22.7547 17.6506C22.7888 17.6555 23.0824 17.915 22.8314 17.8603C22.7268 17.85 22.7318 17.816 22.6235 17.768C22.5432 17.8304 22.4291 17.7952 22.3777 17.8396C22.5813 17.9301 22.331 17.9427 22.5655 18.0108C22.4743 17.9135 22.5631 17.798 22.7643 17.8822C22.9669 18.0549 22.7713 17.7976 23.0147 17.9264C22.9816 17.9995 23.1975 18.1316 23.3379 18.2353C23.3281 18.2568 23.2637 18.2383 23.2338 18.2354C23.0865 18.1699 23.1082 18.1333 22.9664 18.0444C22.9577 18.1439 22.8333 18.166 22.6762 18.1221C22.7237 18.1897 22.8695 18.2699 22.9004 18.2475C22.8573 18.283 22.8229 18.3277 22.7999 18.3784C22.777 18.4291 22.766 18.4845 22.7679 18.54C22.5769 18.3414 22.6534 18.5976 22.4941 18.4441C22.4388 18.3272 22.3407 18.2357 22.2199 18.1879C22.2062 18.218 22.3237 18.2342 22.3601 18.2917C22.2215 18.2301 22.5184 18.4705 22.3153 18.3906C22.4413 18.3536 22.5982 18.5472 22.7829 18.6448C22.6445 18.6402 22.9171 18.7045 22.8734 18.7781C22.7568 18.7704 22.6402 18.7912 22.5336 18.8388C22.6456 19.0281 22.4019 19.049 22.3495 19.1187C22.4127 19.2088 22.6273 19.3094 22.6343 19.3744C22.6412 19.4395 22.4422 19.2013 22.4957 19.3129L22.539 19.3321C22.487 19.309 22.5862 19.5495 22.2884 19.3913L22.5223 19.4952C22.544 19.5048 22.4779 19.5013 22.448 19.4983C22.5005 19.5455 22.5611 19.583 22.627 19.6089C22.7474 19.7451 22.5451 19.6861 22.5087 19.7319L22.4041 19.6183C22.2497 19.6375 22.3339 19.7732 22.2426 19.8256L22.3768 19.8852L22.2727 19.8854C22.4025 19.9431 22.4469 20.0404 22.3328 20.0052L22.714 20.0711C22.6661 19.993 22.5495 19.998 22.4312 19.9145C22.313 19.8309 22.4212 19.7757 22.5472 19.8421C22.5316 19.8765 22.5336 19.8722 22.4522 19.8567C22.6228 19.9738 22.6384 19.9394 22.764 19.9952C22.764 19.9952 22.7859 20.0618 22.7445 20.0383C22.8397 20.0806 22.8829 20.0429 22.9193 19.9971C22.8296 19.9883 22.8223 19.9127 22.764 19.8921C22.9286 19.9652 22.9946 19.9686 22.9931 19.8801C22.8444 19.7262 23.1786 19.8383 23.1766 19.7393C23.0484 19.6785 22.9098 19.6415 22.7681 19.6302C22.7174 19.5354 22.7915 19.5787 22.7538 19.4897C22.8846 19.5603 23.0268 19.6076 23.1742 19.6298L23.0626 19.5544C23.1533 19.5379 23.3095 19.664 23.3307 19.5598C23.3569 19.4342 23.4029 19.3134 23.467 19.2019L23.3555 19.1266C23.6197 19.244 23.5488 19.0212 23.6978 19.0254C23.6586 18.8478 23.961 18.8583 23.7983 18.6775C24.0123 18.5772 24.187 18.4096 24.2953 18.2009L24.1134 18.1199C24.2476 18.1796 24.0313 18.037 24.0772 18.0161C24.1823 18.1403 24.2795 18.0749 24.396 18.1164C24.3273 17.9464 24.541 17.9227 24.7107 17.9155L24.5994 17.8399C24.861 17.8942 24.7375 17.6844 24.7684 17.5586C24.7208 17.5374 24.6336 17.4316 24.6626 17.4134C24.7898 17.4505 24.9242 17.4568 25.0547 17.4325C25.0961 17.3428 25.1032 17.2413 25.0747 17.147C25.4722 17.0963 25.4502 16.7661 25.7513 16.6416L25.6301 16.5413C26.0537 16.5023 25.97 16.0671 26.2362 15.9736L25.9892 15.8639C25.9574 15.7619 26.1362 15.769 26.29 15.889C26.2581 15.787 26.4929 15.8088 26.3335 15.6554C26.3257 15.5692 26.482 15.6489 26.5488 15.6166C26.5345 15.5585 26.5402 15.4974 26.5649 15.4428C26.5897 15.3883 26.632 15.3434 26.6853 15.3154L26.6696 15.3498C26.6133 15.3248 26.5093 15.2788 26.5159 15.23C26.6051 15.2283 26.5568 15.0363 26.8018 15.2536C26.7203 15.0315 27.1123 15.0506 26.9707 14.812C27.0486 14.8467 27.0659 14.8544 27.1222 14.8794C27.1946 14.7773 27.1179 14.5673 27.2964 14.564C27.2734 14.5228 27.1578 14.5025 27.1753 14.4637C27.1929 14.4251 27.2792 14.5099 27.3269 14.5311C27.5785 14.4466 27.4108 14.0932 27.5498 13.9586C27.8058 13.7496 28.0178 13.4927 28.1736 13.2025L28.1173 13.1774C28.3848 13.2188 28.0393 12.8327 28.3975 12.9608C28.3611 12.9034 28.4385 12.8706 28.3085 12.8128C28.5071 12.834 28.2988 12.5243 28.5568 12.5407C28.5568 12.5407 28.5567 12.5407 28.5178 12.5234C28.4636 12.3443 28.6896 12.3622 28.6697 12.188C28.6287 12.1901 28.5879 12.1808 28.5517 12.1613C28.4751 12.0549 28.8471 12.21 28.6141 12.0238C28.6258 11.998 28.7614 12.0892 28.7484 12.0835C28.8019 11.7817 29.1357 11.6304 29.3566 11.4186C29.3155 11.1419 28.9216 11.1272 29.2101 11.1107C29.1581 11.0876 29.3183 11.1588 29.262 11.1337C29.3701 11.1249 29.0231 10.857 29.1868 10.9091C29.3506 10.9613 29.2866 10.9535 29.3905 10.9997C29.3576 10.8196 29.2255 10.7094 29.4059 10.7017L29.3148 10.6613C29.6188 10.7137 29.5639 10.5134 29.8972 10.6047C30.3071 10.079 30.8102 9.64643 31.1965 9.11542C31.492 8.54403 31.9585 8.10032 32.1581 7.47603C32.0172 7.20155 32.0296 7.19686 32.2113 7.11743C32.168 7.09819 32.1594 7.09435 32.1247 7.07895C32.3142 7.18899 32.2061 6.99116 32.3908 7.08875C32.5062 6.88336 32.6398 6.68846 32.79 6.5065C32.7503 6.52506 32.5878 6.44764 32.6211 6.43146L32.7627 6.46333L32.7108 6.44027C32.748 6.43736 32.7853 6.44389 32.8194 6.45902C32.8535 6.47415 32.8831 6.4974 32.9056 6.52687C33.4028 6.10715 33.3657 5.3623 33.7413 4.87817C33.7449 4.70929 33.9226 4.58158 34.0402 4.49434C34.0495 3.94563 34.0749 3.4762 34.505 3.18165C34.5366 3.02003 34.0309 2.76955 33.8217 2.85225Z" fill="#FC5185"/>
<path d="M46.0164 28.8089C45.6294 28.4422 45.6783 28.9931 45.3654 28.7968C45.341 28.7823 45.4983 29.0347 45.4266 28.9978C45.0844 28.74 44.95 29.0725 44.9044 29.441L44.9508 29.5014C44.941 29.5725 44.7757 29.3701 44.757 29.4193C44.7823 29.4592 44.8054 29.5006 44.8262 29.5429C44.7447 29.4123 44.7236 29.5206 44.6429 29.4343C44.6592 29.4989 44.7171 29.6044 44.7285 29.6771L44.6225 29.532C44.3634 29.1917 44.493 29.6366 44.304 29.4916C44.3297 29.5191 44.3496 29.5515 44.3627 29.5867C44.1061 29.4347 43.9642 29.5595 43.7702 29.5599C43.8173 29.6271 43.8575 29.6986 43.8901 29.7736C43.794 29.6123 43.7247 29.5987 43.6661 29.586C43.7419 29.7627 43.5031 29.4895 43.5169 29.5856L43.5537 29.6073C43.4233 29.4477 43.5544 29.7342 43.4192 29.5277L43.4697 29.673C43.3255 29.4447 43.4835 29.8239 43.3915 29.7199L43.3678 29.6676C43.3027 29.6289 43.3573 29.7492 43.3263 29.7363C43.2449 29.6881 43.2603 29.8455 43.1837 29.6518C43.244 29.8084 43.2692 29.7026 43.3629 29.923C43.0672 29.8356 42.888 29.9766 42.7111 30.0861C42.7216 30.151 42.7387 30.2145 42.7624 30.2758C42.7217 30.2517 42.6728 30.2777 42.6076 30.1841C42.6076 30.1841 42.6444 30.2881 42.6411 30.3026C42.6378 30.3172 42.4937 30.1164 42.4986 30.2182C42.5466 30.2677 42.5847 30.3256 42.611 30.3891C42.4994 30.2626 42.4684 30.3046 42.4114 30.2709C42.4411 30.2995 42.4658 30.3327 42.4847 30.3693C42.3552 30.2266 42.4358 30.4502 42.334 30.3623L42.4007 30.4625C42.4137 30.624 42.2663 30.2455 42.2419 30.3684C42.2727 30.4016 42.2985 30.439 42.3185 30.4795C42.1654 30.3118 42.1229 30.4186 42.0366 30.3784C42.0494 30.3847 42.0616 30.392 42.0732 30.4002C42.0089 30.406 42.0072 30.5095 41.8825 30.4411C41.8866 30.4985 42.0308 30.6992 41.9526 30.6914C41.8393 30.4759 41.811 30.6513 41.7099 30.3882C41.6757 30.4448 41.6488 30.5718 41.5786 30.5138C41.6455 30.5863 41.6977 30.7929 41.745 30.788L41.7889 30.935C41.8419 31.0213 41.8135 30.8943 41.8518 31.005C41.8518 31.005 41.7335 30.935 41.7246 30.9956C41.6163 30.8819 41.4484 30.6562 41.3734 30.6612C41.459 30.7118 41.4867 30.9041 41.525 30.9323L41.221 30.5655C41.2006 30.5535 41.3058 30.7366 41.2471 30.6963C41.2232 30.6488 41.1912 30.6056 41.1527 30.5687C41.1527 30.5687 41.0426 30.5587 41.1494 30.7757C41.1852 30.8628 41.2023 30.807 41.2235 30.891C41.2064 30.9193 41.142 30.8428 41.1029 30.8526L41.1274 30.8671C41.1054 30.9035 41.0174 30.8018 40.971 30.6864C40.9832 30.6662 41.0313 30.8155 41.0361 30.725C40.9514 30.6089 40.8903 30.6002 40.8528 30.6164C40.8885 30.661 40.9212 30.7078 40.9506 30.7566C40.8604 30.6683 40.7501 30.603 40.6288 30.5661C40.5751 30.4628 40.7477 30.7354 40.7265 30.6789C40.7298 30.8566 40.4739 30.5568 40.5236 30.795C40.544 30.807 40.4519 30.6481 40.469 30.6747C40.4862 30.7013 40.5213 30.854 40.4691 30.812C40.5155 30.9 40.4324 30.7903 40.3998 30.771C40.3672 30.7516 40.4153 30.8186 40.4487 30.8C40.3713 30.7541 40.1791 30.6786 40.1726 30.845C40.1432 30.7837 40.0145 30.658 40.0048 30.6742L40.0821 30.8025C40.1074 30.8888 40.0169 30.8187 40.0781 30.9374C39.9526 30.7971 40.2882 31.0015 40.1725 30.9C40.2206 31.0218 39.99 30.7259 40.1 30.901C40.0829 30.9293 39.9493 30.7842 39.9852 30.9263C39.9974 30.9061 40.1106 31.0941 40.078 31.1022C40.0454 31.1104 40.0315 31.0418 39.9598 31.0322L39.9028 30.9985C39.8295 30.8726 39.8759 31.0429 39.805 30.8856C39.8605 30.9953 39.7007 30.8568 39.8229 31.0665L39.9208 31.2342C39.8502 31.165 39.7868 31.0888 39.7318 31.0069C39.7406 31.0347 39.752 31.0619 39.7659 31.0877C39.6258 30.8344 39.7342 31.1401 39.5956 30.9482C39.5998 31.0605 39.4882 31.0163 39.5558 31.1883C39.4743 31.14 39.4001 31.0522 39.392 31.1298C39.4193 31.1488 39.4421 31.1736 39.4587 31.2023C39.475 31.2944 39.4392 31.2346 39.3887 31.1992C39.413 31.2918 39.432 31.3855 39.4458 31.4801C39.3667 31.3949 39.3023 31.2975 39.2552 31.1914C39.3619 31.4634 39.0718 31.0827 39.1672 31.3371C39.2262 31.3805 39.2685 31.4426 39.2877 31.513C39.3944 31.785 39.1272 31.3573 39.1435 31.5043L39.0408 31.2898C39.0897 31.4286 38.9023 31.2077 39.0245 31.4174C38.9659 31.3497 39.0018 31.5193 38.8966 31.3087C38.9097 31.5251 38.6432 31.3069 38.7916 31.7024C38.759 31.6831 38.7695 31.7388 38.7003 31.6153C38.631 31.4919 38.7859 31.666 38.7354 31.6031C38.6849 31.5402 38.693 31.5451 38.6759 31.5185C38.6587 31.4919 38.6628 31.6042 38.7785 31.7606C38.7915 31.9222 38.5325 31.4444 38.5065 31.5608C38.4804 31.6773 38.5675 31.6795 38.5398 31.6796L38.4175 31.5521C38.3858 31.6047 38.4975 31.7588 38.5732 31.908C38.5407 31.8888 38.5105 31.9203 38.4347 31.826L38.5024 32.0254C38.4519 31.8801 38.4339 31.9464 38.4062 31.9191L38.4387 31.9383C38.4656 32.0037 38.4143 31.9787 38.4118 31.9827C38.3844 31.9268 38.3723 31.8647 38.3768 31.8026C38.332 31.7487 38.3198 31.769 38.2628 31.7078C38.3459 31.8448 38.2791 31.8272 38.2645 31.8514C38.2498 31.8757 38.1708 31.7409 38.1659 31.749C38.161 31.7571 38.1438 31.7855 38.2114 31.875C38.2318 31.887 38.1902 31.7911 38.2285 31.8468C38.2668 31.9024 38.3141 32.0347 38.2327 31.9589C38.1512 31.8832 38.0885 31.6757 38.0927 31.788C38.1293 31.8097 38.156 31.8752 38.1911 31.9179L38.1879 32.0147L38.1169 31.885C38.1259 31.9073 38.1371 31.9284 38.1504 31.9486C38.0624 31.8195 38.0616 31.94 37.9687 31.7915C37.9483 31.7794 37.9768 31.9064 37.9621 31.9306C37.9809 32.0186 37.9281 31.987 37.8531 31.9097L37.8776 31.9242C37.8776 31.9242 37.8254 31.9373 37.7757 31.8639C37.7945 31.9793 38.0291 32.36 37.9019 32.2133C37.8669 32.2255 37.7202 32.0014 37.6909 31.9126C37.6771 32.0362 37.4904 31.8598 37.5451 32.0899C37.5237 32.0495 37.4946 32.0136 37.4595 31.9841C37.3984 32.0853 37.1907 31.9348 37.2534 32.2247C37.3145 32.2609 37.3243 32.3545 37.3634 32.4272C37.2819 32.3239 37.4041 32.5612 37.2819 32.3789C37.2208 32.2603 37.1891 32.203 37.1915 32.144C37.194 32.0851 37.0204 32.1525 37.0489 32.2793C37.0391 32.231 37.0121 32.188 36.9731 32.1576C37.0781 32.3407 37.0529 32.3916 36.9886 32.3424L36.9251 32.2278L36.9683 32.3578C36.9315 32.3361 36.8265 32.1256 36.855 32.2523C36.8781 32.2914 36.8977 32.3326 36.9136 32.375C36.8321 32.2993 36.7042 32.1631 36.7302 32.2664L36.7931 32.4463C36.7653 32.4287 36.7417 32.4054 36.724 32.3778C36.7063 32.3501 36.6948 32.3192 36.6904 32.2868C36.6822 32.4193 36.6521 32.4507 36.7148 32.6033C36.4247 32.305 36.3075 32.3619 36.1747 32.4535L36.2235 32.5375C36.2374 32.6336 36.1323 32.3955 36.1298 32.482C36.1723 32.5773 36.2221 32.6692 36.2789 32.7569C36.283 32.8693 36.1453 32.6394 36.094 32.6144C36.0427 32.5895 36.1552 32.6781 36.0745 32.5369C36.0379 32.5152 36.059 32.654 35.9727 32.4766C36.0121 32.5663 36.0604 32.6521 36.1169 32.7323L36.0314 32.6817C36.1063 32.8963 36.2969 32.9928 36.3938 33.2535L36.3613 33.2341C36.4339 33.4254 36.5315 33.4011 36.503 33.4941C36.3999 33.3797 36.3185 33.2476 36.2627 33.1044C36.1788 33.0876 36.0183 32.7123 35.9678 32.7593C36.002 32.8675 36.0296 32.7577 36.0907 32.9038C36.1518 33.0498 35.9971 32.8482 35.9938 32.9177C35.9642 32.8192 35.9095 32.7299 35.835 32.6586C35.8488 32.7547 35.9426 32.8103 35.9075 32.85C35.8489 32.7548 35.7674 32.7064 35.7657 32.6176C35.633 32.4071 35.7527 32.7033 35.6394 32.5428C35.7054 32.7083 35.8772 32.8816 35.8715 32.9826C35.7982 32.8292 35.7037 32.8118 35.6092 32.5745C35.6321 32.6683 35.6755 32.7559 35.7363 32.8312C35.7599 32.9385 35.5245 32.5956 35.6924 32.9038L35.5995 32.7554C35.6206 32.8119 35.6281 32.8546 35.6573 32.9434C35.6452 32.9637 35.4699 32.7775 35.6133 33.0163C35.5889 33.0018 35.5457 33.0367 35.4781 32.8648C35.4593 32.7493 35.5791 32.963 35.4838 32.7362C35.5523 32.9251 35.4219 32.738 35.382 32.6759L35.4284 32.764C35.3918 32.7423 35.3811 32.769 35.3102 32.694C35.3433 32.7327 35.3668 32.7786 35.3787 32.8279L35.2948 32.7012C35.2133 32.653 35.4121 32.9464 35.3453 32.9288L35.4365 33.0159C35.4121 33.0014 35.4699 33.1346 35.4235 33.1016C35.3478 32.9797 35.2539 32.8419 35.1928 32.7508C35.1317 32.6597 35.2564 32.8928 35.1709 32.7871L35.2841 32.9202C35.3209 32.9419 35.3738 33.1381 35.3389 33.1503C35.252 33.0766 35.1896 32.9785 35.1603 32.8689C35.1603 32.8689 35.1571 32.9658 35.2206 33.0529C35.1636 33.0191 35.1546 32.915 35.0805 32.8545C35.1098 32.9433 35.1285 33.0861 35.1693 33.2201L35.3168 33.4065L35.3046 33.4267C35.4228 33.5791 35.3559 33.5614 35.4643 33.73C35.4496 33.7542 35.4194 33.7035 35.3747 33.6768C35.2704 33.3734 35.1147 33.3196 34.99 33.059C34.9004 33.0059 35.2874 33.7022 35.0047 33.337C34.9787 33.2611 34.841 33.0861 34.92 33.1385C34.8931 33.183 34.7578 32.8941 34.757 33.0419C34.8482 33.1289 34.8589 33.3219 34.9918 33.45C34.9428 33.3661 34.9852 33.3693 35.0235 33.3975C35.0618 33.4257 35.1653 33.6572 35.1253 33.6775C35.0855 33.6978 35.0487 33.6761 34.9802 33.5422C34.9118 33.4082 35.0275 33.5372 34.9338 33.3993C34.8646 33.3583 34.9674 33.6003 34.8077 33.3519C34.8403 33.3712 34.7767 33.2016 34.7229 33.0984L34.6536 33.0574L34.7122 33.1527C34.6918 33.2505 34.5998 32.9817 34.5452 33.0537L34.625 33.2603C34.7277 33.42 34.6683 33.1429 34.8044 33.4213C34.7824 33.4577 34.6845 33.3175 34.6903 33.4087C34.6903 33.4087 34.7229 33.4281 34.7474 33.4425C34.7718 33.457 34.9201 33.8249 34.7531 33.6436C34.6839 33.5751 34.6943 33.5484 34.6381 33.4491C34.5656 33.4501 34.4874 33.36 34.4426 33.3609C34.5574 33.5553 34.4034 33.4255 34.5395 33.5941C34.4939 33.4681 34.586 33.4349 34.7107 33.6131C34.8108 33.8593 34.7423 33.5606 34.876 33.788C34.8311 33.8164 34.9583 34.0456 35.0316 34.1989C35.0316 34.1989 34.9746 34.1651 34.9501 34.1506C34.8695 34.0094 34.8891 34.0044 34.8108 33.8592C34.7742 33.9198 34.6862 33.8732 34.5949 33.7312C34.6153 33.8156 34.6588 33.8927 34.7205 33.954C34.6819 33.9525 34.6437 33.9634 34.6117 33.985C34.5798 34.0066 34.5556 34.0378 34.5428 34.0739C34.458 33.8205 34.4508 34.0524 34.3709 33.8458C34.3587 33.7224 34.3133 33.6045 34.2397 33.5044C34.225 33.5287 34.296 33.6035 34.3132 33.6576C34.2195 33.5472 34.3831 33.8804 34.2503 33.6974C34.344 33.7529 34.4165 33.9718 34.5281 34.1532C34.4181 34.088 34.5991 34.283 34.5591 34.3033C34.486 34.2343 34.3985 34.1824 34.3025 34.1513C34.34 34.3548 34.1599 34.2316 34.1054 34.2487C34.129 34.3561 34.2585 34.5536 34.2463 34.6013C34.234 34.649 34.1533 34.3706 34.1525 34.491L34.1892 34.5127C34.1403 34.4838 34.1745 34.7018 34.0059 34.4041L34.1403 34.6211C34.1403 34.6211 34.1036 34.5994 34.0792 34.5849C34.1037 34.652 34.1384 34.7151 34.1819 34.7721C34.2349 34.9408 34.1046 34.7811 34.0695 34.7933L34.019 34.648C33.9049 34.5804 33.9358 34.7306 33.8544 34.7098L33.9252 34.8397L33.8438 34.7914C33.9195 34.9132 33.9335 35.0093 33.8577 34.915L34.116 35.1834C34.0972 35.0953 34.0051 35.0463 33.9496 34.9092C33.8942 34.7719 33.9734 34.7967 34.0491 34.9185C34.0345 34.9428 34.0491 34.9185 33.9799 34.8774C34.033 34.9758 34.0989 35.0667 34.1762 35.1476C34.1762 35.1476 34.1777 35.2091 34.1762 35.1476C34.2405 35.2243 34.2699 35.2306 34.3025 35.2225C34.2332 35.1815 34.2559 35.1071 34.2193 35.0579C34.3073 35.2144 34.3644 35.2482 34.3946 35.1617C34.3269 34.9624 34.533 35.2437 34.5567 35.1588C34.4829 35.043 34.3946 34.937 34.2936 34.8436C34.2838 34.75 34.3082 34.8194 34.3212 34.7336C34.3933 34.8589 34.4819 34.9741 34.5845 35.0763L34.5258 34.9538C34.595 34.9948 34.6878 35.1706 34.7155 35.1156C34.7567 35.0369 34.8195 34.9712 34.8964 34.9262L34.8378 34.8035C35.0049 35.0397 34.9991 34.8388 35.1009 34.9266C35.1172 34.7714 35.329 34.9518 35.2613 34.725C35.443 34.7447 35.6093 34.7717 35.7291 34.6559L35.6118 34.493C35.703 34.6075 35.5751 34.3889 35.6126 34.4001C35.6582 34.5535 35.7429 34.5599 35.8187 34.6542C35.8081 34.4886 35.9661 34.5931 36.0892 34.6825L36.0239 34.5615C36.2007 34.7542 36.1633 34.5233 36.2114 34.4529C36.2594 34.3825 36.1503 34.2793 36.1755 34.2833C36.2489 34.3797 36.3422 34.4593 36.4493 34.5169C36.4781 34.4927 36.5005 34.4618 36.5147 34.4272C36.5289 34.3925 36.5345 34.355 36.5308 34.3179C36.8323 34.4965 36.8917 34.2515 37.1369 34.331L37.0757 34.185C37.4016 34.3781 37.431 34.0275 37.6461 34.1109L37.5019 33.8826C37.5052 33.7856 37.633 33.8943 37.7113 34.067C37.7121 33.9741 37.8791 34.128 37.7992 33.9214C37.8334 33.8647 37.9174 33.9914 37.9582 34.0156C37.9965 33.8789 38.0388 33.882 38.1407 33.8874L38.1284 33.9078C38.0856 33.859 38.0564 33.8 38.0436 33.7365C38.117 33.78 38.1194 33.6113 38.2432 33.9098C38.24 33.7046 38.5139 33.9382 38.4788 33.6758C38.5016 33.7258 38.5351 33.7702 38.5772 33.8057C38.6522 33.7732 38.6465 33.572 38.7793 33.6727C38.7679 33.6275 38.6866 33.5516 38.7119 33.5282C38.7371 33.5047 38.7679 33.6275 38.8144 33.6605C39.0148 33.7408 38.983 33.3813 39.1125 33.3592C39.3839 33.4046 39.5493 33.2225 39.7489 33.1486L39.7171 33.0911C39.8947 33.2733 39.7424 32.7929 39.9705 33.0929C39.9542 33.0283 40.0071 33.0323 39.9403 32.9323C40.0731 33.0604 40.0039 32.7172 40.1815 32.872C40.1815 32.872 40.1815 32.8719 40.1448 32.8502C40.1514 32.6837 40.3111 32.8224 40.3249 32.6712C40.2937 32.646 40.2672 32.6154 40.2467 32.5809C40.2198 32.4606 40.4438 32.7857 40.3004 32.492C40.3004 32.492 40.386 32.6249 40.3713 32.6217C40.4862 32.4317 40.7575 32.5046 40.9644 32.4734C41.0035 32.2439 40.7232 32.0118 40.931 32.1623C40.9123 32.1018 40.9979 32.2624 40.9759 32.189C41.0573 32.2372 40.8699 31.8516 40.9751 31.9797C41.0801 32.1079 41.045 32.0652 41.0989 32.1685C41.1168 32.0198 41.0484 31.8584 41.1795 31.9526L41.1266 31.8662C41.3335 32.0822 41.3432 31.9014 41.5575 32.1602C41.9787 32.0032 42.4399 31.9633 42.8407 31.7942C43.1887 31.5389 43.6261 31.474 43.9243 31.1179C43.8909 30.8344 43.9031 30.8417 44.0635 30.8874C44.0309 30.8681 44.0188 30.8607 44.0164 30.8099C44.1255 30.9953 44.0945 30.7904 44.2021 30.9695C44.326 30.856 44.4849 30.8402 44.6315 30.7623C44.603 30.7454 44.4986 30.6068 44.5328 30.6051L44.629 30.7114L44.6037 30.6525C44.6636 30.6952 44.7064 30.7575 44.7244 30.8283C45.1807 30.7965 45.3338 30.2227 45.7256 30.0868C45.7672 29.9632 45.9285 29.9707 46.0401 29.9599C46.1779 29.5581 46.3148 29.2217 46.692 29.2475C46.5036 29.0521 46.2725 28.9021 46.0164 28.8089Z" fill="#FC5185"/>
<path d="M49.6101 54.6297C49.423 54.1148 49.0861 54.5967 48.8628 54.261C48.8395 54.2375 48.8516 54.5405 48.7923 54.4666C48.58 54.0612 48.1869 54.2693 47.8766 54.5551L47.8887 54.6351C47.8342 54.6877 47.7811 54.4241 47.7167 54.4599C47.6522 54.4958 47.7323 54.53 47.7145 54.5997C47.7101 54.4465 47.625 54.5088 47.5964 54.4052C47.5686 54.4647 47.5634 54.5878 47.5288 54.654L47.5046 54.4739C47.4405 54.0503 47.2758 54.4909 47.1616 54.2666C47.1643 54.3099 47.1771 54.3435 47.1631 54.3832C46.9756 54.1114 46.7229 54.1515 46.4926 54.0388C46.4975 54.121 46.4939 54.2034 46.4821 54.2849C46.4816 54.1018 46.4152 54.0478 46.3519 54.0104C46.312 54.1997 46.2606 53.8293 46.1818 53.9316L46.1844 53.9749C46.1439 53.7714 46.0854 54.0702 46.0619 53.8502L46.0193 53.9963C46.0133 53.7266 45.9333 54.1317 45.8984 53.9947L45.9026 53.9382C45.8496 53.8843 45.8342 54.004 45.8013 53.957L45.7808 53.9767C45.6981 53.8924 45.6352 54.0449 45.6452 53.8385C45.6022 54.0045 45.7247 53.9193 45.6638 54.1616C45.4036 53.9866 45.0902 53.9064 44.7765 53.9343C44.7416 53.9905 44.7167 54.052 44.7032 54.1164C44.67 54.0827 44.5929 54.0718 44.5641 53.9749C44.559 54.0167 44.5433 54.0566 44.5185 54.091C44.4503 54.1566 44.475 53.8575 44.4098 53.9465C44.4306 54.0134 44.4342 54.0842 44.4202 54.1529C44.379 53.9826 44.3114 54.0084 44.2551 53.9511C44.2653 53.9914 44.2703 54.033 44.27 54.0746C44.2124 53.8875 44.1451 54.1095 44.0932 53.989L44.1114 54.1092C44.0083 54.2544 44.0952 53.856 44.0099 53.9382C44.0396 53.9685 44.0187 54.0215 44.0178 54.0748C43.9574 53.851 43.8458 53.8995 43.7729 53.8254C43.7745 53.8431 43.7741 53.861 43.7721 53.8787C43.692 53.8444 43.6036 53.9099 43.5177 53.8089C43.4734 53.8517 43.5132 54.1084 43.4299 54.0575C43.4471 53.8114 43.2902 53.9493 43.3549 53.6771C43.277 53.7128 43.1582 53.7946 43.1124 53.7141C43.1412 53.8044 43.0608 54.0064 43.1209 54.0337L43.0682 54.1763C43.07 54.2794 43.1091 54.1368 43.0969 54.2731C43.0738 54.2496 42.9845 54.1586 42.9503 54.1981C42.9056 54.0444 42.8663 53.7609 42.7661 53.7197C42.805 53.8134 42.7284 53.9856 42.7513 54.0292L42.6508 53.5552C42.6277 53.5317 42.6344 53.7482 42.5951 53.6811C42.5964 53.6267 42.5882 53.5725 42.5707 53.5209C42.5503 53.5406 42.4474 53.4561 42.407 53.6787C42.3854 53.7716 42.4566 53.7292 42.415 53.8153C42.3579 53.8112 42.3592 53.7246 42.3124 53.7108L42.2952 53.7273C42.2576 53.7634 42.1893 53.6195 42.2384 53.4869C42.2384 53.4869 42.2194 53.6299 42.2608 53.5638C42.2427 53.4238 42.1797 53.3797 42.1226 53.3756C42.1358 53.4313 42.1405 53.4884 42.1367 53.5455C42.0946 53.4153 42.0188 53.2985 41.9167 53.2066C41.9184 53.0934 41.9371 53.4166 41.9514 53.3569C41.8348 53.5085 41.7297 53.1311 41.6356 53.3463C41.6356 53.3463 41.6514 53.1866 41.6476 53.2166C41.6438 53.2464 41.591 53.3958 41.5617 53.3321C41.5501 53.4285 41.5253 53.2951 41.4922 53.2614C41.4591 53.2277 41.4615 53.291 41.5114 53.3215C41.4657 53.2344 41.2732 53.0788 41.1569 53.2105C41.1612 53.1473 41.1 52.9702 41.073 52.9765L41.0775 53.1296C41.0458 53.2191 40.9869 53.1119 40.9717 53.2315C40.9241 53.0478 41.1775 53.4006 41.1091 53.2565C41.0837 53.3794 41.0187 53.0092 41.0222 53.2157C40.9685 53.2084 40.9309 53.0347 40.8715 53.1772C40.892 53.1575 40.902 53.3839 40.862 53.3701C40.8218 53.3562 40.8461 53.3 40.7864 53.246L40.7368 53.1955C40.7458 53.0492 40.6727 53.2114 40.7087 53.052C40.6935 53.1716 40.6161 52.9575 40.5987 53.2169L40.599 53.4068C40.5759 53.3832 40.5586 53.2031 40.5364 53.1129L40.5182 53.2027C40.5295 52.9099 40.444 53.2217 40.4173 52.9917C40.3451 53.094 40.2457 52.993 40.2159 53.1857C40.1669 53.0953 40.1248 52.9849 40.0703 53.0375C40.0876 53.0694 40.0974 53.1047 40.0989 53.141C40.054 53.2236 40.0518 53.1471 40.0189 53.1001C39.9844 53.1931 39.9415 53.2827 39.8904 53.3681C39.8414 53.2776 39.8672 53.1216 39.8654 53.025C39.8072 53.3105 39.734 52.8302 39.6594 53.0922C39.6858 53.1192 39.7276 53.2362 39.6829 53.3056C39.6179 53.5911 39.5955 53.0881 39.5161 53.2237L39.5466 52.9844C39.504 53.1303 39.4413 52.8366 39.4408 53.0863C39.4186 53.0028 39.3521 53.1716 39.3659 52.9289C39.2318 53.1236 39.0688 52.7954 38.9751 53.207C38.9486 53.18 38.9112 53.2029 38.9265 53.0832C38.9418 52.9636 38.9621 53.1802 38.9803 53.0905C38.9803 53.0905 38.9645 53.0204 38.965 52.9871C38.9172 53.0332 38.8934 53.0561 38.9173 53.2495C38.8243 53.3915 38.8495 52.8492 38.7373 52.931C38.7358 53.0308 38.7252 53.0675 38.6951 53.0504L38.6439 52.8833C38.5694 52.9158 38.5901 53.0991 38.5808 53.2654C38.5508 53.2536 38.5254 53.2327 38.5082 53.2055C38.4912 53.1784 38.4832 53.1463 38.4856 53.1144L38.4289 53.3201C38.4714 53.1741 38.4034 53.2199 38.3873 53.1764L38.417 53.2067C38.4059 53.2764 38.3796 53.2429 38.3465 53.2092C38.3511 53.1451 38.3794 53.085 38.4262 53.0405C38.414 52.9671 38.3767 52.99 38.3614 52.8932C38.3622 53.0563 38.2925 53.0055 38.2454 53.0049C38.1984 53.0043 38.214 52.858 38.2072 52.8647C38.2004 52.8712 38.1465 52.8772 38.1682 52.9939C38.188 53.0142 38.1964 52.9144 38.2154 52.9879C38.2344 53.0614 38.1853 53.1939 38.1266 53.0734C38.0679 52.9528 38.155 52.7574 38.0829 52.8531C38.094 52.9081 38.1022 52.9638 38.1073 53.0198L38.0321 53.0922L38.0412 52.9459L38.0266 53.0123C38.0155 52.859 37.9368 52.9611 37.9328 52.788C37.9062 52.761 37.844 52.8735 37.8201 52.8964C37.7785 52.9825 37.7323 52.922 37.7069 52.8218L37.6897 52.8384C37.6897 52.8384 37.6228 52.8242 37.5938 52.7406C37.5349 52.8497 37.5484 53.2958 37.5009 53.1055C37.4471 53.0982 37.4344 52.8352 37.4595 52.7389C37.3605 52.8342 37.2666 52.5901 37.169 52.8153C37.1599 52.7519 37.1706 52.7154 37.1442 52.6818C37.0023 52.7332 36.8648 52.492 36.7394 52.7767C36.7891 52.8272 36.7339 52.9196 36.7258 53.006C36.7009 52.8726 36.6834 53.1388 36.6801 52.9124C36.6922 52.7827 36.6933 52.7162 36.7345 52.6633C36.7174 52.6439 36.6955 52.6291 36.6709 52.6204C36.6463 52.6118 36.6199 52.6096 36.5941 52.6139C36.5684 52.6183 36.5442 52.6292 36.5239 52.6454C36.5036 52.6617 36.4879 52.6828 36.4782 52.7069C36.4877 52.6834 36.4922 52.6583 36.4913 52.6331C36.4906 52.6079 36.4846 52.5832 36.4738 52.5604C36.4705 52.7734 36.4063 52.8024 36.3637 52.7253L36.3656 52.5988L36.3267 52.7283C36.3003 52.7013 36.3241 52.4554 36.2718 52.5779C36.2696 52.6237 36.2633 52.6693 36.2529 52.7141C36.2074 52.607 36.1531 52.4232 36.084 52.5422L36.0342 52.7279C36.0111 52.7043 35.9791 52.5908 36.0203 52.5381C35.9179 52.6366 35.8838 52.6696 35.8379 52.8187C35.7062 52.4143 35.488 52.3884 35.3129 52.4062L35.315 52.5027C35.2598 52.5886 35.2973 52.3361 35.2593 52.3988C35.2214 52.4616 35.2126 52.5947 35.2445 52.7082C35.1723 52.8105 35.1665 52.5408 35.1268 52.4937C35.1287 52.3672 35.1556 52.5774 35.1548 52.4143C35.1521 52.3709 35.0592 52.5062 35.0587 52.3165C35.0432 52.4133 35.0397 52.5116 35.0477 52.6093L35.0088 52.5156C34.9483 52.7379 35.1034 52.9228 35.0218 53.2047L34.9887 53.1711C34.9386 53.3702 35.0757 53.402 34.9738 53.4673C34.9329 53.3174 34.9285 53.1599 34.9608 53.0077C34.8913 52.937 34.9477 52.5482 34.8534 52.5603C34.8248 52.6731 34.9302 52.5912 34.901 52.7507C34.8716 52.9101 34.8148 52.6631 34.7805 52.7093C34.8125 52.6104 34.8106 52.5038 34.7751 52.4063C34.7233 52.4955 34.7959 52.5895 34.7251 52.6053C34.7233 52.4954 34.6641 52.4081 34.7224 52.3323C34.7128 52.0858 34.6508 52.4013 34.6099 52.2177C34.5804 52.3905 34.6539 52.6279 34.5787 52.7134C34.5981 52.5439 34.4984 52.476 34.5526 52.227C34.5188 52.3186 34.5103 52.4172 34.528 52.5129C34.4794 52.6123 34.4455 52.1991 34.4101 52.5348L34.4093 52.3585C34.3917 52.4148 34.3709 52.4545 34.3459 52.5507C34.3055 52.5502 34.2422 52.3097 34.2315 52.5692C34.2116 52.549 34.1375 52.5481 34.1806 52.3689C34.2237 52.1896 34.2288 52.5061 34.2829 52.2704C34.2361 52.4728 34.2093 52.2428 34.1869 52.1726L34.1753 52.2757C34.1455 52.2454 34.1185 52.2517 34.1135 52.145C34.1228 52.1956 34.1161 52.2478 34.0943 52.2946L34.0867 52.138C34.0139 52.0638 34.0556 52.4105 33.9891 52.3631L34.0342 52.4837C34.0342 52.4837 33.9888 52.5996 33.9626 52.5527L33.9423 52.1328C33.8926 52.0823 33.9129 52.2923 33.885 52.1421L33.9225 52.3158C33.9286 52.3625 33.8753 52.5449 33.8249 52.541C33.7746 52.537 33.7516 52.2837 33.81 52.2078C33.81 52.2078 33.735 52.2802 33.7601 52.3937C33.7038 52.3364 33.7758 52.2407 33.7268 52.1502C33.7018 52.2464 33.6292 52.3754 33.5801 52.508L33.6202 52.7448L33.5832 52.7478C33.6172 52.9379 33.5508 52.8904 33.5679 53.0904C33.5372 53.1199 33.5215 53.0432 33.4851 53.0061C33.574 52.691 33.4313 52.5661 33.466 52.2769C33.3799 52.1892 33.3645 52.9781 33.2908 52.5178C33.3122 52.4448 33.2786 52.2214 33.3344 52.3053C33.2866 52.3513 33.312 52.012 33.2295 52.1308C33.278 52.2546 33.1579 52.4229 33.2225 52.5968C33.2239 52.5036 33.2805 52.5409 33.2736 52.5475C33.2417 52.657 33.2589 52.8435 33.1986 52.8361C33.1381 52.8287 33.1117 52.8018 33.1275 52.6489C33.1433 52.4959 33.1843 52.6727 33.1701 52.5028C33.1039 52.4354 33.0698 52.6914 33.0609 52.3916C33.0973 52.4288 33.1304 52.246 33.1355 52.1296L33.076 52.069L33.0776 52.1789C32.9923 52.261 33.0671 51.9791 32.9761 52.0012L32.9224 52.2169C32.9295 52.4068 33.0545 52.142 33.0162 52.4478C32.9589 52.4571 32.9512 52.3006 32.8929 52.3764C32.9127 52.3967 32.9259 52.4101 32.9425 52.4269C32.9591 52.4438 32.8791 52.8422 32.8122 52.5983C32.7801 52.5047 32.8105 52.4885 32.8156 52.3721C32.7289 52.331 32.7071 52.2143 32.6468 52.2002C32.6433 52.4265 32.5425 52.2155 32.5927 52.4491C32.6316 52.3197 32.7589 52.3414 32.7758 52.5546C32.7281 52.8171 32.8505 52.5223 32.8496 52.792C32.779 52.7944 32.7682 53.054 32.7421 53.2235C32.7421 53.2235 32.6957 53.1762 32.6963 53.1362C32.7022 52.9732 32.7257 52.9769 32.7383 52.8138C32.6537 52.8494 32.5812 52.7554 32.5364 52.6084C32.5049 52.6846 32.5025 52.8442 32.5359 52.8646C32.4913 52.8413 32.4414 52.8294 32.3909 52.83C32.3404 52.8305 32.2909 52.8434 32.2467 52.8677C32.318 52.609 32.1469 52.7998 32.2007 52.5842C32.2703 52.4766 32.3017 52.3493 32.2902 52.2224C32.2663 52.2454 32.285 52.3388 32.2674 52.3952C32.236 52.2483 32.19 52.6206 32.1666 52.3939C32.2526 52.4816 32.1616 52.7136 32.1651 52.92C32.1098 52.8028 32.1561 53.0663 32.0991 53.0624C32.055 52.9607 31.9874 52.8708 31.9015 52.8002C31.8011 52.9886 31.6797 52.7908 31.6059 52.7766C31.554 52.8791 31.5637 53.1124 31.5195 53.1484C31.4753 53.1845 31.5772 52.9027 31.4916 53.0047L31.4943 53.0481C31.4579 53.011 31.3407 53.196 31.3254 52.8763L31.3316 53.1327C31.3111 53.1524 31.3018 53.1024 31.2819 53.0822C31.2739 53.1619 31.2528 53.2349 31.2754 53.2918C31.2122 53.4641 31.175 53.2573 31.1248 53.2467L31.1673 53.1008C31.0851 52.9766 31.019 53.1189 30.9359 53.0613L30.9269 53.2076L30.8847 53.1172C30.8859 53.2603 30.8308 53.3462 30.8125 53.2261L30.9211 53.5936C30.9628 53.5075 30.8903 53.4135 30.926 53.2741C30.9618 53.1347 31.0215 53.1822 31.0326 53.3354C31.0088 53.3584 31.0095 53.3119 30.9731 53.2748C30.9498 53.4742 30.9935 53.4714 31.0083 53.608C31.0083 53.608 30.9605 53.6541 30.9818 53.5811C31.0005 53.6812 31.0337 53.7016 31.0977 53.699C31.0686 53.6154 31.1264 53.5729 31.1171 53.5162C31.1044 53.6924 31.154 53.7498 31.2219 53.7041C31.2821 53.5017 31.3478 53.8319 31.4122 53.7961C31.4086 53.656 31.3787 53.5181 31.3243 53.389C31.3793 53.3031 31.378 53.3962 31.4199 53.2968C31.4161 53.4434 31.44 53.5895 31.4905 53.7273L31.4992 53.5943C31.5622 53.6583 31.5389 53.8642 31.6133 53.8318C31.7231 53.7902 31.8397 53.7691 31.9572 53.7696L31.9726 53.6367C32.0018 53.9234 32.1321 53.7518 32.2043 53.8725C32.3306 53.751 32.4542 54.0186 32.5283 53.7899C32.697 53.9248 32.9105 53.9927 33.1272 53.9803L33.1 53.7836C33.1314 53.9304 33.1319 53.6742 33.175 53.7113C33.1256 53.8639 33.2156 53.915 33.2372 54.0385C33.3403 53.8933 33.4554 54.0643 33.5339 54.2051L33.5427 54.0721C33.6127 54.3259 33.7302 54.1143 33.8417 54.0791C33.8593 54.0228 33.8848 53.8998 33.9148 53.9168C33.9374 54.0422 33.9898 54.1603 34.0675 54.2615C34.1134 54.258 34.1578 54.245 34.1981 54.2231C34.2385 54.2012 34.2737 54.1711 34.3014 54.1348C34.5184 54.4504 34.7734 54.2703 35.0057 54.4662L35.0316 54.3101C35.2481 54.6589 35.5551 54.3699 35.7472 54.5521L35.7413 54.2822C35.8164 54.2099 35.8846 54.3607 35.8582 54.5501C35.9332 54.4778 36.0006 54.6948 36.0578 54.4691C36.1159 54.4133 36.1332 54.6 36.183 54.6372C36.3223 54.5424 36.3657 54.5662 36.4859 54.621L36.4619 54.6441C36.4526 54.5874 36.4579 54.4708 36.4884 54.4545C36.548 54.5152 36.6607 54.3935 36.5953 54.7123C36.7359 54.5309 36.8921 54.879 37.0337 54.6311C37.0155 54.7207 37.0489 54.7411 37.0581 54.7978C37.1756 54.8093 37.3025 54.6345 37.3876 54.7886C37.4183 54.759 37.3664 54.6385 37.4135 54.6325C37.4607 54.6264 37.4083 54.7488 37.4378 54.7992C37.6099 54.9744 37.8268 54.6476 37.9975 54.6929C38.2906 54.8763 38.6076 54.807 38.8893 54.8505L38.8903 54.7838C38.9738 55.0379 39.136 54.5472 39.1874 54.9173C39.2318 54.8745 39.2752 54.8919 39.267 54.7686C39.3349 54.9458 39.4879 54.6148 39.5853 54.8423C39.5853 54.8423 39.5853 54.8424 39.5556 54.812C39.6852 54.6871 39.763 54.8745 39.8892 54.7529C39.8665 54.7195 39.8554 54.6796 39.8573 54.6393C39.9096 54.5168 39.9506 54.9168 39.9924 54.6077C39.9924 54.6077 40.0001 54.7642 39.9869 54.7507C40.2507 54.6474 40.5163 54.8572 40.7805 54.9437C40.9751 54.7564 40.8188 54.4215 40.9597 54.6597C40.9741 54.5999 40.9646 54.7794 40.9689 54.7162C41.0214 54.8035 41.0784 54.3747 41.1096 54.5349C41.1407 54.695 41.1314 54.6451 41.1262 54.7615C41.2525 54.6399 41.2854 54.4704 41.3672 54.6212L41.3687 54.5214C41.4651 54.8089 41.595 54.664 41.6707 54.9978C42.2644 55.0817 42.8326 55.2952 43.4165 55.3623C44.0019 55.3296 44.5573 55.503 45.1511 55.3638C45.3063 55.1094 45.3164 55.1128 45.4591 55.2311C45.4565 55.1877 45.4465 55.1775 45.4605 55.1378C45.4539 55.3541 45.5643 55.1624 45.5679 55.3688C45.7794 55.3657 45.9906 55.3817 46.1992 55.4167C46.1693 55.3863 46.1551 55.2163 46.1953 55.2302L46.2335 55.3704L46.2412 55.3106C46.2602 55.3419 46.2717 55.3769 46.2753 55.4133C46.2788 55.4496 46.2742 55.4861 46.2615 55.5205C46.8095 55.7402 47.3974 55.3249 47.9304 55.4213C48.0661 55.3431 48.2462 55.4385 48.3832 55.4901C48.821 55.2259 49.214 55.0244 49.6205 55.2557C49.7841 55.3343 49.776 54.7715 49.6101 54.6297Z" fill="#FC5185"/>
</svg>
