<svg width="101" height="130" viewBox="0 0 101 130" fill="none" xmlns="http://www.w3.org/2000/svg">
<path d="M3.1047 2.72994C2.17833 3.28065 3.28321 3.47526 2.73819 3.97124C2.73199 4.02792 3.27273 3.83726 3.16315 3.95934C2.47979 4.48828 3.06001 4.90423 3.76986 5.1905L3.91121 5.12909C4.05392 5.14436 3.56429 5.39767 3.65325 5.46454C3.74379 5.43252 3.83664 5.40745 3.93099 5.38928C3.63217 5.48152 3.83316 5.57959 3.61148 5.67053C3.73516 5.68378 3.98441 5.60499 4.12711 5.62027L3.78499 5.75584C2.98802 6.09104 3.93488 6.05852 3.54678 6.35147C3.61701 6.31929 3.69065 6.29503 3.76637 6.27931C3.33527 6.70148 3.52856 7.0471 3.4207 7.41786C3.5792 7.36283 3.74155 7.31958 3.90645 7.28832C3.54746 7.4028 3.47596 7.52911 3.42657 7.62894C3.81741 7.57522 3.12076 7.87321 3.39357 7.93109L3.48442 7.89321C3.1087 8.07281 3.74115 7.92049 3.28414 8.13916L3.58632 8.10478C3.06686 8.27854 3.90037 8.13833 3.64499 8.27346L3.54022 8.26225C3.42321 8.3644 3.70207 8.27946 3.62206 8.39514L3.6885 8.40226C3.5843 8.56314 3.8929 8.55822 3.47681 8.6666C3.82756 8.62769 3.6012 8.49804 4.09775 8.44607C3.99283 8.66075 3.93846 8.89659 3.93909 9.13515C3.93973 9.37373 3.9953 9.60867 4.10136 9.82266C4.23342 9.83797 4.36695 9.83334 4.49749 9.80813C4.42264 9.87658 4.47691 9.99692 4.26474 10.0889C4.34492 10.0768 4.42687 10.0856 4.50258 10.1144C4.68335 10.1337 4.07627 10.317 4.28349 10.3583C4.40363 10.2849 4.53655 10.2346 4.67526 10.2094C4.36818 10.3772 4.44661 10.4522 4.3666 10.5679C4.43815 10.5254 4.51621 10.4954 4.59774 10.4783C4.25902 10.6714 4.72594 10.6259 4.51813 10.7661L4.74932 10.676C5.07279 10.7107 4.2584 10.8527 4.46357 10.9128C4.54532 10.8683 4.63315 10.836 4.72433 10.8166C4.31388 11.0499 4.51181 11.176 4.38963 11.3254C4.4216 11.3256 4.45358 11.329 4.48487 11.3356C4.47042 11.4678 4.63546 11.543 4.44255 11.7231C4.56623 11.7363 5.02017 11.5459 4.96666 11.6835C4.48936 11.8236 4.8309 11.9556 4.27418 12.0298C4.38008 12.1176 4.60862 12.2282 4.461 12.3462C4.63511 12.2501 5.06104 12.2288 5.08086 12.1353L5.38204 12.1102C5.58159 12.0455 5.29631 12.1014 5.55603 12.0145C5.55089 12.0617 5.39598 12.2459 5.48057 12.2645C5.21259 12.4269 4.68694 12.6571 4.67044 12.8082C4.8371 12.6922 5.20385 12.6839 5.26815 12.6239L4.41116 13.0674C4.40495 13.1241 4.78713 12.9739 4.67757 13.096C4.5783 13.1294 4.48306 13.1737 4.39362 13.228C4.4507 13.2341 4.36904 13.4548 4.79669 13.3285C4.99315 13.2922 4.87464 13.2316 5.0585 13.2226C5.04922 13.3076 4.9182 13.3607 4.93849 13.4394L4.99562 13.4455C5.08125 13.4547 4.84708 13.6585 4.56603 13.6762C4.56603 13.6762 4.85233 13.6117 4.70011 13.5954C4.54788 13.5791 4.39533 13.8302 4.40609 13.9078C4.51066 13.8551 4.61863 13.809 4.72918 13.7702C4.51164 13.9039 4.32977 14.0878 4.19907 14.3061C3.96993 14.3772 4.59282 14.1379 4.46501 14.1624C4.82654 14.2011 4.12691 14.6141 4.60981 14.5988C4.52573 14.6167 4.4429 14.6394 4.3617 14.6675C4.41156 14.7397 4.7315 14.6306 4.62811 14.696C4.81609 14.6492 4.61871 14.7814 4.54387 14.8499C4.46902 14.9183 4.63911 14.86 4.64736 14.7844C4.50924 14.9034 4.30627 15.2638 4.58652 15.3416C4.4672 15.3766 4.16539 15.5833 4.19083 15.6147L4.47271 15.5016C4.65346 15.521 4.45831 15.6339 4.74863 15.5312C4.41097 15.7148 4.95569 15.1329 4.71317 15.3267C4.96876 15.2776 4.29653 15.6165 4.69769 15.4683C4.68945 15.5439 4.40038 15.7232 4.67192 15.7045C4.62435 15.6994 5.06783 15.5176 5.06061 15.5837C5.05339 15.6498 4.92749 15.6552 4.85699 15.7719L4.7602 15.8666C4.47089 15.9598 4.82803 15.9505 4.49424 16.0103C4.73185 15.9497 4.39534 16.21 4.86518 16.05L5.23587 15.9175C5.22969 15.9742 4.86756 16.1173 4.7135 16.206C4.77095 16.2001 4.82732 16.1868 4.88136 16.1665C4.3228 16.3457 4.96714 16.2618 4.54281 16.4457C4.77113 16.4702 4.64175 16.6856 5.0051 16.6194C4.85642 16.7468 4.6783 16.8805 4.82743 16.9252C4.87618 16.8762 4.93625 16.8401 5.00249 16.8198C5.18324 16.8391 5.04388 16.8815 4.98703 16.9614C5.18262 16.9425 5.37946 16.9379 5.57572 16.9479C5.37084 17.0685 5.15009 17.161 4.92002 17.2221C5.51044 17.1037 4.6356 17.5355 5.16377 17.4581C5.23656 17.4086 5.40644 17.2644 5.56817 17.2816C6.14805 17.1717 5.19267 17.5474 5.53619 17.5746L5.06097 17.696C5.36415 17.6518 4.85113 17.9412 5.32096 17.7812C5.1574 17.8688 5.52075 17.8026 5.05733 17.9918C5.49496 18.0388 5.00272 18.4926 5.80966 18.3304C5.74639 18.3811 5.80043 18.4155 5.59984 18.4896C5.39925 18.5636 5.76754 18.364 5.6081 18.4138C5.6081 18.4138 5.47519 18.4857 5.41502 18.5079C5.53868 18.5213 5.58634 18.526 5.94844 18.3831C6.26238 18.4167 5.21371 18.7635 5.44432 18.8551C5.63437 18.7894 5.70305 18.7774 5.68736 18.833L5.39745 19.0217C5.5044 19.1001 5.84929 18.9365 6.15865 18.8359C6.15039 18.9114 6.14424 18.9682 5.93105 19.0695L6.35269 19C6.04849 19.0533 6.17652 19.115 6.11326 19.1656L6.17635 19.115C6.30955 19.1292 6.25688 19.1713 6.22422 19.2059C6.10662 19.2507 5.97715 19.2541 5.85763 19.2148C5.72466 19.2867 5.77845 19.3209 5.6244 19.4097C5.92529 19.2985 5.87182 19.4361 5.91939 19.4413C5.96694 19.4463 5.66299 19.5857 5.68099 19.5972C5.69899 19.6087 5.7309 19.6692 5.94513 19.5583C5.94513 19.5583 5.77379 19.5404 5.90366 19.4969C6.03353 19.4535 6.31973 19.3886 6.13198 19.5213C5.94422 19.6542 5.51442 19.713 5.74171 19.747C5.8145 19.6975 5.93593 19.6433 6.03829 19.5873L6.23804 19.6087L5.94867 19.7023C6.02477 19.7105 6.04372 19.7124 6.08695 19.6691C5.80302 19.8013 6.06848 19.8396 5.71694 19.9739C5.71074 20.0306 5.94529 19.9984 5.99286 20.0035C6.17363 20.0228 6.09672 20.1102 5.96914 20.2208L6.02606 20.2268C6.02606 20.2268 6.01588 20.3211 5.87982 20.4212C6.11767 20.4466 6.95681 20.0777 6.62658 20.2813C6.61834 20.3569 6.1519 20.5747 5.95648 20.6016C6.19867 20.6753 5.79037 20.9758 6.26479 20.9501C6.16243 21.0061 6.08429 21.0168 6.02846 21.0871C6.21381 21.2409 5.83647 21.6113 6.44717 21.5717C6.54415 21.4769 6.72794 21.4679 6.88738 21.4181C6.65206 21.5458 7.17062 21.3815 6.73884 21.5454C6.58635 21.6226 6.41669 21.6604 6.24562 21.6551C6.15095 21.8169 6.20851 21.9952 6.47052 21.9755C6.37311 21.9862 6.28137 22.0263 6.20771 22.0905C6.60888 21.9424 6.69876 21.9997 6.57863 22.1303L6.33793 22.2193L6.60307 22.1712C6.52926 22.2302 6.09851 22.3846 6.35103 22.3639C6.44211 22.3337 6.53484 22.3086 6.62877 22.2887C6.44951 22.4319 6.13731 22.6469 6.36873 22.6431L6.75206 22.5693C6.6623 22.6656 6.53895 22.7243 6.40708 22.733C6.60975 22.8112 6.82956 22.8346 7.04443 22.8013C6.3567 23.282 6.43668 23.6063 6.58523 23.8324L6.76697 23.7562C6.96675 23.7776 6.46181 23.9053 6.60554 23.9112C6.80798 23.8507 7.006 23.7758 7.19791 23.6875C7.42623 23.7121 6.92163 23.9255 6.86374 24.0148C6.63152 24.1142 6.99988 23.9147 6.70208 23.9976C6.62082 24.0367 6.94935 24.024 6.58314 24.2047C6.77357 24.1532 6.95851 24.0835 7.1353 23.9964L6.98775 24.1144C7.43982 24.029 7.68936 23.6828 8.24172 23.5603L8.23346 23.636C8.63797 23.5456 8.61186 23.3422 8.79491 23.4288C8.53295 23.6004 8.24252 23.7248 7.93688 23.7957C7.91935 23.9563 7.08721 24.1729 7.16997 24.2964C7.39705 24.2443 7.18347 24.1734 7.4918 24.0822C7.80013 23.9909 7.375 24.2702 7.47014 24.2804C7.2645 24.3091 7.06981 24.3904 6.90535 24.5164C7.09562 24.5366 7.23132 24.3509 7.30971 24.4261C7.09756 24.5181 6.97536 24.6675 6.7946 24.6483C6.33863 24.8574 6.97546 24.6673 6.61567 24.8772C6.96206 24.7902 7.35962 24.4982 7.56686 24.5396C7.23744 24.6476 7.16936 24.8313 6.66561 24.9495C6.86378 24.9281 7.05462 24.8639 7.22499 24.7611C7.4438 24.7845 6.685 25.1238 7.33433 24.9067L7.0113 25.0437C7.11595 25.0549 7.2112 25.0653 7.40331 24.9807C7.39815 25.028 7.02047 25.3127 7.51242 25.1265C7.51242 25.1265 7.4979 25.2587 7.17055 25.3479C6.84318 25.437 7.39198 25.1709 6.91367 25.3203C7.30864 25.2288 6.90142 25.4337 6.78542 25.5264L6.98497 25.4614C6.92169 25.5121 6.97468 25.5562 6.78154 25.6501C6.86971 25.5955 6.96883 25.5602 7.07194 25.5473L6.78694 25.6891C6.68378 25.8405 7.31592 25.5161 7.26342 25.6443L7.46372 25.4843C7.46372 25.4843 7.7077 25.4531 7.64442 25.5035L6.86341 25.8689C6.77492 25.974 7.18025 25.7885 6.92281 25.9425L7.22352 25.7451C7.30478 25.7059 7.67867 25.6314 7.69896 25.7101C7.52867 25.8609 7.31695 25.958 7.09092 25.9889C7.09092 25.9889 7.29079 26.0106 7.47442 25.9157C7.46101 26.0384 7.17572 26.0075 7.03553 26.1454C7.23199 26.1091 7.52132 26.1019 7.79493 26.0643L8.21712 25.8132L8.21192 25.8607C8.55165 25.6581 8.49909 25.7862 8.86426 25.615C8.94038 25.6232 8.85306 25.719 8.74016 25.7833C8.09059 25.9145 7.95285 26.2055 7.38376 26.3931C7.28598 26.5834 8.76814 25.9679 7.95467 26.4542C7.79729 26.4852 7.40671 26.7111 7.52889 26.5617C7.62735 26.6296 6.99808 26.8395 7.26652 26.8492C7.46688 26.6889 7.85916 26.7115 8.14389 26.4838C7.96232 26.56 7.98203 26.4666 8.02009 26.4706C8.24612 26.4278 8.57331 26.253 8.61159 26.3431C8.64988 26.4332 8.59508 26.494 8.30473 26.5968C8.0144 26.6994 8.31496 26.5025 8.00045 26.6505C7.92582 26.8051 8.41585 26.6376 7.8776 26.8955C7.88688 26.8104 7.55742 26.9184 7.3463 27.001L7.24513 27.1333L7.44774 27.0402C7.64753 27.0616 7.0815 27.2211 7.18638 27.3184L7.62169 27.2119C7.9668 27.0483 7.39298 27.1014 7.98317 26.897C8.03304 26.9692 7.74806 27.1109 7.9584 27.1238C7.9584 27.1238 7.96573 27.0575 8.05549 27.0289C8.14523 27.0001 8.86212 26.7807 8.45498 27.0715C8.30632 27.199 8.25238 27.1648 8.04023 27.2567C8.02373 27.408 7.81801 27.5295 7.81721 27.6249C8.23203 27.4399 7.90951 27.7493 8.31356 27.4867C8.0474 27.5442 8.00038 27.3577 8.35066 27.1467C8.70094 26.9358 8.24259 27.0777 8.73867 26.8537C8.78544 26.9543 9.27857 26.7583 9.60903 26.6408C9.60903 26.6408 9.52041 26.7461 9.47823 26.7798C9.17528 26.9099 9.17 26.8711 8.84907 26.9896C8.97504 27.07 8.82124 27.2447 8.58077 27.4197C8.7546 27.3931 8.91836 27.3215 9.05572 27.2124C9.04098 27.2893 9.0524 27.3688 9.08838 27.4385C9.12437 27.5081 9.18287 27.5637 9.25439 27.5968C8.72209 27.7118 9.23375 27.786 8.76058 27.8883C8.50818 27.8857 8.25912 27.948 8.03802 28.069C8.03802 28.069 8.24926 27.9861 8.36756 27.9605C8.10909 28.124 8.82919 27.8763 8.42929 28.1011C8.53658 27.9119 9.02667 27.8307 9.43943 27.6647C9.25706 27.8362 9.72135 27.5514 9.75012 27.6405C9.59773 27.7728 9.47497 27.9356 9.38992 28.1181C9.81677 28.0874 9.53021 28.4197 9.55588 28.5372C9.77034 28.5123 10.1977 28.3002 10.3003 28.3304C10.4029 28.3605 9.80405 28.4681 10.0514 28.4946L10.1338 28.4459C10.0389 28.5218 10.5141 28.487 9.89251 28.8028L10.3497 28.584C10.4068 28.59 10.3424 28.6498 10.2622 28.6796C10.4001 28.6405 10.5323 28.5841 10.6558 28.5116C11.0086 28.4539 10.6383 28.6722 10.63 28.7478L10.3345 28.8118C10.167 29.0234 10.4786 28.9895 10.422 29.1554L10.6953 29.0321L10.5646 29.1706C10.8189 29.045 11.0208 29.0475 10.8119 29.1971L11.41 28.7449C11.2292 28.7257 11.101 28.9318 10.8127 29.0157C10.5244 29.0994 10.5991 28.945 10.8344 28.8173C10.8915 28.8235 10.8281 28.8741 10.7437 28.9415C10.9533 28.8599 11.1502 28.7489 11.3284 28.6122C11.3284 28.6122 11.452 28.6258 11.3211 28.6786C11.4983 28.5542 11.5044 28.4972 11.4831 28.428C11.3556 28.5387 11.2349 28.4972 11.1315 28.5626C11.4745 28.4177 11.544 28.3104 11.415 28.2584C11.0009 28.3478 11.5981 27.9915 11.45 27.9373C11.2021 28.061 10.9693 28.2123 10.7559 28.3884C10.5657 28.368 10.7632 28.3224 10.5372 28.365C10.8056 28.2495 11.0558 28.0961 11.2799 27.9092L11.0286 28.0065C11.1287 27.8835 11.5014 27.7322 11.3934 27.6634C11.2458 27.5627 11.1278 27.4248 11.0519 27.2637L10.7912 27.36C11.304 27.0708 10.9024 27.0469 11.1058 26.8584C10.7919 26.8248 11.2125 26.4111 10.7414 26.4945C10.7806 26.1355 10.9119 25.8151 10.7114 25.5356L10.3631 25.7278C10.611 25.5729 10.1361 25.7802 10.1729 25.7076C10.4866 25.6551 10.5241 25.4867 10.7393 25.3665C10.3968 25.3297 10.6487 25.0511 10.8647 24.8353L10.604 24.9314C11.0407 24.6341 10.5673 24.6504 10.436 24.5313C10.3046 24.4121 10.0707 24.6162 10.0864 24.5605C10.3016 24.4447 10.4873 24.2819 10.6293 24.0838C10.5867 24.0238 10.5314 23.9733 10.4673 23.9367C10.4031 23.9001 10.3314 23.8781 10.2577 23.8719C10.7107 23.3374 10.222 23.1415 10.4448 22.6875L10.1375 22.7694C10.6601 22.2137 9.92953 22.0303 10.1652 21.635L9.66165 21.8393C9.47139 21.8189 9.68837 21.5937 10.0949 21.4842C9.90467 21.4639 10.2631 21.1774 9.81955 21.2733C9.69588 21.2599 10.023 21.0846 10.0629 20.9838C9.80474 20.8797 9.82356 20.7956 9.86528 20.5899C9.75341 20.6447 9.54239 20.7271 9.4884 20.6927C9.61597 20.5822 9.26694 20.5165 9.90905 20.3654C9.49044 20.3206 10.0525 19.8452 9.51456 19.8354C9.68351 19.7866 9.69922 19.7313 9.81109 19.6763C9.761 19.518 9.36246 19.4657 9.6081 19.2435C9.51296 19.2333 9.33259 19.3861 9.29121 19.3243C9.24982 19.2626 9.51085 19.2524 9.58674 19.1745C9.8193 18.8075 9.08258 18.7665 9.09243 18.4999C9.2749 17.9748 8.96963 17.5983 8.88926 17.1883L8.76886 17.2323C9.195 16.9435 8.17978 17.0739 8.82349 16.7319C8.6903 16.7176 8.72827 16.6356 8.50017 16.6972C8.80288 16.4812 8.08845 16.5005 8.45753 16.2055C8.45753 16.2055 8.4575 16.2053 8.40271 16.2663C8.07924 16.2317 8.43793 15.945 8.11011 15.8622C8.0526 15.9142 7.98596 15.9556 7.91372 15.9844C7.65685 15.9569 8.39161 15.6631 7.77805 15.8173C7.77805 15.8173 8.07052 15.6953 8.05791 15.7226C7.7137 15.4373 7.97025 14.9391 7.9966 14.5214C7.55234 14.3591 7.00177 14.8163 7.35904 14.4531C7.24488 14.4409 7.58924 14.3731 7.46041 14.407C7.59956 14.2786 6.74947 14.4838 7.04187 14.3622C7.33427 14.2406 7.23595 14.2588 7.46509 14.1877C7.16684 14.0985 6.82774 14.1193 7.06719 13.9538L6.87722 14.0193C7.38361 13.7008 7.02719 13.615 7.62976 13.2972C7.48475 12.4215 7.60282 11.5165 7.44416 10.6776C7.09547 9.90431 7.16168 9.03221 6.59749 8.29324C6.02668 8.23213 6.03624 8.2331 6.19188 7.95347C6.13502 7.98074 6.07466 8.00008 6.01243 8.0108C6.43058 7.88353 6.02987 7.85009 6.40995 7.71875C6.30248 7.42573 6.23567 7.11988 6.2111 6.80892C6.20388 6.87506 5.83531 6.9882 5.85204 6.92308L6.10741 6.78803L5.98384 6.77479C6.09731 6.68256 6.23833 6.63068 6.3849 6.62687C6.54844 5.74598 5.49434 5.17438 5.40871 4.37195C5.19277 4.23414 5.28396 3.92857 5.32773 3.70388C4.61743 3.24554 4.02977 2.8096 4.28891 2.11099C4.38817 2.08338 3.29302 2.41559 3.1047 2.72994Z" fill="#1C57BC"/>
<path d="M67.6777 6.28289C66.5412 6.15269 67.058 7.25718 66.2099 7.36975C66.1338 7.39849 66.6886 7.6556 66.4977 7.70623C65.5345 7.72594 65.4755 8.68908 65.6531 9.56999L65.8016 9.63591C65.8298 9.80474 65.3135 9.6483 65.2981 9.79772C65.2829 9.94716 65.4379 9.85983 65.5689 9.91801C65.2807 9.78998 65.3163 10.0349 65.0864 9.96396C65.1636 10.0712 65.3789 10.198 65.4571 10.3265L65.1253 10.1791C64.2908 9.89152 64.9172 10.6384 64.3728 10.636C64.4494 10.6493 64.5214 10.6813 64.5824 10.7291C63.8966 10.8305 63.6658 11.3633 63.2249 11.6881C63.3788 11.7551 63.5222 11.8436 63.6511 11.9507C63.559 11.8842 63.4494 11.8462 63.3354 11.842C63.2215 11.8377 63.1087 11.8675 63.0116 11.9269C63.3138 12.1861 62.5881 11.9362 62.684 12.1871L62.7624 12.222C62.3547 12.1033 62.8595 12.4943 62.3937 12.3185L62.617 12.5429C62.1107 12.3178 62.7622 12.8472 62.507 12.7858L62.4111 12.7432C62.2399 12.7505 62.449 12.9371 62.3128 12.9599L62.374 12.9871C62.1421 13.082 62.3285 13.3419 61.9718 13.1105C62.2215 13.3464 62.2083 13.0281 62.5742 13.3782C61.9732 13.7168 61.4891 14.228 61.1861 14.8443C61.2514 14.9647 61.3372 15.0729 61.4393 15.1648C61.3285 15.178 61.2364 15.3353 61.0238 15.272C61.0938 15.3192 61.1476 15.3863 61.1776 15.465C61.2496 15.6532 60.7087 15.3191 60.799 15.5363C60.9416 15.5532 61.0756 15.6127 61.1831 15.707C60.8364 15.6154 60.7958 15.7745 60.6352 15.8281C60.7211 15.8438 60.802 15.8797 60.871 15.9329C60.4689 15.848 60.757 16.1842 60.521 16.173L60.748 16.2739C60.8902 16.6079 60.2765 16.0646 60.329 16.2961C60.4231 16.3175 60.5118 16.357 60.5906 16.4125C60.1149 16.3052 60.102 16.6117 59.8772 16.668C59.9099 16.6805 59.9419 16.6947 59.9731 16.7106C59.8237 16.8318 59.8158 17.0577 59.5656 17.1236C59.6263 17.2443 60.0883 17.4285 59.9089 17.5467C59.4989 17.2707 59.564 17.706 59.1449 17.3113C59.1265 17.4907 59.1396 17.8091 58.9248 17.7969C59.1082 17.8783 59.3956 18.1933 59.4991 18.1039L59.7017 18.3506C59.885 18.4322 59.6968 18.2231 59.8962 18.3847C59.8688 18.4454 59.571 18.5004 59.6046 18.5881C59.2725 18.5343 58.7366 18.3277 58.6057 18.4778C58.8254 18.5026 59.0398 18.8164 59.1468 18.8119L58.2148 18.5539C58.1912 18.6058 58.5365 18.7698 58.3702 18.7897C58.2825 18.7244 58.1809 18.6792 58.0732 18.6578C58.1257 18.6811 57.8188 18.8258 58.2121 19.1151C58.3632 19.2447 58.365 19.0789 58.4653 19.2276C58.4144 19.3404 58.2562 19.2495 58.179 19.3506L58.2399 19.3777C58.2569 19.479 57.9265 19.4676 57.7545 19.2453C57.778 19.1934 57.989 19.4225 57.8944 19.3075C57.6325 19.191 57.486 19.2821 57.4088 19.3831C57.5221 19.4175 57.6306 19.4658 57.7319 19.5266C57.4461 19.4773 57.1518 19.5091 56.8828 19.6182C56.6645 19.5213 57.2671 19.7887 57.182 19.6988C57.3261 20.0754 56.525 19.8755 56.8166 20.2967C56.8166 20.2967 56.5472 20.1041 56.5957 20.136C56.6441 20.168 56.8519 20.4269 56.6975 20.4207C56.8807 20.5023 56.6009 20.4717 56.5036 20.5014C56.4063 20.531 56.5908 20.5402 56.6171 20.5517C56.4158 20.5561 55.9269 20.7558 56.0321 21.1254C55.9099 21.071 55.534 20.9977 55.5193 21.0535L55.7984 21.1777C55.9202 21.3254 55.6677 21.3278 55.8836 21.4759C55.5071 21.3814 56.4145 21.2532 56.0792 21.2292C56.2709 21.4082 55.541 21.1673 55.9134 21.364C55.8663 21.468 55.4847 21.3609 55.6664 21.6081C55.6664 21.6081 56.068 21.7867 56.0095 21.8232C55.951 21.8598 55.8698 21.761 55.7061 21.8446L55.5475 21.8473C55.2767 21.7269 55.4847 21.986 55.2769 21.7271C55.4716 21.876 55.0118 21.8488 55.4422 22.1025L55.7916 22.2578C55.7641 22.3184 55.3839 22.1389 55.2062 22.0911C55.2453 22.1372 55.2901 22.1782 55.3396 22.2131C54.8298 21.9032 55.2691 22.3689 54.8596 22.2078C54.9548 22.4374 54.7063 22.5461 54.9395 22.7955C54.7295 22.796 54.4925 22.7634 54.5256 22.9447C54.597 22.9531 54.6638 22.983 54.7177 23.03C54.823 23.1914 54.6747 23.1254 54.555 23.1348C54.6336 23.1697 54.7528 23.4622 54.889 23.6477C54.6592 23.5976 54.4422 23.5011 54.2517 23.3646C54.6881 23.7669 53.7524 23.4241 54.1288 23.8205C54.2074 23.8555 54.4679 23.8358 54.539 24.0029C54.9756 24.405 54.0484 23.9516 54.2015 24.2384L53.8084 23.9487C54.0232 24.169 53.438 24.0027 53.8684 24.2566C53.7024 24.1829 53.8913 24.5065 53.5077 24.2422C53.6932 24.6892 52.9341 24.6746 53.5426 25.2993C53.4728 25.2682 53.4875 25.4206 53.2754 25.2638C53.0633 25.107 53.4823 25.2932 53.3225 25.1597C53.3225 25.1597 53.183 25.0977 53.1305 25.0744C53.1746 25.2085 53.1646 25.2772 53.5391 25.4228C53.6892 25.7395 52.7482 25.1545 52.7778 25.4592C52.9525 25.5369 53.0026 25.6113 52.9403 25.6564L52.5817 25.5907C52.515 25.7382 52.9032 25.9001 53.189 26.0793C53.0965 26.1216 53.0532 26.2169 52.8174 26.1121L53.1176 26.4225C52.9028 26.202 52.9057 26.3807 52.8192 26.3629L52.8978 26.3981C53.0288 26.4562 52.8508 26.502 52.8311 26.5453C52.7218 26.4656 52.6476 26.3467 52.6245 26.214C52.4937 26.1557 52.4718 26.2501 52.2941 26.2023C52.5909 26.3344 52.4154 26.4438 52.4141 26.5161C52.4128 26.5884 52.1348 26.3917 52.1161 26.4564C52.2645 26.5222 52.0609 26.5781 52.2996 26.6529C52.3521 26.6762 52.1955 26.5125 52.3431 26.5572C52.4906 26.602 52.6752 26.8199 52.4343 26.796C52.1933 26.7723 51.9051 26.4358 51.9962 26.6742C52.1024 26.7096 52.2047 26.7552 52.3019 26.8101L52.3661 27.0155L52.1044 26.8991C52.1654 26.9264 52.1915 26.9379 52.2264 26.9535C51.9384 26.8254 52.0343 27.0765 51.7191 26.9157C51.6917 26.9764 51.8104 27.1539 51.8003 27.2222C51.9016 27.3922 51.7179 27.4044 51.5364 27.3653L51.5976 27.3925C51.5976 27.3925 51.491 27.5117 51.3135 27.4641C51.4465 27.6795 52.2434 28.0964 51.858 27.9979C51.8109 28.1021 51.2998 27.8644 51.1771 27.6954C51.2359 27.9819 50.6979 27.9197 50.9758 28.3245C50.8712 28.2781 50.8013 28.247 50.7315 28.2159C50.6589 28.5378 50.0774 28.5711 50.4258 29.1216C50.5755 29.1151 50.6964 29.2417 50.8174 29.3683C50.5728 29.2597 51.0068 29.5987 50.6073 29.369C50.3825 29.2171 50.2643 29.1537 50.229 29.0235C50.1729 29.0327 50.1199 29.0558 50.0748 29.0902C50.0296 29.1247 49.9939 29.1698 49.9705 29.2214C49.9472 29.2729 49.937 29.3289 49.941 29.3852C49.9451 29.4416 49.9629 29.496 49.9932 29.5437C49.9624 29.5046 49.9225 29.4736 49.8769 29.4534C49.8312 29.433 49.7813 29.424 49.7313 29.4272C50.0957 29.6413 50.0804 29.7911 49.9006 29.7944L49.6561 29.6858L49.8486 29.8858C49.7701 29.8509 49.3509 29.6647 49.5212 29.8445C49.6012 29.8958 49.6768 29.9537 49.747 30.0175C49.506 29.9938 49.1175 29.9254 49.2419 30.1369L49.5107 30.4232C49.4438 30.429 49.3769 30.4175 49.3158 30.3904C49.2546 30.3632 49.2014 30.3212 49.1615 30.2679C49.2544 30.5489 49.2083 30.6741 49.4532 30.8975C48.5859 30.7516 48.2935 31.1421 48.1324 31.4974L48.3158 31.579C48.409 31.7662 47.9927 31.4354 48.0669 31.5726C48.1411 31.7097 48.3657 31.8618 48.6036 31.9154C48.6948 32.1538 48.213 31.8979 48.0854 31.9246C47.8498 31.8198 48.2624 31.951 47.9773 31.7933C47.8987 31.7583 48.0403 32.071 47.6941 31.886C47.8506 32.0095 48.0217 32.1135 48.2038 32.1959L47.9968 32.1665C48.3238 32.5096 48.8202 32.3864 49.2265 32.7857L49.1341 32.828C49.4331 33.1172 49.642 32.8872 49.6439 33.1379C49.3231 33.0793 49.0266 32.9295 48.7904 32.7067C48.5887 32.8046 47.9174 32.3188 47.8506 32.4662C48.0161 32.6333 47.9875 32.3495 48.2364 32.5643C48.4851 32.7791 47.986 32.6303 48.0301 32.7645C47.9589 32.6876 47.8727 32.626 47.7765 32.5832C47.6804 32.5406 47.5768 32.5178 47.4715 32.5163C47.5648 32.7035 47.8118 32.6674 47.7704 32.8053C47.5609 32.7122 47.3557 32.7251 47.2639 32.5802C46.8013 32.3746 47.3067 32.7868 46.9321 32.6412C47.2032 32.8762 47.7003 32.9826 47.7384 33.1765C47.4555 32.9674 47.2333 33.0874 46.8653 32.7886C46.9871 32.945 47.1553 33.0595 47.3462 33.1165C47.4784 33.3107 46.7013 32.9654 47.24 33.3507L46.9171 33.2071C46.9935 33.2932 47.0523 33.3716 47.1867 33.5147C47.1553 33.584 46.6406 33.4699 47.0806 33.7487C47.0282 33.7254 46.9457 33.9076 46.6737 33.6514C46.5407 33.4359 46.9713 33.6895 46.5848 33.3616C46.8838 33.6507 46.4481 33.4779 46.3013 33.4543L46.4653 33.579C46.3868 33.5441 46.3618 33.6686 46.165 33.5707C46.2684 33.5979 46.3588 33.6604 46.4209 33.7468L46.1327 33.6188C45.9117 33.6664 46.5743 33.94 46.4107 34.0236L46.6816 34.0505C46.638 34.0311 46.8439 34.2476 46.7204 34.2655C46.4585 34.1491 46.1355 34.0056 45.9348 33.9163C45.7339 33.8272 46.1835 34.1313 45.8796 34.0378L46.2265 34.1294C46.3137 34.1682 46.5865 34.4456 46.5131 34.5381C46.4399 34.6305 45.9771 34.4248 45.902 34.2665C45.8785 34.3185 45.9662 34.4717 46.171 34.5523C46.019 34.6098 45.9191 34.3674 45.717 34.3505C45.8514 34.4936 46.0037 34.7594 46.1843 34.9854L46.658 35.144L46.6268 35.213C46.9846 35.3721 46.8404 35.4126 47.2119 35.5881C47.2407 35.6633 47.0814 35.6446 46.9697 35.6365C46.5083 35.1502 46.0968 35.2484 45.6558 34.9482C45.3988 35.0527 46.7851 35.8354 45.8853 35.5294C45.778 35.4193 45.3353 35.2854 45.5562 35.2377C45.5408 35.3872 45.015 34.9971 45.1245 35.2645C45.3918 35.2999 45.5669 35.7002 45.9585 35.7388C45.7752 35.6574 45.8832 35.5807 45.9435 35.5867C46.0963 35.7587 46.4533 35.8966 46.3682 36.0149C46.2831 36.1335 46.2062 36.1408 45.959 35.9685C45.712 35.7962 46.0103 35.856 45.7397 35.7357C45.5459 35.8162 45.9654 36.1172 45.4232 35.8555C45.5149 35.792 45.2447 35.578 45.0469 35.4589L44.8552 35.4881L45.065 35.5814C45.0969 35.8349 44.6894 35.4146 44.6369 35.5996L44.963 35.9215C45.3122 36.0766 44.9665 35.5897 45.4742 35.9508C45.4192 36.0721 45.1437 35.9396 45.2071 36.1239C45.2594 36.1473 45.3003 36.1029 45.3694 36.1127C45.4382 36.1226 46.0299 36.6456 45.524 36.5354C45.3132 36.5145 45.3232 36.4462 45.1049 36.3492C44.943 36.4751 44.713 36.4042 44.6095 36.4936C45.0199 36.676 44.5153 36.7016 44.9881 36.8388C44.8042 36.6426 44.9833 36.4097 45.3887 36.5796C45.7972 36.9277 45.403 36.4089 45.8935 36.6686C45.8268 36.8159 46.2621 37.0822 46.545 37.2913C46.5253 37.3345 46.3954 37.2974 46.3351 37.2916C46.0383 37.1595 46.0821 37.0857 45.7962 36.9065C45.7787 37.1071 45.5278 37.1517 45.2112 37.0631C45.3068 37.1993 45.6008 37.361 45.6632 37.3158C45.5763 37.3874 45.5069 37.4776 45.4606 37.5797C45.4143 37.682 45.3921 37.7935 45.3959 37.9055C45.011 37.5052 45.1653 38.0215 44.844 37.7121C44.7327 37.4764 44.535 37.2921 44.2913 37.1958C44.2637 37.2565 44.5007 37.2891 44.5739 37.4049C44.2946 37.2807 44.893 37.7654 44.4837 37.6043C44.7377 37.5298 45.054 37.92 45.4262 38.1168C45.1472 38.1074 45.6968 38.2371 45.6087 38.3855C45.3737 38.37 45.1387 38.4118 44.9238 38.5077C45.1494 38.8893 44.6582 38.9316 44.5525 39.072C44.6801 39.2537 45.1126 39.4564 45.1267 39.5875C45.1405 39.7187 44.7396 39.2385 44.8474 39.4634L44.9346 39.5022C44.8298 39.4556 45.0297 39.9403 44.4295 39.6216L44.901 39.831C44.9446 39.8504 44.8114 39.8432 44.7513 39.8372C44.8571 39.9323 44.9792 40.0078 45.112 40.0601C45.3546 40.3346 44.9468 40.2158 44.8736 40.308L44.6627 40.079C44.3515 40.1178 44.5213 40.3913 44.3371 40.4969L44.6077 40.6171L44.3978 40.6174C44.6595 40.7337 44.7489 40.93 44.5189 40.8589L45.2873 40.9918C45.1908 40.8343 44.9557 40.8444 44.7173 40.6761C44.479 40.5076 44.6971 40.3964 44.9512 40.5301C44.9197 40.5995 44.9238 40.5908 44.7596 40.5596C45.1036 40.7957 45.135 40.7264 45.3881 40.8389C45.3881 40.8389 45.4322 40.9731 45.3488 40.9256C45.5408 41.011 45.6278 40.935 45.7011 40.8427C45.5205 40.8248 45.5056 40.6726 45.3882 40.6309C45.7199 40.7784 45.8531 40.7852 45.8501 40.6067C45.5502 40.2965 46.2238 40.5226 46.2198 40.3231C45.9614 40.2004 45.6821 40.1258 45.3964 40.1031C45.2943 39.9119 45.4436 39.9993 45.3675 39.8198C45.6313 39.9622 45.9179 40.0575 46.2149 40.1023L45.99 39.9503C46.173 39.9171 46.4877 40.1713 46.5305 39.9612C46.5833 39.708 46.6761 39.4644 46.8053 39.2396L46.5805 39.0879C47.113 39.3245 46.9701 38.8754 47.2704 38.884C47.1914 38.5259 47.801 38.5472 47.473 38.1826C47.9044 37.9804 48.2566 37.6426 48.4749 37.2219L48.1082 37.0588C48.3788 37.1791 47.9427 36.8916 48.0353 36.8495C48.2471 37.0997 48.4429 36.968 48.6778 37.0516C48.5394 36.7089 48.9701 36.6611 49.3123 36.6466L49.0878 36.4943C49.6151 36.6038 49.3662 36.1808 49.4286 35.9272C49.3325 35.8846 49.1568 35.6711 49.2153 35.6345C49.4717 35.7092 49.7426 35.7221 50.0056 35.673C50.0891 35.4923 50.1033 35.2877 50.0458 35.0975C50.8473 34.9954 50.8028 34.3298 51.4097 34.0788L51.1655 33.8767C52.0193 33.798 51.8507 32.9208 52.3872 32.7323L51.8894 32.5111C51.8252 32.3055 52.1856 32.3199 52.4957 32.5618C52.4315 32.3562 52.9047 32.4002 52.5834 32.0908C52.5677 31.9171 52.8828 32.0777 53.0173 32.0125C52.9886 31.8955 53.0001 31.7724 53.0499 31.6624C53.0997 31.5524 53.1851 31.462 53.2924 31.4055L53.2608 31.4748C53.1474 31.4245 52.9378 31.3318 52.951 31.2333C53.1308 31.23 53.0335 30.8429 53.5273 31.281C53.3631 30.8332 54.1532 30.8718 53.8677 30.3908C54.0248 30.4606 54.0598 30.4762 54.1733 30.5266C54.3192 30.3207 54.1646 29.8975 54.5243 29.8908C54.478 29.8078 54.245 29.7668 54.2802 29.6888C54.3157 29.6109 54.4897 29.7819 54.5858 29.8245C55.0931 29.6542 54.7549 28.9418 55.0352 28.6705C55.5512 28.2493 55.9784 27.7313 56.2925 27.1463L56.1792 27.0959C56.7182 27.1793 56.0219 26.4009 56.7439 26.6593C56.6706 26.5435 56.8265 26.4774 56.5646 26.3609C56.9649 26.4036 56.545 25.7793 57.065 25.8124C57.065 25.8124 57.0648 25.8124 56.9863 25.7774C56.8771 25.4166 57.3328 25.4525 57.2927 25.1015C57.2099 25.1057 57.1277 25.087 57.0548 25.0477C56.9004 24.8331 57.6502 25.1458 57.1805 24.7704C57.2041 24.7184 57.4773 24.9023 57.4513 24.8908C57.5591 24.2825 58.232 23.9775 58.6773 23.5504C58.5944 22.9928 57.8004 22.9631 58.3819 22.9298C58.2771 22.8834 58.6 23.0268 58.4866 22.9763C58.7043 22.9586 58.005 22.4185 58.335 22.5235C58.6651 22.6286 58.536 22.6129 58.7455 22.706C58.6791 22.3432 58.4128 22.1209 58.7765 22.1055L58.593 22.0239C59.2058 22.1296 59.0951 21.7259 59.7669 21.9099C60.5932 20.8502 61.6073 19.9783 62.386 18.9079C62.9815 17.7561 63.9219 16.8617 64.3244 15.6033C64.0402 15.05 64.0653 15.0405 64.4315 14.8804C64.3442 14.8416 64.3269 14.8339 64.257 14.8029C64.6389 15.0247 64.4211 14.6259 64.7934 14.8226C65.026 14.4086 65.2953 14.0157 65.598 13.6489C65.5181 13.6864 65.1905 13.5303 65.2577 13.4977L65.543 13.5619L65.4384 13.5154C65.5134 13.5096 65.5886 13.5227 65.6573 13.5532C65.726 13.5837 65.7857 13.6306 65.8312 13.69C66.8333 12.844 66.7586 11.3425 67.5156 10.3666C67.523 10.0262 67.8812 9.76879 68.1182 9.59292C68.1369 8.48687 68.1882 7.54061 69.0552 6.94687C69.1189 6.62109 68.0994 6.11618 67.6777 6.28289Z" fill="#1C57BC"/>
<path d="M92.248 58.5885C91.468 57.8494 91.5664 58.9599 90.9358 58.5641C90.8866 58.535 91.2037 59.0438 91.0591 58.9693C90.3693 58.4498 90.0984 59.1199 90.0065 59.8627L90.0999 59.9845C90.0803 60.1279 89.7471 59.7197 89.7093 59.819C89.7604 59.8994 89.8069 59.9828 89.8488 60.0682C89.6845 59.8048 89.6419 60.0231 89.4793 59.8493C89.5122 59.9795 89.6289 60.1921 89.6519 60.3387L89.4382 60.0462C88.916 59.3602 89.1773 60.2569 88.7962 59.9648C88.848 60.0203 88.8881 60.0855 88.9145 60.1565C88.3972 59.85 88.1112 60.1017 87.7203 60.1025C87.8151 60.2379 87.8961 60.382 87.9618 60.5332C87.7681 60.2081 87.6285 60.1807 87.5103 60.155C87.6631 60.5112 87.1817 59.9604 87.2097 60.1542L87.2837 60.1979C87.021 59.8762 87.2852 60.4537 87.0126 60.0375L87.1146 60.3303C86.8237 59.8702 87.1423 60.6345 86.9568 60.4249L86.9091 60.3195C86.7778 60.2416 86.8879 60.4839 86.8254 60.458C86.6613 60.3607 86.6923 60.6781 86.5379 60.2877C86.6596 60.6033 86.7104 60.3902 86.8993 60.8343C86.3031 60.6583 85.9419 60.9424 85.5854 61.1632C85.6064 61.2939 85.6409 61.4219 85.6887 61.5454C85.6066 61.4968 85.5081 61.5493 85.3768 61.3606C85.3768 61.3606 85.4508 61.5702 85.4443 61.5996C85.4376 61.6289 85.1471 61.2242 85.157 61.4295C85.2538 61.5291 85.3305 61.6459 85.3835 61.7739C85.1585 61.5189 85.0961 61.6036 84.9811 61.5356C85.041 61.5933 85.0908 61.6603 85.1289 61.734C84.8678 61.4463 85.0304 61.8969 84.8252 61.7199L84.9596 61.9219C84.9858 62.2474 84.6886 61.4844 84.6395 61.7321C84.7015 61.7992 84.7537 61.8744 84.7939 61.9561C84.4852 61.6182 84.3997 61.8334 84.2257 61.7524C84.2514 61.7651 84.2761 61.7798 84.2995 61.7962C84.1698 61.8079 84.1665 62.0166 83.9151 61.8787C83.9233 61.9944 84.214 62.399 84.0563 62.3832C83.828 61.9489 83.7709 62.3024 83.5671 61.7721C83.4982 61.8862 83.4439 62.1421 83.3025 62.0251C83.4372 62.1714 83.5425 62.5879 83.6378 62.5779L83.7264 62.8742C83.8332 63.0482 83.7759 62.7923 83.8531 63.0153C83.8531 63.0153 83.6147 62.8742 83.5967 62.9964C83.3784 62.7673 83.0399 62.3123 82.8888 62.3223C83.0613 62.4245 83.1172 62.8121 83.1944 62.8689L82.5816 62.1294C82.5405 62.1052 82.7526 62.4743 82.6343 62.3932C82.586 62.2974 82.5216 62.2103 82.4439 62.136C82.4439 62.136 82.2219 62.1157 82.4372 62.5532C82.5094 62.7288 82.544 62.6163 82.5866 62.7856C82.5522 62.8426 82.4224 62.6884 82.3436 62.7081L82.3929 62.7373C82.3486 62.8107 82.1713 62.6058 82.0777 62.3731C82.1023 62.3324 82.1992 62.6334 82.2089 62.451C82.0383 62.2169 81.9151 62.1993 81.8395 62.2321C81.9114 62.322 81.9772 62.4163 82.0366 62.5147C81.8547 62.3367 81.6324 62.205 81.3879 62.1306C81.2796 61.9224 81.6276 62.4719 81.5848 62.3581C81.5915 62.7163 81.0757 62.1119 81.1758 62.5921C81.2169 62.6163 81.0314 62.2959 81.0658 62.3496C81.1004 62.4032 81.1711 62.7109 81.066 62.6264C81.1596 62.8037 80.9919 62.5826 80.9263 62.5436C80.8606 62.5047 80.9575 62.6397 81.0249 62.6021C80.8689 62.5097 80.4815 62.3574 80.4683 62.6929C80.4091 62.5694 80.1495 62.316 80.13 62.3486L80.2859 62.6071C80.3369 62.7811 80.1546 62.6399 80.2777 62.8791C80.0249 62.5963 80.7013 63.0083 80.4681 62.8037C80.5651 63.0492 80.1002 62.4529 80.322 62.8057C80.2874 62.8629 80.0182 62.5704 80.0905 62.8567C80.1151 62.8161 80.3433 63.195 80.2776 63.2114C80.2119 63.2279 80.1838 63.0895 80.0394 63.0703L79.9244 63.0023C79.7766 62.7485 79.8702 63.0919 79.7273 62.7746C79.8392 62.9957 79.5171 62.7166 79.7634 63.1393L79.9608 63.4775C79.8184 63.3379 79.6906 63.1843 79.5797 63.0191C79.5975 63.0753 79.6205 63.1301 79.6486 63.1821C79.3661 62.6715 79.5846 63.2877 79.3053 62.901C79.3137 63.1273 79.0887 63.0382 79.2251 63.3849C79.0608 63.2876 78.9112 63.1106 78.8948 63.2669C78.95 63.3053 78.9958 63.3553 79.0293 63.4131C79.0621 63.5988 78.9901 63.4783 78.8883 63.4069C78.9371 63.5934 78.9755 63.7823 79.0033 63.973C78.8438 63.8014 78.714 63.605 78.619 63.3912C78.8341 63.9394 78.2495 63.1721 78.4417 63.6847C78.5607 63.7723 78.6459 63.8975 78.6845 64.0394C78.8996 64.5876 78.3611 63.7255 78.3939 64.0218L78.187 63.5894C78.2856 63.8692 77.9077 63.424 78.154 63.8467C78.0359 63.7103 78.1082 64.0521 77.8963 63.6275C77.9227 64.0638 77.3855 63.6239 77.6845 64.4211C77.6188 64.3822 77.6401 64.4945 77.5005 64.2456C77.3609 63.9968 77.673 64.3478 77.5712 64.2211C77.4694 64.0942 77.4858 64.1041 77.4514 64.0504C77.4168 63.9968 77.4249 64.2232 77.6581 64.5385C77.6843 64.8642 77.1624 63.9012 77.1099 64.1358C77.0572 64.3705 77.2329 64.375 77.1771 64.3752L76.9305 64.1183C76.8665 64.2242 77.0917 64.5348 77.2444 64.8357C77.1787 64.7969 77.1179 64.8604 76.9651 64.6704L77.1015 65.0722C76.9997 64.7793 76.9635 64.913 76.9076 64.8579L76.9732 64.8967C77.0275 65.0285 76.924 64.9781 76.919 64.9862C76.8637 64.8736 76.8393 64.7484 76.8485 64.6232C76.7582 64.5144 76.7336 64.5554 76.6186 64.432C76.7861 64.7083 76.6516 64.6727 76.622 64.7215C76.5924 64.7705 76.4331 64.4989 76.4233 64.5151C76.4134 64.5315 76.3788 64.5886 76.515 64.7691C76.5561 64.7934 76.4722 64.6 76.5494 64.7121C76.6267 64.8243 76.7221 65.0911 76.558 64.9383C76.3937 64.7857 76.2673 64.3673 76.2757 64.5936C76.3495 64.6374 76.4034 64.7695 76.4741 64.8555L76.4677 65.0508L76.3246 64.7892C76.3427 64.8341 76.3653 64.8768 76.392 64.9174C76.2147 64.6571 76.213 64.9 76.0258 64.6008C75.9847 64.5764 76.0422 64.8323 76.0126 64.8811C76.0504 65.0586 75.9439 64.9949 75.7928 64.839L75.8421 64.8682C75.8421 64.8682 75.737 64.8947 75.6369 64.7467C75.6746 64.9794 76.1475 65.7467 75.8912 65.4511C75.8205 65.4756 75.5249 65.0239 75.4659 64.8448C75.4379 65.0941 75.0617 64.7384 75.1719 65.2022C75.1287 65.1208 75.0702 65.0484 74.9994 64.9891C74.8762 65.193 74.4575 64.8896 74.5839 65.474C74.707 65.547 74.7268 65.7357 74.8057 65.8821C74.6414 65.674 74.8877 66.1522 74.6413 65.7849C74.5182 65.5458 74.4543 65.4303 74.4592 65.3113C74.4642 65.1925 74.1143 65.3284 74.1717 65.584C74.152 65.4867 74.0976 65.3999 74.0189 65.3388C74.2307 65.7078 74.1799 65.8104 74.0502 65.7113L73.9221 65.4803L74.0092 65.7422C73.9352 65.6984 73.7234 65.2742 73.7809 65.5296C73.8275 65.6085 73.867 65.6914 73.8991 65.777C73.7348 65.6244 73.4769 65.3498 73.5293 65.558L73.656 65.9207C73.6 65.8851 73.5526 65.8382 73.5168 65.7825C73.481 65.7269 73.458 65.6645 73.4491 65.5992C73.4326 65.8663 73.3719 65.9296 73.4983 66.2371C72.9136 65.6359 72.6773 65.7506 72.4095 65.9353L72.5079 66.1044C72.5358 66.2982 72.3241 65.8183 72.3191 65.9926C72.4046 66.1848 72.5051 66.37 72.6196 66.5469C72.6278 66.7733 72.3503 66.3099 72.2469 66.2595C72.1434 66.2094 72.3702 66.3879 72.2076 66.1033C72.1337 66.0595 72.1763 66.3394 72.0023 65.9818C72.0819 66.1626 72.1792 66.3354 72.293 66.4972L72.1207 66.3951C72.2718 66.8278 72.6559 67.0222 72.8513 67.5477L72.7857 67.5088C72.932 67.8944 73.1289 67.8454 73.0714 68.0328C72.8635 67.8021 72.6993 67.5358 72.587 67.2472C72.4178 67.2134 72.0943 66.4569 71.9925 66.5517C72.0615 66.7697 72.117 66.5484 72.2402 66.8429C72.3634 67.1372 72.0515 66.7309 72.0449 66.871C71.9853 66.6724 71.875 66.4924 71.7247 66.3486C71.7526 66.5424 71.9417 66.6543 71.871 66.7344C71.7528 66.5425 71.5885 66.4451 71.5851 66.2661C71.3175 65.8417 71.5589 66.4387 71.3306 66.1151C71.4636 66.4487 71.8099 66.7981 71.7984 67.0017C71.6507 66.6926 71.4601 66.6573 71.2697 66.1791C71.3159 66.3682 71.4033 66.5447 71.5258 66.6965C71.5734 66.9129 71.0989 66.2216 71.4374 66.8429L71.25 66.5437C71.2926 66.6577 71.3077 66.7438 71.3667 66.9228C71.3421 66.9635 70.9889 66.5883 71.2779 67.0697C71.2288 67.0404 71.1417 67.1108 71.0053 66.7643C70.9676 66.5315 71.2091 66.9622 71.0169 66.5051C71.1549 66.8858 70.892 66.5088 70.8116 66.3836L70.9052 66.5611C70.8313 66.5173 70.8099 66.5711 70.667 66.42C70.7337 66.4981 70.781 66.5905 70.8051 66.6899L70.6359 66.4345C70.4716 66.3373 70.8723 66.9288 70.7377 66.8933L70.9216 67.0689C70.8723 67.0396 70.9889 67.308 70.8953 67.2415C70.7427 66.996 70.5535 66.7182 70.4303 66.5345C70.3072 66.3508 70.5586 66.8206 70.3862 66.6077L70.6144 66.876C70.6884 66.9198 70.7952 67.3152 70.7247 67.3398C70.5495 67.1912 70.4238 66.9935 70.3648 66.7725C70.3648 66.7725 70.3583 66.9679 70.4863 67.1434C70.3713 67.0754 70.3533 66.8654 70.2039 66.7436C70.263 66.9226 70.3006 67.2104 70.3829 67.4805L70.6802 67.8563L70.6557 67.8969C70.8938 68.2041 70.7591 68.1685 70.9776 68.5083C70.948 68.5571 70.8872 68.4548 70.7969 68.4011C70.5866 67.7894 70.2729 67.6811 70.0215 67.1558C69.8408 67.0486 70.6211 68.4523 70.0511 67.716C69.9986 67.5631 69.7212 67.2104 69.8805 67.3159C69.8261 67.4056 69.5535 66.8233 69.5518 67.1212C69.7357 67.2967 69.7573 67.6856 70.025 67.9438C69.9264 67.7749 70.0118 67.7812 70.089 67.838C70.1663 67.8949 70.3749 68.3615 70.2943 68.4025C70.2139 68.4434 70.1399 68.3996 70.0018 68.1297C69.8639 67.8596 70.0971 68.1197 69.9082 67.8417C69.7686 67.759 69.9759 68.2469 69.654 67.7461C69.7197 67.7851 69.5915 67.4433 69.483 67.2352L69.3434 67.1524L69.4616 67.3446C69.4205 67.5417 69.2349 67 69.125 67.1451L69.2858 67.5616C69.4927 67.8835 69.373 67.3249 69.6473 67.886C69.603 67.9594 69.4058 67.6767 69.4173 67.8606C69.4173 67.8606 69.4831 67.8997 69.5325 67.9288C69.5816 67.9581 69.8806 68.6997 69.544 68.3341C69.4044 68.1961 69.4255 68.1422 69.3122 67.9422C69.1661 67.9442 69.0083 67.7625 68.918 67.7643C69.1495 68.1561 68.8392 67.8945 69.1134 68.2343C69.0215 67.9804 69.207 67.9134 69.4584 68.2726C69.6603 68.7689 69.5223 68.1668 69.7917 68.6253C69.7013 68.6824 69.9575 69.1444 70.1053 69.4535C70.1053 69.4535 69.9904 69.3853 69.9411 69.3562C69.7785 69.0716 69.8181 69.0614 69.6603 68.7687C69.5864 68.8909 69.4091 68.7969 69.2251 68.5108C69.2662 68.6808 69.3538 68.8362 69.4783 68.9597C69.4004 68.9567 69.3235 68.9788 69.259 69.0224C69.1947 69.0659 69.1459 69.1287 69.1199 69.2016C68.9491 68.6908 68.9346 69.1581 68.7736 68.7418C68.7489 68.4929 68.6575 68.2554 68.509 68.0535C68.4795 68.1025 68.6225 68.2534 68.6571 68.3624C68.4683 68.1397 68.7982 68.8115 68.5304 68.4426C68.7193 68.5544 68.8654 68.9957 69.0904 69.3614C68.8687 69.23 69.2334 69.623 69.1529 69.6639C69.0056 69.5248 68.8291 69.4202 68.6357 69.3575C68.7113 69.7677 68.3483 69.5195 68.2383 69.5539C68.2859 69.7704 68.547 70.1685 68.5224 70.2646C68.4977 70.3607 68.3349 69.7996 68.3332 70.0423L68.4073 70.0861C68.3086 70.0278 68.3777 70.4672 68.0377 69.8672L68.3088 70.3046C68.3088 70.3046 68.2348 70.2608 68.1855 70.2315C68.2349 70.3669 68.3048 70.4941 68.3925 70.6089C68.4993 70.9489 68.2368 70.627 68.1661 70.6516L68.0643 70.3587C67.8343 70.2225 67.8965 70.5252 67.7323 70.4832L67.8751 70.7452L67.7109 70.6479C67.8637 70.8934 67.8918 71.0871 67.739 70.8969L68.2597 71.438C68.2219 71.2605 68.0362 71.1617 67.9244 70.8852C67.8127 70.6086 67.9722 70.6584 68.1249 70.9039C68.0954 70.9529 68.125 70.9039 67.9854 70.8212C68.0924 71.0194 68.2252 71.2028 68.381 71.3659C68.381 71.3659 68.3842 71.4898 68.381 71.3659C68.5107 71.5204 68.5699 71.5332 68.6356 71.5169C68.496 71.4341 68.5418 71.2842 68.4679 71.1851C68.6454 71.5005 68.7604 71.5687 68.8213 71.3943C68.6849 70.9925 69.1004 71.5595 69.148 71.3885C68.9993 71.155 68.8213 70.9414 68.6177 70.753C68.598 70.5643 68.6471 70.7042 68.6733 70.5314C68.8188 70.7839 68.9973 71.0161 69.204 71.2222L69.0857 70.9751C69.2252 71.0579 69.4123 71.4122 69.4681 71.3014C69.5512 71.1426 69.6777 71.0102 69.8328 70.9195L69.7146 70.6721C70.0514 71.1483 70.0397 70.7433 70.245 70.9203C70.2779 70.6076 70.7048 70.9711 70.5684 70.514C70.9346 70.5538 71.2699 70.6081 71.5113 70.3746L71.2749 70.0463C71.4588 70.2772 71.2009 69.8366 71.2764 69.8591C71.3684 70.1683 71.5392 70.1812 71.6919 70.3713C71.6705 70.0375 71.9891 70.2481 72.2372 70.4283L72.1056 70.1844C72.462 70.5728 72.3866 70.1073 72.4835 69.9654C72.5803 69.8235 72.3603 69.6156 72.4112 69.6236C72.5591 69.818 72.7473 69.9785 72.9631 70.0945C73.0211 70.0457 73.0664 69.9835 73.0949 69.9136C73.1235 69.8438 73.1347 69.7682 73.1274 69.6933C73.7351 70.0534 73.8548 69.5596 74.349 69.7197L74.2257 69.4254C74.8827 69.8147 74.9419 69.108 75.3754 69.2761L75.0849 68.8158C75.0915 68.6204 75.3492 68.8394 75.507 69.1876C75.5085 69.0004 75.8451 69.3106 75.6841 68.8941C75.7532 68.7799 75.9225 69.0353 76.0046 69.0839C76.0818 68.8085 76.1672 68.8147 76.3724 68.8255L76.3477 68.8666C76.2615 68.7684 76.2026 68.6494 76.1769 68.5215C76.3248 68.6091 76.3297 68.2689 76.5792 68.8708C76.5727 68.4571 77.1248 68.928 77.0541 68.399C77.1 68.4998 77.1675 68.5893 77.2525 68.6609C77.4036 68.5954 77.392 68.1899 77.6598 68.3928C77.6367 68.3017 77.4729 68.1488 77.5239 68.1015C77.5747 68.0542 77.6369 68.3017 77.7305 68.3682C78.1345 68.53 78.0704 67.8054 78.3315 67.7608C78.8784 67.8524 79.2119 67.4854 79.6142 67.3363L79.5502 67.2204C79.9082 67.5877 79.6011 66.6194 80.061 67.2241C80.028 67.0939 80.1347 67.1019 80.0001 66.9004C80.2677 67.1586 80.1283 66.4668 80.4863 66.7787C80.4863 66.7787 80.4863 66.7785 80.4123 66.7349C80.4255 66.3993 80.7474 66.6787 80.7753 66.374C80.7125 66.3232 80.659 66.2616 80.6177 66.192C80.5636 65.9495 81.015 66.6049 80.726 66.0128C80.726 66.0128 80.8985 66.2808 80.8689 66.2743C81.1004 65.8912 81.6473 66.0382 82.0645 65.9754C82.1432 65.5127 81.5783 65.0449 81.9971 65.3483C81.9594 65.2263 82.1319 65.55 82.0876 65.4019C82.2517 65.4992 81.874 64.7218 82.0859 64.9802C82.2977 65.2386 82.227 65.1524 82.3354 65.3606C82.3715 65.061 82.2336 64.7357 82.4981 64.9256L82.3913 64.7514C82.8085 65.1868 82.828 64.8223 83.2599 65.3439C84.109 65.0275 85.0386 64.947 85.8466 64.6062C86.5479 64.0915 87.4298 63.9608 88.0308 63.2429C87.9635 62.6715 87.988 62.6862 88.3115 62.7783C88.2458 62.7393 88.2214 62.7245 88.2165 62.622C88.4365 62.9959 88.374 62.5827 88.5908 62.9438C88.8405 62.7151 89.1609 62.6832 89.4564 62.5261C89.3989 62.4921 89.1885 62.2127 89.2575 62.2093L89.4514 62.4236L89.4004 62.3048C89.5211 62.3909 89.6073 62.5164 89.6436 62.6593C90.5634 62.5951 90.8719 61.4385 91.6618 61.1645C91.7456 60.9153 92.0708 60.9305 92.2958 60.9088C92.5734 60.0988 92.8494 59.4207 93.6097 59.4727C93.2301 59.0788 92.7641 58.7764 92.248 58.5885Z" fill="#1C57BC"/>
<path d="M99.5007 110.637C99.1236 109.599 98.4445 110.57 97.9942 109.894C97.9474 109.846 97.9718 110.457 97.8521 110.308C97.4242 109.491 96.6318 109.91 96.0064 110.486L96.0308 110.648C95.9208 110.754 95.8138 110.222 95.684 110.295C95.5541 110.367 95.7155 110.436 95.6796 110.576C95.6707 110.267 95.4993 110.393 95.4416 110.184C95.3854 110.304 95.3751 110.552 95.3054 110.686L95.2566 110.323C95.1274 109.469 94.7953 110.357 94.5651 109.905C94.5704 109.992 94.5964 110.06 94.5681 110.14C94.1902 109.592 93.6807 109.673 93.2166 109.446C93.2264 109.611 93.2193 109.777 93.1954 109.942C93.1944 109.573 93.0605 109.464 92.9329 109.388C92.8526 109.77 92.7489 109.023 92.59 109.23L92.5953 109.317C92.5136 108.907 92.3958 109.509 92.3485 109.066L92.2625 109.36C92.2505 108.816 92.0892 109.633 92.0188 109.357L92.0272 109.243C91.9204 109.134 91.8895 109.375 91.8231 109.281L91.7818 109.32C91.615 109.151 91.4883 109.458 91.5084 109.042C91.4218 109.376 91.6687 109.205 91.546 109.693C91.0215 109.341 90.3897 109.179 89.7572 109.235C89.687 109.348 89.6369 109.472 89.6095 109.602C89.5426 109.534 89.3872 109.512 89.3292 109.317C89.319 109.401 89.2872 109.482 89.2373 109.551C89.0997 109.683 89.1497 109.08 89.0181 109.26C89.0601 109.394 89.0673 109.537 89.039 109.676C88.9561 109.332 88.8197 109.384 88.7062 109.269C88.7268 109.35 88.737 109.434 88.7363 109.518C88.6202 109.141 88.4846 109.588 88.38 109.345L88.4166 109.588C88.2088 109.88 88.384 109.077 88.212 109.243C88.272 109.304 88.2297 109.411 88.228 109.518C88.1062 109.067 87.8812 109.165 87.7343 109.015C87.7375 109.051 87.7368 109.087 87.7326 109.123C87.5712 109.054 87.393 109.186 87.22 108.982C87.1306 109.068 87.2108 109.586 87.0428 109.483C87.0776 108.987 86.7614 109.265 86.8917 108.717C86.7348 108.788 86.4953 108.953 86.4028 108.791C86.461 108.973 86.2989 109.38 86.4201 109.435L86.3139 109.723C86.3174 109.931 86.3963 109.643 86.3718 109.918C86.3251 109.871 86.1451 109.687 86.0762 109.767C85.986 109.457 85.9069 108.886 85.7049 108.802C85.7832 108.991 85.6288 109.338 85.6749 109.426L85.4725 108.471C85.4259 108.423 85.4394 108.86 85.3602 108.725C85.3629 108.615 85.3463 108.506 85.3111 108.402C85.2698 108.441 85.0624 108.271 84.981 108.72C84.9375 108.907 85.0811 108.822 84.9972 108.995C84.882 108.987 84.8847 108.812 84.7903 108.784L84.7556 108.818C84.6799 108.891 84.5422 108.6 84.6412 108.333C84.6412 108.333 84.6029 108.621 84.6863 108.488C84.6498 108.206 84.5228 108.117 84.4077 108.109C84.4342 108.221 84.4438 108.336 84.4362 108.451C84.3513 108.189 84.1986 107.953 83.9926 107.768C83.9962 107.54 84.0338 108.191 84.0627 108.071C83.8275 108.377 83.6157 107.616 83.426 108.05C83.426 108.05 83.458 107.728 83.4503 107.788C83.4426 107.848 83.3361 108.149 83.2771 108.021C83.2537 108.215 83.2037 107.947 83.137 107.879C83.0704 107.811 83.075 107.938 83.1756 108C83.0836 107.824 82.6956 107.51 82.4611 107.776C82.4698 107.649 82.3465 107.292 82.292 107.304L82.301 107.613C82.2371 107.793 82.1185 107.577 82.0877 107.818C81.9918 107.448 82.5026 108.159 82.3647 107.869C82.3135 108.117 82.1825 107.37 82.1897 107.786C82.0814 107.772 82.0055 107.422 81.8858 107.709C81.9271 107.669 81.9473 108.126 81.8666 108.098C81.7857 108.07 81.8347 107.956 81.7143 107.848L81.6144 107.746C81.6324 107.451 81.485 107.778 81.5577 107.456C81.527 107.698 81.371 107.266 81.3359 107.789L81.3366 108.172C81.2899 108.124 81.255 107.761 81.2104 107.579L81.1736 107.76C81.1963 107.17 81.0242 107.799 80.9702 107.335C80.8248 107.541 80.6244 107.338 80.5642 107.726C80.4654 107.544 80.3807 107.321 80.2707 107.427C80.3056 107.492 80.3255 107.563 80.3285 107.636C80.2379 107.802 80.2334 107.648 80.1672 107.553C80.0977 107.741 80.0111 107.922 79.9082 108.094C79.8094 107.911 79.8614 107.597 79.8577 107.402C79.7404 107.978 79.5929 107.009 79.4425 107.538C79.4958 107.592 79.5801 107.828 79.4898 107.968C79.3589 108.543 79.3136 107.529 79.1537 107.803L79.2152 107.32C79.1293 107.614 79.0029 107.022 79.0019 107.526C78.9571 107.357 78.8231 107.698 78.851 107.208C78.5806 107.601 78.252 106.939 78.0631 107.769C78.0098 107.715 77.9344 107.761 77.9651 107.519C77.9961 107.278 78.037 107.715 78.0736 107.534C78.0736 107.534 78.0417 107.393 78.0427 107.326C77.9464 107.419 77.8984 107.465 77.9466 107.855C77.7592 108.141 77.81 107.048 77.5839 107.213C77.5809 107.414 77.5593 107.488 77.4988 107.453L77.3955 107.117C77.2454 107.182 77.287 107.551 77.2683 107.887C77.2078 107.863 77.1567 107.821 77.1221 107.766C77.0876 107.711 77.0716 107.647 77.0764 107.582L76.9621 107.997C77.0479 107.703 76.9108 107.795 76.8784 107.707L76.9382 107.768C76.9158 107.909 76.8628 107.841 76.7961 107.773C76.8053 107.644 76.8623 107.523 76.9568 107.433C76.932 107.285 76.857 107.331 76.8261 107.136C76.8277 107.465 76.6872 107.363 76.5922 107.362C76.4975 107.36 76.529 107.066 76.5152 107.079C76.5015 107.092 76.3928 107.104 76.4366 107.339C76.4766 107.38 76.4934 107.179 76.5317 107.327C76.5702 107.475 76.471 107.743 76.3527 107.5C76.2345 107.257 76.41 106.863 76.2648 107.056C76.287 107.166 76.3036 107.279 76.3139 107.392L76.1623 107.538L76.1806 107.243L76.1513 107.376C76.1289 107.068 75.9703 107.273 75.9621 106.924C75.9086 106.87 75.7831 107.097 75.735 107.143C75.651 107.316 75.5579 107.194 75.5068 106.992L75.4722 107.026C75.4722 107.026 75.3372 106.997 75.2788 106.829C75.1601 107.049 75.1872 107.948 75.0915 107.564C74.9831 107.55 74.9576 107.019 75.008 106.825C74.8085 107.018 74.6193 106.525 74.4225 106.979C74.4042 106.852 74.4257 106.778 74.3726 106.71C74.0864 106.814 73.8093 106.328 73.5566 106.902C73.6567 107.003 73.5454 107.19 73.5292 107.364C73.479 107.095 73.4436 107.631 73.4371 107.175C73.4613 106.914 73.4636 106.78 73.5467 106.673C73.5121 106.634 73.468 106.604 73.4185 106.586C73.3689 106.569 73.3156 106.565 73.2637 106.573C73.2119 106.582 73.1631 106.604 73.1222 106.637C73.0812 106.67 73.0496 106.712 73.0301 106.761C73.0491 106.714 73.0582 106.663 73.0565 106.612C73.055 106.561 73.0429 106.511 73.0211 106.465C73.0145 106.895 72.885 106.953 72.7993 106.798L72.8031 106.543L72.7247 106.804C72.6714 106.75 72.7194 106.254 72.6139 106.501C72.6095 106.593 72.5968 106.685 72.5758 106.775C72.4842 106.56 72.3747 106.189 72.2355 106.429L72.135 106.803C72.0884 106.756 72.0239 106.527 72.1069 106.421C71.9005 106.619 71.8318 106.686 71.7392 106.986C71.4738 106.171 71.0341 106.119 70.6811 106.155L70.6852 106.349C70.5741 106.522 70.6496 106.013 70.5731 106.14C70.4965 106.266 70.479 106.535 70.5432 106.764C70.3977 106.97 70.3859 106.426 70.306 106.331C70.3098 106.076 70.364 106.5 70.3623 106.171C70.357 106.084 70.1698 106.356 70.1688 105.974C70.1375 106.169 70.1303 106.367 70.1465 106.564L70.0681 106.375C69.9461 106.823 70.2587 107.196 70.0942 107.764L70.0275 107.696C69.9266 108.098 70.203 108.162 69.9976 108.294C69.915 107.992 69.9062 107.674 69.9714 107.367C69.8313 107.225 69.945 106.441 69.7547 106.465C69.6971 106.693 69.9097 106.528 69.8507 106.849C69.7915 107.17 69.677 106.673 69.6078 106.766C69.6723 106.566 69.6685 106.351 69.597 106.155C69.4925 106.335 69.6389 106.524 69.4962 106.556C69.4927 106.335 69.3733 106.159 69.4908 106.006C69.4714 105.509 69.3464 106.145 69.264 105.775C69.2045 106.123 69.3528 106.602 69.2012 106.774C69.2403 106.432 69.0392 106.296 69.1485 105.794C69.0803 105.978 69.0633 106.177 69.0989 106.37C69.0009 106.57 68.9326 105.737 68.8612 106.414L68.8597 106.058C68.8241 106.172 68.7821 106.252 68.7318 106.446C68.6504 106.445 68.5227 105.96 68.5012 106.483C68.4611 106.443 68.3118 106.441 68.3985 106.08C68.4855 105.718 68.4958 106.356 68.6048 105.881C68.5105 106.289 68.4565 105.825 68.4113 105.684L68.388 105.892C68.3278 105.831 68.2735 105.843 68.2633 105.628C68.2821 105.73 68.2687 105.836 68.2247 105.93L68.2093 105.614C68.0626 105.465 68.1467 106.163 68.0126 106.068L68.1035 106.311C68.1035 106.311 68.0119 106.545 67.9591 106.45L67.9182 105.604C67.8181 105.502 67.859 105.925 67.8027 105.622L67.8784 105.973C67.8906 106.067 67.7833 106.434 67.6817 106.426C67.5802 106.418 67.5339 105.908 67.6516 105.755C67.6516 105.755 67.5003 105.901 67.551 106.13C67.4375 106.014 67.5827 105.821 67.4839 105.639C67.4335 105.833 67.2872 106.093 67.1883 106.36L67.269 106.837L67.1945 106.843C67.263 107.226 67.1291 107.131 67.1635 107.534C67.1017 107.593 67.0701 107.439 66.9967 107.364C67.1759 106.729 66.8882 106.477 66.9581 105.894C66.7846 105.717 66.7535 107.308 66.6051 106.38C66.6481 106.232 66.5804 105.782 66.6929 105.951C66.5966 106.044 66.6477 105.36 66.4814 105.6C66.5792 105.849 66.3372 106.188 66.4674 106.539C66.4702 106.351 66.5842 106.426 66.5703 106.44C66.506 106.66 66.5408 107.036 66.4191 107.021C66.2972 107.006 66.2439 106.952 66.2758 106.644C66.3076 106.336 66.3903 106.692 66.3617 106.349C66.2282 106.214 66.1595 106.73 66.1416 106.125C66.215 106.2 66.2817 105.832 66.292 105.597L66.172 105.475L66.1752 105.696C66.0032 105.862 66.1542 105.294 65.9706 105.338L65.8623 105.773C65.8767 106.156 66.1288 105.622 66.0515 106.239C65.936 106.257 65.9205 105.942 65.803 106.095C65.8429 106.136 65.8695 106.163 65.9029 106.197C65.9364 106.23 65.7751 107.034 65.6404 106.542C65.5755 106.353 65.6368 106.321 65.6472 106.086C65.4724 106.003 65.4284 105.768 65.3069 105.739C65.2999 106.196 65.0966 105.77 65.1978 106.241C65.2763 105.98 65.5329 106.024 65.567 106.454C65.4707 106.983 65.7174 106.389 65.7157 106.932C65.5733 106.937 65.5516 107.46 65.499 107.802C65.499 107.802 65.4054 107.707 65.4067 107.626C65.4186 107.298 65.4659 107.305 65.4913 106.976C65.3208 107.048 65.1747 106.859 65.0843 106.562C65.0209 106.716 65.0161 107.038 65.0833 107.079C64.9933 107.032 64.8929 107.008 64.7911 107.009C64.6893 107.01 64.5895 107.036 64.5004 107.085C64.644 106.563 64.2992 106.948 64.4077 106.513C64.5479 106.297 64.6113 106.04 64.588 105.784C64.5399 105.831 64.5777 106.019 64.5421 106.133C64.4787 105.837 64.3861 106.587 64.3388 106.13C64.5123 106.307 64.3288 106.774 64.336 107.19C64.2245 106.954 64.3178 107.485 64.2028 107.477C64.114 107.272 63.9776 107.091 63.8045 106.949C63.6022 107.329 63.3575 106.93 63.2088 106.901C63.104 107.108 63.1237 107.578 63.0344 107.651C62.9453 107.724 63.1508 107.155 62.9783 107.361L62.9836 107.449C62.9102 107.374 62.6741 107.747 62.6433 107.102L62.6557 107.619C62.6144 107.659 62.5957 107.558 62.5556 107.517C62.5395 107.678 62.4969 107.825 62.5425 107.94C62.4152 108.287 62.3401 107.87 62.2388 107.849L62.3246 107.555C62.1589 107.305 62.0257 107.591 61.8581 107.475L61.84 107.77L61.755 107.588C61.7573 107.876 61.6463 108.049 61.6094 107.807L61.8283 108.548C61.9124 108.375 61.7662 108.185 61.8382 107.904C61.9104 107.623 62.0307 107.719 62.0531 108.028C62.005 108.074 62.0065 107.98 61.9331 107.906C61.8862 108.308 61.9742 108.302 62.004 108.577C62.004 108.577 61.9077 108.67 61.9507 108.523C61.9883 108.725 62.0553 108.766 62.1842 108.761C62.1257 108.592 62.2422 108.506 62.2235 108.392C62.1977 108.747 62.2977 108.863 62.4346 108.771C62.5561 108.363 62.6884 109.029 62.8181 108.956C62.811 108.674 62.7506 108.396 62.641 108.136C62.752 107.963 62.7493 108.15 62.8337 107.95C62.8262 108.246 62.8743 108.54 62.9761 108.818L62.9936 108.55C63.1205 108.679 63.0735 109.094 63.2236 109.028C63.4449 108.945 63.6799 108.902 63.9168 108.903L63.9479 108.635C64.0067 109.213 64.2694 108.867 64.4149 109.111C64.6694 108.865 64.9186 109.405 65.0681 108.944C65.408 109.216 65.8384 109.353 66.2753 109.328L66.2205 108.931C66.2837 109.227 66.2847 108.711 66.3716 108.786C66.272 109.093 66.4533 109.196 66.497 109.445C66.7047 109.152 66.9367 109.497 67.095 109.781L67.1127 109.513C67.254 110.024 67.4908 109.598 67.7154 109.527C67.751 109.413 67.8023 109.166 67.8629 109.2C67.9083 109.452 68.014 109.691 68.1707 109.895C68.2632 109.888 68.3528 109.861 68.434 109.817C68.5154 109.773 68.5863 109.712 68.6421 109.639C69.0795 110.275 69.5936 109.912 70.0618 110.307L70.1139 109.993C70.5505 110.696 71.1693 110.113 71.5565 110.48L71.5447 109.936C71.6959 109.791 71.8335 110.094 71.7802 110.476C71.9314 110.331 72.0673 110.768 72.1827 110.313C72.2997 110.2 72.3346 110.577 72.435 110.652C72.7158 110.461 72.8033 110.509 73.0455 110.619L72.9971 110.666C72.9784 110.551 72.9891 110.316 73.0506 110.284C73.1706 110.406 73.398 110.161 73.2661 110.803C73.5496 110.438 73.8643 111.139 74.1498 110.64C74.1132 110.82 74.1804 110.861 74.1989 110.976C74.4358 110.999 74.6916 110.646 74.8631 110.957C74.925 110.897 74.8203 110.655 74.9155 110.642C75.0106 110.63 74.9049 110.877 74.9644 110.978C75.3112 111.332 75.7485 110.673 76.0926 110.764C76.6833 111.134 77.3223 110.994 77.8903 111.082L77.8923 110.947C78.0606 111.46 78.3875 110.47 78.4911 111.217C78.5806 111.13 78.6681 111.165 78.6516 110.917C78.7885 111.274 79.0969 110.607 79.2931 111.065C79.2931 111.065 79.2933 111.065 79.2332 111.004C79.4945 110.753 79.6513 111.13 79.9057 110.885C79.86 110.818 79.8376 110.737 79.8415 110.656C79.947 110.409 80.0295 111.216 80.1138 110.592C80.1138 110.592 80.1293 110.908 80.1027 110.881C80.6344 110.672 81.1698 111.095 81.7025 111.27C82.0946 110.892 81.7797 110.217 82.0636 110.697C82.0926 110.577 82.0735 110.939 82.0822 110.811C82.188 110.987 82.3028 110.123 82.3657 110.446C82.4285 110.768 82.4096 110.668 82.3993 110.902C82.6538 110.657 82.7202 110.316 82.885 110.62L82.888 110.418C83.0824 110.998 83.3443 110.706 83.4967 111.379C84.6935 111.548 85.8389 111.978 87.0159 112.114C88.1959 112.048 89.3155 112.397 90.5124 112.116C90.8253 111.604 90.8457 111.61 91.1333 111.849C91.128 111.762 91.1079 111.741 91.1362 111.661C91.1228 112.097 91.3454 111.711 91.3526 112.127C91.779 112.12 92.2047 112.153 92.6251 112.223C92.5649 112.162 92.5363 111.819 92.6172 111.847L92.6943 112.13L92.7098 112.009C92.7481 112.072 92.7713 112.143 92.7785 112.216C92.7855 112.289 92.7763 112.363 92.7508 112.432C93.8554 112.875 95.0405 112.038 96.1148 112.232C96.3883 112.075 96.7513 112.267 97.0276 112.371C97.91 111.838 98.7022 111.432 99.5217 111.899C99.8515 112.057 99.8351 110.923 99.5007 110.637Z" fill="#1C57BC"/>
</svg>
