<svg width="106" height="106" viewBox="0 0 106 106" fill="none" xmlns="http://www.w3.org/2000/svg">
<circle cx="53" cy="53" r="53" fill="#FCB932"/>
<path fill-rule="evenodd" clip-rule="evenodd" d="M30 53.1264C30 52.364 30.3029 51.6328 30.842 51.0937C31.3811 50.5546 32.1123 50.2517 32.8747 50.2517H66.1807L53.8368 37.9136C53.297 37.3738 52.9938 36.6417 52.9938 35.8783C52.9938 35.1149 53.297 34.3828 53.8368 33.843C54.3766 33.3033 55.1087 33 55.8721 33C56.6355 33 57.3676 33.3033 57.9074 33.843L75.1555 51.0911C75.4232 51.3581 75.6356 51.6754 75.7805 52.0246C75.9254 52.3739 76 52.7483 76 53.1264C76 53.5045 75.9254 53.8789 75.7805 54.2282C75.6356 54.5774 75.4232 54.8946 75.1555 55.1617L57.9074 72.4097C57.3676 72.9495 56.6355 73.2528 55.8721 73.2528C55.1087 73.2528 54.3766 72.9495 53.8368 72.4097C53.297 71.8699 52.9938 71.1378 52.9938 70.3745C52.9938 69.6111 53.297 68.879 53.8368 68.3392L66.1807 56.0011H32.8747C32.1123 56.0011 31.3811 55.6982 30.842 55.1591C30.3029 54.62 30 53.8888 30 53.1264Z" fill="#FFF7E6"/>
</svg>
