<svg width="106" height="106" viewBox="0 0 106 106" fill="none" xmlns="http://www.w3.org/2000/svg">
<circle cx="53" cy="53" r="52.5" fill="#181B34" stroke="url(#paint0_linear_46_249)"/>
<path fill-rule="evenodd" clip-rule="evenodd" d="M30 55.1264C30 54.364 30.3029 53.6328 30.842 53.0937C31.3811 52.5546 32.1123 52.2517 32.8747 52.2517H66.1807L53.8368 39.9136C53.297 39.3738 52.9938 38.6417 52.9938 37.8783C52.9938 37.1149 53.297 36.3828 53.8368 35.843C54.3766 35.3033 55.1087 35 55.8721 35C56.6355 35 57.3676 35.3033 57.9074 35.843L75.1555 53.0911C75.4232 53.3581 75.6356 53.6754 75.7805 54.0246C75.9254 54.3739 76 54.7483 76 55.1264C76 55.5045 75.9254 55.8789 75.7805 56.2282C75.6356 56.5774 75.4232 56.8946 75.1555 57.1617L57.9074 74.4097C57.3676 74.9495 56.6355 75.2528 55.8721 75.2528C55.1087 75.2528 54.3766 74.9495 53.8368 74.4097C53.297 73.8699 52.9938 73.1378 52.9938 72.3745C52.9938 71.6111 53.297 70.879 53.8368 70.3392L66.1807 58.0011H32.8747C32.1123 58.0011 31.3811 57.6982 30.842 57.1591C30.3029 56.62 30 55.8888 30 55.1264Z" fill="white"/>
<defs>
<linearGradient id="paint0_linear_46_249" x1="71" y1="7.27344" x2="25" y2="93.2734" gradientUnits="userSpaceOnUse">
<stop stop-color="#B43D6B"/>
<stop offset="1" stop-color="#1B4DA9"/>
</linearGradient>
</defs>
</svg>
