<svg width="42" height="33" viewBox="0 0 42 33" fill="none" xmlns="http://www.w3.org/2000/svg">
<g clip-path="url(#clip0_1046_22898)">
<path d="M40.0447 15.2947L36.2742 11.5242C35.5008 10.7508 34.4502 10.3189 33.3545 10.3189H30.9375V4.125C30.9375 2.98418 30.0158 2.0625 28.875 2.0625H2.0625C0.92168 2.0625 0 2.98418 0 4.125V25.7812C0 28.6301 2.30742 30.9375 5.15625 30.9375C6.85137 30.9375 8.34023 30.1061 9.28125 28.8492C10.2223 30.1125 11.7111 30.9375 13.4062 30.9375C16.2551 30.9375 18.5625 28.6301 18.5625 25.7812C18.5625 25.4268 18.5238 25.0852 18.4594 24.75H28.9781C28.9072 25.0852 28.875 25.4268 28.875 25.7812C28.875 28.6301 31.1824 30.9375 34.0312 30.9375C36.8801 30.9375 39.1875 28.6301 39.1875 25.7812C39.1875 25.4268 39.1488 25.0852 39.0844 24.75H40.2188C40.7859 24.75 41.25 24.2859 41.25 23.7188V18.208C41.25 17.1123 40.8182 16.0682 40.0447 15.2947ZM5.15625 27.8438C4.02187 27.8438 3.09375 26.9156 3.09375 25.7812C3.09375 24.6469 4.02187 23.7188 5.15625 23.7188C6.29063 23.7188 7.21875 24.6469 7.21875 25.7812C7.21875 26.9156 6.29063 27.8438 5.15625 27.8438ZM13.4062 27.8438C12.2719 27.8438 11.3438 26.9156 11.3438 25.7812C11.3438 24.6469 12.2719 23.7188 13.4062 23.7188C14.5406 23.7188 15.4688 24.6469 15.4688 25.7812C15.4688 26.9156 14.5406 27.8438 13.4062 27.8438ZM30.9375 13.4062H33.3545C33.6316 13.4062 33.8895 13.5158 34.0828 13.7092L36.8736 16.5H30.9375V13.4062ZM34.0312 27.8438C32.8969 27.8438 31.9688 26.9156 31.9688 25.7812C31.9688 24.6469 32.8969 23.7188 34.0312 23.7188C35.1656 23.7188 36.0938 24.6469 36.0938 25.7812C36.0938 26.9156 35.1656 27.8438 34.0312 27.8438Z" fill="white"/>
</g>
<defs>
<clipPath id="clip0_1046_22898">
<rect width="41.25" height="33" fill="white"/>
</clipPath>
</defs>
</svg>
