<svg width="24" height="17" viewBox="0 0 24 17" fill="none" xmlns="http://www.w3.org/2000/svg">
<path d="M22.8252 8.01699L20.701 5.89284C20.2653 5.45712 19.6734 5.21384 19.0562 5.21384H17.6945V1.72443C17.6945 1.08174 17.1753 0.5625 16.5326 0.5625H1.42755C0.784861 0.5625 0.265625 1.08174 0.265625 1.72443V13.9247C0.265625 15.5296 1.56553 16.8295 3.17044 16.8295C4.1254 16.8295 4.96417 16.3611 5.4943 15.653C6.02443 16.3647 6.86319 16.8295 7.81815 16.8295C9.42307 16.8295 10.723 15.5296 10.723 13.9247C10.723 13.725 10.7012 13.5325 10.6649 13.3437H16.5907C16.5508 13.5325 16.5326 13.725 16.5326 13.9247C16.5326 15.5296 17.8325 16.8295 19.4374 16.8295C21.0423 16.8295 22.3422 15.5296 22.3422 13.9247C22.3422 13.725 22.3205 13.5325 22.2842 13.3437H22.9232C23.2427 13.3437 23.5042 13.0823 23.5042 12.7627V9.65821C23.5042 9.04094 23.2609 8.45271 22.8252 8.01699ZM3.17044 15.0866C2.53138 15.0866 2.00852 14.5637 2.00852 13.9247C2.00852 13.2856 2.53138 12.7627 3.17044 12.7627C3.8095 12.7627 4.33237 13.2856 4.33237 13.9247C4.33237 14.5637 3.8095 15.0866 3.17044 15.0866ZM7.81815 15.0866C7.17909 15.0866 6.65623 14.5637 6.65623 13.9247C6.65623 13.2856 7.17909 12.7627 7.81815 12.7627C8.45721 12.7627 8.98008 13.2856 8.98008 13.9247C8.98008 14.5637 8.45721 15.0866 7.81815 15.0866ZM17.6945 6.9531H19.0562C19.2123 6.9531 19.3575 7.01483 19.4665 7.12376L21.0387 8.69599H17.6945V6.9531ZM19.4374 15.0866C18.7984 15.0866 18.2755 14.5637 18.2755 13.9247C18.2755 13.2856 18.7984 12.7627 19.4374 12.7627C20.0765 12.7627 20.5994 13.2856 20.5994 13.9247C20.5994 14.5637 20.0765 15.0866 19.4374 15.0866Z" fill="#FC5185"/>
</svg>
