<svg width="286" height="8" viewBox="0 0 286 8" fill="none" xmlns="http://www.w3.org/2000/svg">
<path d="M285 1C210.643 1.15857 136.261 1.06205 61.9733 2.76389C42.5455 3.20896 21.7136 3.61782 2.28297 5.12403C-4.13482 5.62152 15.2798 4.7599 21.7782 4.57747C48.5574 3.82569 75.3306 3.83217 102.15 3.83217C134.289 3.83217 166.972 3.27455 198.914 5.25653C204.317 5.59175 209.749 6.02578 215.051 6.61464C215.543 6.66925 216.907 6.91751 216.402 6.92933C210.52 7.06688 204.622 6.96099 198.732 6.96245C177.833 6.96764 156.928 7.01533 136.03 6.92933C126.688 6.89089 117.318 6.83898 108.01 6.43246C106.941 6.38577 105.876 6.31721 104.815 6.24199C104.208 6.19897 103.239 6.27451 103.045 6.01012C102.895 5.80678 103.978 5.93147 104.45 5.92731C105.967 5.91394 110.889 5.91902 111.661 5.91902C125.059 5.91902 138.457 5.91902 151.856 5.91902C153.176 5.91902 156.233 6.10082 157.697 5.8859C159.264 5.6559 154.518 5.49256 152.914 5.32278" stroke="#1C57BC" stroke-width="2" stroke-linecap="round"/>
</svg>
