<svg width="426" height="27" viewBox="0 0 426 27" fill="none" xmlns="http://www.w3.org/2000/svg">
<path d="M424.534 1.79427C313.625 6.59618 202.664 10.9941 91.9598 18.245C63.0083 20.1413 31.9599 22.0659 3.07334 25.6492C-6.46765 26.8327 22.437 24.2751 32.1188 23.5875C72.0165 20.7538 111.955 19.1259 151.962 17.4848C199.903 15.5183 248.62 12.632 296.398 13.8282C304.479 14.0305 312.61 14.3881 320.557 14.9998C321.294 15.0565 323.346 15.3676 322.593 15.4174C313.827 15.9959 305.023 16.1885 296.237 16.5512C265.061 17.8383 233.882 19.1932 202.701 20.3352C188.764 20.8457 174.783 21.3365 160.872 21.2599C159.274 21.2511 157.682 21.2072 156.094 21.1525C155.186 21.1213 153.745 21.3007 153.438 20.8923C153.202 20.5782 154.825 20.7102 155.529 20.6746C157.791 20.5606 165.133 20.2675 166.284 20.2203C186.271 19.4005 206.257 18.5806 226.243 17.7608C228.213 17.68 232.784 17.782 234.955 17.3507C237.277 16.8892 230.187 16.9199 227.784 16.7482" stroke="#FC5185" stroke-width="2" stroke-linecap="round"/>
</svg>
